<?xml version="1.0" standalone="no"?>
<!DOCTYPE svg PUBLIC "-//W3C//DTD SVG 20010904//EN"
 "http://www.w3.org/TR/2001/REC-SVG-20010904/DTD/svg10.dtd">
<svg version="1.0" xmlns="http://www.w3.org/2000/svg"
 width="841.000000pt" height="1200.000000pt" viewBox="0 0 841.000000 1200.000000"
 preserveAspectRatio="xMidYMid meet">

<g transform="translate(0.000000,1200.000000) scale(0.100000,-0.100000)"
fill="#000000" stroke="none">
<path d="M0 11980 c0 -6 30 -10 67 -10 36 0 64 2 62 4 -11 9 -129 15 -129 6z"/>
<path d="M165 11980 c-3 -6 3 -10 14 -10 12 0 21 -7 21 -15 0 -12 13 -15 63
-13 49 1 53 2 20 5 -57 5 -55 23 2 23 25 0 45 3 45 8 0 11 -158 13 -165 2z"/>
<path d="M417 11973 c14 -3 20 -9 16 -19 -3 -9 1 -14 12 -14 11 0 15 5 12 14
-4 9 1 17 11 19 9 3 -3 5 -28 4 -25 0 -35 -2 -23 -4z"/>
<path d="M578 11973 c12 -2 30 -2 40 0 9 3 -1 5 -23 4 -22 0 -30 -2 -17 -4z"/>
<path d="M697 11973 c18 -2 50 -2 70 0 21 2 7 4 -32 4 -38 0 -55 -2 -38 -4z"/>
<path d="M848 11973 c6 -2 18 -2 25 0 6 3 1 5 -13 5 -14 0 -19 -2 -12 -5z"/>
<path d="M1058 11973 c12 -2 32 -2 45 0 12 2 2 4 -23 4 -25 0 -35 -2 -22 -4z"/>
<path d="M1223 11973 c9 -2 25 -2 35 0 9 3 1 5 -18 5 -19 0 -27 -2 -17 -5z"/>
<path d="M1623 11973 c15 -2 39 -2 55 0 15 2 2 4 -28 4 -30 0 -43 -2 -27 -4z"/>
<path d="M0 11949 c0 -12 111 -11 129 0 9 6 -12 9 -57 9 -40 -1 -72 -5 -72 -9z"/>
<path d="M340 11945 c0 -9 -7 -18 -15 -21 -8 -3 -17 -14 -20 -25 -8 -25 -25
-24 -32 1 -5 19 -6 20 -19 3 -13 -17 -13 -17 -14 0 0 9 -4 17 -10 17 -13 0
-13 -12 4 -51 13 -30 14 -31 21 -10 8 27 29 23 33 -7 2 -12 9 -22 15 -22 19 0
42 18 34 27 -5 4 -12 1 -17 -7 -15 -24 -22 -4 -8 21 18 31 35 49 46 49 6 0 8
9 5 20 -6 23 -23 27 -23 5z"/>
<path d="M860 11950 c-13 -8 -12 -10 3 -10 9 0 17 5 17 10 0 12 -1 12 -20 0z"/>
<path d="M573 11943 c9 -2 23 -2 30 0 6 3 -1 5 -18 5 -16 0 -22 -2 -12 -5z"/>
<path d="M688 11943 c6 -2 18 -2 25 0 6 3 1 5 -13 5 -14 0 -19 -2 -12 -5z"/>
<path d="M398 11923 c7 -3 16 -2 19 1 4 3 -2 6 -13 5 -11 0 -14 -3 -6 -6z"/>
<path d="M560 11920 c0 -5 7 -10 16 -10 8 0 12 5 9 10 -3 6 -10 10 -16 10 -5
0 -9 -4 -9 -10z"/>
<path d="M1148 11923 c6 -2 18 -2 25 0 6 3 1 5 -13 5 -14 0 -19 -2 -12 -5z"/>
<path d="M140 11890 c-13 -9 -13 -11 0 -20 10 -6 16 -6 18 0 7 20 -3 30 -18
20z"/>
<path d="M618 11863 c7 -3 16 -2 19 1 4 3 -2 6 -13 5 -11 0 -14 -3 -6 -6z"/>
<path d="M100 11819 c0 -11 5 -17 10 -14 6 3 10 13 10 21 0 8 -4 14 -10 14 -5
0 -10 -9 -10 -21z"/>
<path d="M400 11830 c0 -5 7 -7 15 -4 8 4 15 8 15 10 0 2 -7 4 -15 4 -8 0 -15
-4 -15 -10z"/>
<path d="M610 11820 c0 -5 7 -10 15 -10 8 0 15 5 15 10 0 6 -7 10 -15 10 -8 0
-15 -4 -15 -10z"/>
<path d="M152 11780 c0 -14 2 -19 5 -12 2 6 2 18 0 25 -3 6 -5 1 -5 -13z"/>
<path d="M610 11780 c0 -5 7 -10 15 -10 8 0 15 5 15 10 0 6 -7 10 -15 10 -8 0
-15 -4 -15 -10z"/>
<path d="M1040 11780 c0 -5 5 -10 11 -10 5 0 7 5 4 10 -3 6 -8 10 -11 10 -2 0
-4 -4 -4 -10z"/>
<path d="M380 11770 c-11 -7 -6 -10 20 -10 26 0 31 3 20 10 -8 5 -17 10 -20
10 -3 0 -12 -5 -20 -10z"/>
<path d="M298 11763 c7 -3 16 -2 19 1 4 3 -2 6 -13 5 -11 0 -14 -3 -6 -6z"/>
<path d="M3 11720 c0 -25 2 -35 4 -22 2 12 2 32 0 45 -2 12 -4 2 -4 -23z"/>
<path d="M561 11744 c0 -11 3 -14 6 -6 3 7 2 16 -1 19 -3 4 -6 -2 -5 -13z"/>
<path d="M631 11694 c0 -11 3 -14 6 -6 3 7 2 16 -1 19 -3 4 -6 -2 -5 -13z"/>
<path d="M17 11589 c-9 -5 -17 -14 -17 -19 0 -17 26 -11 45 10 20 22 4 28 -28
9z"/>
<path d="M88 11563 c7 -3 16 -2 19 1 4 3 -2 6 -13 5 -11 0 -14 -3 -6 -6z"/>
<path d="M135 11540 c3 -5 10 -10 16 -10 5 0 9 5 9 10 0 6 -7 10 -16 10 -8 0
-12 -4 -9 -10z"/>
<path d="M88 11523 c7 -3 16 -2 19 1 4 3 -2 6 -13 5 -11 0 -14 -3 -6 -6z"/>
<path d="M240 11176 c0 -9 5 -16 10 -16 6 0 10 4 10 9 0 6 -4 13 -10 16 -5 3
-10 -1 -10 -9z"/>
<path d="M7368 11123 c-10 -3 -18 -11 -18 -18 0 -10 9 -12 35 -8 22 4 41 1 52
-8 14 -12 16 -12 11 1 -5 17 -56 38 -80 33z"/>
<path d="M7025 11070 c-3 -5 -1 -10 4 -10 6 0 11 5 11 10 0 6 -2 10 -4 10 -3
0 -8 -4 -11 -10z"/>
<path d="M7428 11051 c-14 -17 -14 -20 -2 -25 9 -3 17 2 21 12 4 9 11 20 17
24 7 5 5 8 -4 8 -9 0 -23 -9 -32 -19z"/>
<path d="M6852 11037 c-26 -28 -28 -46 -6 -43 16 2 53 43 54 59 0 15 -27 6
-48 -16z"/>
<path d="M7490 11032 c-14 -14 -20 -23 -14 -19 7 4 14 0 18 -8 3 -8 1 -17 -5
-20 -5 -4 -3 -13 6 -21 8 -9 15 -20 15 -25 0 -12 -46 -22 -70 -16 -13 3 -24
-1 -30 -14 -12 -21 -1 -26 18 -7 9 9 12 9 12 -1 0 -7 5 -9 11 -5 8 4 9 -3 4
-25 -5 -25 -3 -31 10 -31 21 0 48 -65 43 -102 -3 -15 -1 -28 3 -28 4 0 5 -10
2 -21 -4 -14 0 -25 11 -31 9 -5 16 -18 16 -29 0 -12 4 -17 11 -14 6 4 13 -2
16 -14 6 -22 33 -29 33 -8 1 6 10 1 21 -12 17 -21 23 -23 40 -13 15 10 19 10
19 0 0 -9 3 -9 12 0 20 20 28 14 28 -25 l1 -38 18 23 c23 26 48 29 53 5 3 -13
6 -10 9 8 7 32 -11 91 -28 97 -7 2 -13 -5 -14 -15 0 -10 -3 -13 -6 -5 -2 6 -9
10 -14 6 -10 -6 -10 10 1 46 l7 25 12 -25 c10 -22 11 -20 6 19 -9 70 -22 84
-31 33 -5 -32 -11 -42 -23 -39 -9 2 -14 10 -13 18 11 44 9 53 -16 76 -15 14
-26 32 -24 40 3 12 -1 12 -20 2 -19 -10 -21 -10 -12 2 5 8 11 29 13 48 2 19
11 43 22 54 10 12 18 32 18 46 -1 17 -3 20 -6 9 -2 -10 -9 -18 -16 -18 -6 0
-21 -10 -34 -22 -26 -24 -29 -15 -14 40 7 21 6 32 -1 32 -5 0 -8 6 -5 14 10
25 -7 28 -25 4 -15 -19 -18 -20 -18 -5 0 9 -5 17 -11 17 -5 0 -8 -4 -5 -8 3
-5 -1 -9 -8 -9 -8 0 -12 6 -9 13 9 24 -13 22 -37 -4z m100 -127 c0 -8 -10 -19
-22 -25 -21 -10 -21 -10 -5 3 9 8 17 19 17 26 0 6 2 11 5 11 3 0 5 -7 5 -15z"/>
<path d="M6920 11038 c0 -5 -4 -7 -9 -4 -14 9 -31 -40 -18 -53 8 -8 8 -14 -1
-23 -9 -9 -12 -9 -12 0 0 7 -9 12 -20 12 -24 0 -42 -37 -29 -61 4 -9 6 -33 2
-53 -6 -38 -19 -44 -55 -25 -16 9 -23 7 -35 -10 -24 -36 -34 -23 -11 15 l21
37 -21 -12 c-12 -6 -28 -24 -37 -39 l-15 -27 6 26 c4 19 1 26 -10 26 -10 0
-14 -6 -11 -17 3 -10 -5 -22 -24 -33 -16 -9 -31 -17 -33 -17 -2 0 -10 16 -18
35 -16 40 -32 45 -48 13 -6 -13 -11 -17 -11 -10 -1 20 -21 14 -21 -7 0 -21 22
-33 45 -25 15 6 16 4 19 -48 1 -15 5 -30 9 -34 4 -4 2 -13 -4 -20 -18 -22 1
-38 21 -17 13 14 15 21 6 32 -9 11 -8 13 4 9 8 -2 16 -17 18 -33 3 -21 6 -25
13 -14 7 12 9 12 9 -1 1 -10 5 -7 13 7 9 16 16 20 27 13 13 -8 12 -10 -3 -10
-10 0 -17 -5 -15 -12 8 -23 28 -19 38 8 l11 28 21 -31 c24 -33 67 -56 89 -48
17 6 27 -1 63 -45 16 -19 34 -35 40 -36 15 0 94 -43 82 -44 -11 0 25 -29 37
-30 4 0 7 11 7 25 0 15 -6 25 -14 25 -10 0 -12 7 -8 22 3 14 1 19 -6 14 -6 -3
-14 -1 -18 5 -4 8 -3 9 4 5 7 -4 12 -2 12 3 0 23 21 9 26 -17 3 -16 14 -33 24
-40 22 -13 30 1 36 63 4 39 45 95 69 95 6 0 22 12 36 26 13 15 43 35 65 45 71
32 84 71 59 172 -6 21 -4 27 9 27 9 0 16 4 16 10 0 5 -6 7 -14 4 -8 -3 -17 -1
-21 5 -3 6 -17 11 -30 11 -19 0 -23 4 -19 18 4 9 -3 2 -15 -16 -26 -41 -26
-42 2 -42 12 0 32 -7 44 -15 19 -13 20 -19 11 -52 -13 -47 -45 -85 -106 -127
-73 -50 -80 -54 -62 -31 14 17 13 18 -2 12 -13 -4 -16 -1 -13 14 7 37 17 43
31 18 l13 -24 1 27 c0 15 5 30 10 33 12 8 13 82 1 89 -5 3 -42 10 -82 16 -40
6 -74 12 -76 14 -7 7 9 56 18 56 5 0 6 -7 3 -15 -7 -18 -4 -18 33 -4 l28 11
-25 11 c-14 5 -29 9 -35 8 -5 0 2 9 16 21 14 13 24 29 23 36 -1 6 -2 17 -3 23
-2 20 -21 -3 -21 -26 0 -17 -4 -23 -14 -19 -8 3 -13 14 -11 25 5 25 -11 34
-23 12 -8 -14 -13 -15 -26 -4 -18 15 -86 22 -86 9z m68 -93 c-9 -9 -30 14 -23
25 6 9 10 8 17 -4 6 -10 8 -19 6 -21z m52 -1 c0 -2 -9 -4 -21 -4 -11 0 -18 4
-14 10 5 8 35 3 35 -6z m-60 -120 c0 -8 -5 -12 -10 -9 -6 4 -8 11 -5 16 9 14
15 11 15 -7z m-319 -66 c-10 -11 -11 -9 -5 7 7 18 6 19 -12 5 -18 -14 -18 -14
-5 3 10 12 17 15 25 7 7 -7 6 -14 -3 -22z m232 -32 c-3 -4 -9 -2 -14 5 -13 22
-11 31 5 17 8 -7 12 -17 9 -22z m104 -58 c-3 -8 -6 -5 -6 6 -1 11 2 17 5 13 3
-3 4 -12 1 -19z m20 -70 c-3 -7 -5 -2 -5 12 0 14 2 19 5 13 2 -7 2 -19 0 -25z"/>
<path d="M7125 11039 c-4 -6 -5 -12 -2 -15 2 -3 7 2 10 11 7 17 1 20 -8 4z"/>
<path d="M6564 11001 c3 -5 -1 -11 -8 -14 -8 -3 -17 -1 -19 6 -3 9 -11 8 -31
-3 -24 -12 -28 -12 -36 0 -8 13 -13 11 -32 -8 -18 -17 -20 -25 -10 -31 7 -4
10 -14 7 -22 -7 -18 32 -72 46 -64 5 4 9 -1 9 -10 0 -22 33 -11 65 21 34 34
60 31 75 -8 9 -24 14 -28 17 -16 2 9 -3 30 -11 47 -9 16 -16 37 -16 46 0 8 -3
14 -7 13 -7 -3 -15 7 -12 15 9 29 5 37 -17 37 -14 0 -23 -4 -20 -9z m-30 -27
c9 -3 16 -12 16 -19 0 -7 10 -19 23 -28 l22 -15 -30 -12 c-16 -6 -33 -17 -38
-23 -6 -8 -7 -6 -3 6 4 12 0 17 -17 18 -21 2 -21 2 2 6 17 3 20 7 12 13 -10 6
-10 13 -2 28 8 15 8 22 -2 25 -18 8 -2 8 17 1z"/>
<path d="M6643 10968 c-2 -25 15 -51 28 -42 15 9 10 51 -7 58 -9 3 -17 6 -18
6 -1 0 -2 -10 -3 -22z"/>
<path d="M6740 10930 c0 -5 5 -10 10 -10 6 0 10 5 10 10 0 6 -4 10 -10 10 -5
0 -10 -4 -10 -10z"/>
<path d="M6761 10864 c0 -11 3 -14 6 -6 3 7 2 16 -1 19 -3 4 -6 -2 -5 -13z"/>
<path d="M7455 10820 c3 -5 8 -10 11 -10 2 0 4 5 4 10 0 6 -5 10 -11 10 -5 0
-7 -4 -4 -10z"/>
<path d="M7477 10730 c-3 -11 -1 -20 4 -20 5 0 9 9 9 20 0 11 -2 20 -4 20 -2
0 -6 -9 -9 -20z"/>
<path d="M7435 10676 c-9 -13 -13 -31 -9 -42 4 -10 4 -16 -1 -12 -4 4 -10 22
-14 40 -6 28 -9 22 -21 -50 -7 -45 -17 -82 -21 -82 -3 0 -9 -14 -13 -30 -6
-30 -56 -95 -56 -73 0 7 5 15 10 18 6 3 10 11 10 17 0 6 -6 5 -16 -3 -8 -7
-14 -20 -11 -28 2 -9 -5 -25 -15 -35 -10 -11 -18 -14 -18 -8 0 6 5 14 10 17 6
3 10 11 10 17 0 6 -9 3 -20 -7 -27 -25 -38 -11 -14 18 10 13 6 9 -11 -8 -16
-16 -34 -30 -40 -30 -5 0 -9 -8 -7 -17 1 -9 -6 -19 -18 -23 -11 -3 -20 -11
-20 -16 0 -5 -6 -9 -12 -9 -17 0 -73 -70 -73 -90 0 -9 8 -14 20 -12 20 2 20 2
1 -13 -16 -12 -22 -12 -35 -2 -12 9 -13 9 -7 0 4 -8 2 -13 -4 -13 -6 0 -9 -4
-5 -9 8 -14 -65 -70 -86 -66 -10 2 -21 -1 -24 -6 -4 -5 -11 -6 -17 -3 -6 4 -8
2 -5 -3 8 -12 -20 -38 -51 -47 -12 -4 -26 -15 -32 -25 -5 -10 -23 -24 -40 -31
-20 -8 -27 -16 -20 -20 18 -11 71 4 115 32 l40 26 67 -36 c61 -32 70 -35 92
-22 32 16 207 183 183 175 -12 -5 -17 -2 -17 9 0 9 7 16 15 16 8 0 15 8 15 19
0 10 9 30 20 44 11 14 20 30 20 35 0 5 16 33 36 62 55 80 88 139 114 205 13
33 27 65 33 72 11 15 -1 75 -14 67 -6 -4 -6 -11 2 -20 15 -18 2 -18 -16 0 -8
7 -11 16 -8 20 4 3 3 6 0 6 -4 0 -13 -11 -22 -24z m-85 -255 c0 -12 -46 -48
-71 -56 -11 -4 -26 -1 -34 5 -8 6 -20 8 -27 4 -10 -5 -10 -4 -2 5 9 10 17 10
33 2 17 -10 25 -7 52 19 32 30 49 38 49 21z m-167 -108 c-4 -10 -13 -28 -21
-40 -7 -12 -11 -27 -7 -33 7 -12 -25 -70 -39 -70 -6 0 -5 5 2 12 21 21 13 32
-10 12 l-22 -19 21 28 c13 16 19 35 16 44 -4 11 -2 14 5 9 8 -5 12 0 12 12 0
11 7 22 15 26 8 3 15 12 15 21 0 8 4 15 10 15 5 0 6 -8 3 -17z m44 -57 c-2
-74 -2 -74 -32 -82 -21 -5 -25 -8 -12 -11 23 -6 12 -23 -15 -23 -14 0 -18 5
-14 16 4 9 2 13 -5 8 -7 -4 -10 -3 -7 2 2 5 11 24 18 42 8 17 18 32 23 32 4 0
6 4 2 9 -3 5 1 16 9 24 8 8 13 17 10 20 -5 4 14 35 23 37 0 0 0 -33 0 -74z
m-87 54 c0 -5 -2 -10 -4 -10 -3 0 -8 5 -11 10 -3 6 -1 10 4 10 6 0 11 -4 11
-10z m-20 -13 c0 -2 -12 -14 -27 -28 l-28 -24 24 28 c23 25 31 32 31 24z m-36
-156 c3 -5 -1 -12 -10 -15 -8 -3 -12 -10 -9 -16 3 -5 0 -10 -7 -10 -8 -1 -5
-7 7 -16 20 -15 20 -16 -8 -40 -34 -29 -63 -30 -97 -4 l-25 19 25 27 c14 14
43 35 65 45 46 21 52 22 59 10z"/>
<path d="M7137 10233 c-4 -3 -7 -11 -7 -17 0 -6 5 -5 12 2 6 6 9 14 7 17 -3 3
-9 2 -12 -2z"/>
<path d="M7157 10633 c-16 -19 -34 -73 -23 -73 8 0 49 81 43 86 -2 2 -11 -4
-20 -13z"/>
<path d="M7229 10509 c-11 -23 -16 -38 -10 -34 17 10 13 -11 -4 -25 -8 -7 -15
-17 -15 -23 0 -13 59 64 60 77 0 6 -7 1 -15 -10 -19 -25 -19 -11 0 26 9 17 13
30 10 30 -2 0 -14 -18 -26 -41z"/>
<path d="M7023 10309 c-18 -5 -33 -14 -33 -20 0 -6 7 -8 16 -5 9 3 27 9 40 12
13 3 24 10 24 15 0 11 -4 10 -47 -2z"/>
<path d="M6381 10232 c-58 -30 -112 -77 -133 -116 -22 -37 -23 -56 -3 -56 23
0 65 22 59 31 -3 5 23 9 58 10 35 0 57 3 51 6 -19 7 -16 36 7 61 20 21 26 58
12 78 -4 6 -22 2 -51 -14z"/>
<path d="M6644 10248 c-12 -5 -28 -22 -35 -37 -7 -14 -15 -28 -16 -31 -2 -3 6
-6 17 -6 11 0 20 6 20 12 0 13 28 27 40 19 4 -3 6 -14 3 -25 -3 -11 -2 -20 2
-20 17 0 31 33 27 66 -4 36 -18 42 -58 22z"/>
<path d="M6496 10102 c-3 -5 21 -17 52 -27 31 -9 78 -27 103 -40 65 -31 79
-36 79 -26 0 14 -90 57 -135 65 -21 4 -52 14 -67 22 -15 8 -29 10 -32 6z"/>
<path d="M3748 7233 c6 -2 18 -2 25 0 6 3 1 5 -13 5 -14 0 -19 -2 -12 -5z"/>
<path d="M4270 6410 c0 -5 5 -10 11 -10 5 0 7 5 4 10 -3 6 -8 10 -11 10 -2 0
-4 -4 -4 -10z"/>
<path d="M530 5740 c-6 -11 -17 -20 -25 -20 -17 0 -15 -42 3 -76 9 -16 8 -25
-2 -40 -8 -10 -12 -23 -10 -29 9 -25 11 -105 3 -105 -17 0 -9 -24 18 -52 14
-15 24 -31 20 -34 -9 -9 -36 21 -51 58 -8 18 -26 44 -40 57 -14 14 -26 30 -26
38 0 7 -7 13 -15 13 -8 0 -15 -8 -15 -17 0 -10 -4 -14 -8 -8 -12 17 -32 16
-32 -1 0 -11 -6 -15 -18 -12 -18 5 -42 -13 -42 -32 0 -5 -6 -10 -14 -10 -8 0
-17 -11 -20 -25 -7 -28 -24 -33 -32 -10 -7 17 -34 20 -34 4 0 -18 -30 11 -31
30 0 13 -2 13 -6 1 -4 -8 -12 -21 -20 -28 -11 -11 -13 -11 -13 2 0 9 -6 15
-13 14 -7 -2 -11 6 -9 21 3 32 -14 83 -37 110 -19 22 -37 29 -25 10 4 -6 10
-27 14 -46 12 -53 -12 -36 -32 23 -16 46 -17 -78 -18 -2388 0 -1710 3 -2438
11 -2438 5 0 7 5 4 10 -3 6 -2 10 3 10 5 0 12 8 16 18 8 22 47 86 68 111 9 11
14 21 12 24 -3 2 1 7 8 10 10 3 13 -15 13 -78 0 -74 -2 -82 -18 -79 -14 2 -45
-35 -52 -66 -6 -22 -19 -39 -26 -34 -5 3 -9 -5 -9 -18 0 -14 -7 -33 -15 -44
-12 -16 -14 -71 -15 -316 l0 -298 4205 0 4205 0 0 751 c0 498 -3 757 -10 770
-7 13 -7 19 0 19 5 0 10 12 10 26 0 17 -4 23 -12 18 -9 -6 -9 -3 0 9 8 9 11
25 7 37 -5 17 -9 19 -22 9 -8 -7 -12 -20 -10 -30 3 -11 0 -16 -7 -13 -6 2 -12
17 -11 32 0 20 -5 27 -20 28 -11 1 -33 8 -48 16 l-28 14 22 20 c22 19 22 19
17 -3 -5 -19 -2 -23 18 -23 13 0 26 1 27 3 2 1 11 -3 19 -10 11 -10 17 -8 31
7 9 11 17 28 17 36 0 18 -36 54 -54 54 -21 1 -86 36 -79 43 3 4 0 7 -8 8 -97
7 -102 6 -71 -17 15 -12 14 -13 -12 -14 -21 0 -27 4 -22 15 8 23 -49 48 -95
42 -39 -5 -49 4 -49 42 0 16 -48 43 -80 45 -28 2 -42 18 -36 42 7 28 -9 32
-23 5 -13 -24 -51 -35 -51 -14 0 8 4 12 9 8 5 -3 12 -1 16 5 3 5 1 10 -4 10
-6 0 -11 4 -11 10 0 5 7 7 15 4 8 -4 22 -3 32 0 14 6 14 9 -6 27 -12 11 -28
18 -36 15 -7 -2 -19 2 -26 10 -10 13 -10 17 2 25 8 5 22 9 32 9 10 0 17 8 17
20 0 17 -7 20 -39 20 -27 0 -44 -6 -53 -18 -10 -14 -24 -18 -58 -17 -62 3 -60
2 -57 28 2 18 -3 22 -28 23 -16 1 -35 -3 -42 -8 -7 -6 -22 -4 -40 5 -15 8 -33
12 -39 10 -6 -2 -11 3 -11 12 0 18 23 20 31 3 5 -10 7 -10 12 0 7 15 54 16 54
2 0 -7 7 -7 21 1 17 9 19 13 8 20 -12 8 -12 11 1 19 8 5 23 10 33 10 10 0 15
4 12 10 -3 6 1 7 10 4 9 -4 13 -9 11 -12 -11 -10 17 -32 41 -32 13 0 22 -4 18
-9 -3 -5 -1 -12 5 -16 5 -3 10 1 10 10 0 12 8 16 33 13 17 -2 34 -6 37 -9 3
-3 17 -9 33 -13 20 -5 27 -3 27 8 0 15 37 29 45 16 3 -4 -2 -13 -10 -20 -12
-10 -15 -10 -15 0 0 8 -3 11 -6 7 -4 -3 -2 -20 4 -36 7 -19 7 -31 1 -31 -5 0
-9 7 -9 15 0 8 -5 15 -11 15 -5 0 -7 -5 -4 -10 4 -6 2 -16 -3 -23 -11 -14 -13
-67 -2 -67 4 0 11 -10 17 -22 8 -18 20 -24 53 -26 31 -2 41 1 37 10 -2 7 -11
12 -21 10 -9 -2 -16 4 -16 11 0 11 11 14 37 13 21 0 38 4 40 12 3 6 -2 12 -11
12 -8 0 -18 4 -21 10 -7 12 19 53 28 43 9 -8 9 5 1 35 -8 27 -24 29 -24 2 0
-17 -4 -19 -27 -14 -37 9 -44 14 -38 24 3 5 12 7 20 3 9 -3 15 1 15 8 0 11 2
11 9 0 7 -10 9 -4 8 19 -1 19 3 35 11 37 7 3 12 -4 12 -17 0 -18 3 -19 21 -10
19 11 20 9 13 -26 -5 -29 -4 -36 7 -32 8 3 13 11 11 17 -1 6 5 11 13 11 8 0
15 5 15 11 0 6 7 18 16 27 11 10 13 17 5 20 -6 2 -11 11 -11 19 0 12 3 13 14
4 10 -8 16 -9 21 -1 3 5 1 10 -4 10 -6 0 -11 9 -11 20 0 24 26 26 54 5 15 -11
16 -18 8 -28 -10 -11 -2 -13 43 -9 54 4 66 -3 43 -26 -9 -9 -9 -15 0 -24 9 -9
12 -9 12 0 0 6 9 16 21 22 19 11 20 10 9 -10 -6 -12 -9 -24 -6 -28 3 -3 6 -1
6 5 0 17 50 45 68 38 13 -5 10 -9 -15 -20 -23 -10 -31 -19 -27 -29 8 -20 24
-21 24 -1 0 8 4 15 8 15 5 0 8 -8 8 -18 -1 -9 4 -18 9 -20 6 -1 11 23 12 55 1
43 -3 60 -15 69 -16 12 -16 13 -1 19 13 5 17 23 18 91 1 46 -2 84 -7 84 -5 0
-8 8 -8 18 1 9 -3 17 -9 17 -5 0 -10 -8 -9 -17 0 -13 -3 -15 -12 -7 -8 6 -14
6 -18 0 -4 -6 -18 -6 -38 0 -18 5 -34 5 -37 1 -4 -4 -30 -8 -58 -9 -40 -1 -53
2 -53 13 0 9 11 14 31 14 26 0 29 3 24 20 -4 12 -2 20 5 20 8 0 10 9 6 24 -4
15 -1 26 7 29 9 4 9 6 -1 6 -16 1 -62 -47 -62 -65 0 -8 -4 -14 -10 -14 -5 0
-10 -4 -10 -10 0 -5 -9 -19 -20 -30 -17 -17 -28 -19 -87 -13 -38 3 -75 5 -83
5 -8 -1 -31 -3 -50 -5 -19 -2 -49 -4 -66 -5 -23 -1 -34 -9 -43 -28 -12 -26
-12 -26 -33 -8 -12 11 -18 13 -14 6 5 -7 1 -12 -10 -12 -34 0 -96 -24 -102
-39 -10 -27 -35 -40 -77 -41 -29 0 -36 -3 -25 -10 8 -5 11 -13 6 -17 -8 -8
-20 -10 -84 -17 -42 -4 -54 -16 -16 -16 19 0 34 -7 42 -21 8 -12 19 -18 28
-15 22 9 17 -21 -8 -38 -19 -14 -24 -14 -38 -1 -9 8 -25 15 -36 15 -23 0 -46
33 -38 54 10 27 -13 25 -49 -5 -20 -17 -37 -26 -37 -20 0 6 5 11 10 11 6 0 10
4 10 9 0 4 -13 8 -30 7 -26 -1 -28 -4 -23 -26 5 -21 4 -23 -8 -14 -8 7 -34 12
-59 12 -33 1 -40 -2 -30 -9 11 -8 8 -9 -12 -5 -15 3 -29 2 -33 -4 -3 -5 -12
-7 -20 -4 -17 7 -3 25 29 37 10 4 17 10 14 13 -3 2 -26 -4 -52 -14 -26 -10
-44 -21 -40 -25 4 -4 -8 -8 -27 -8 -20 -1 -26 -3 -15 -6 15 -4 16 -7 5 -14
-12 -8 -12 -11 1 -19 13 -9 13 -10 0 -10 -13 0 -13 -1 0 -10 12 -8 9 -10 -13
-10 -16 0 -26 4 -22 10 10 17 -12 11 -26 -7 -8 -9 -9 -14 -4 -11 6 4 17 2 25
-3 12 -7 11 -10 -8 -15 -13 -4 -21 -12 -18 -19 3 -8 -2 -16 -10 -19 -9 -3 -14
1 -14 12 -1 16 -1 16 -13 0 -8 -9 -22 -15 -33 -14 -30 5 -63 -14 -56 -32 4
-12 1 -14 -12 -9 -10 4 -27 2 -38 -4 -12 -6 -43 -11 -70 -10 -36 0 -48 -3 -48
-14 0 -11 -12 -15 -46 -15 -25 0 -43 -4 -40 -9 3 -5 -12 -8 -34 -8 -22 1 -40
6 -40 11 0 4 -7 6 -15 2 -9 -3 -23 3 -32 14 -18 21 -43 27 -43 10 0 -5 -7 -10
-15 -10 -8 0 -15 -4 -15 -10 0 -5 14 -10 30 -10 34 0 39 -14 11 -30 -26 -13
-31 -13 -31 4 0 21 -20 30 -33 17 -8 -8 -6 -11 9 -11 18 -1 18 -1 2 -14 -10
-7 -18 -18 -18 -25 0 -6 -9 -11 -19 -11 -11 0 -26 -6 -33 -14 -13 -12 -168
-49 -210 -50 -10 0 -18 -7 -18 -16 0 -12 -2 -12 -9 -1 -5 7 -10 9 -12 3 -2 -5
-31 -27 -64 -47 -33 -21 -54 -40 -47 -43 8 -2 24 6 36 17 21 20 24 21 30 5 10
-27 -24 -52 -63 -46 -18 2 -43 -1 -56 -8 -14 -7 -31 -9 -42 -5 -10 5 -22 7
-27 6 -4 -1 -14 3 -22 10 -8 6 -23 9 -34 6 -20 -5 -80 11 -90 25 -3 4 -17 1
-30 -7 -14 -8 -35 -19 -47 -24 -13 -6 -23 -15 -23 -20 0 -21 -56 -66 -85 -68
-16 -1 -31 -7 -33 -13 -3 -7 -10 -6 -23 1 -11 5 -29 7 -39 4 -23 -7 -29 19 -7
29 6 3 -6 3 -28 1 -32 -4 -36 -3 -20 5 15 8 7 9 -32 5 -36 -4 -53 -2 -53 5 0
7 -6 10 -12 7 -7 -2 -12 -11 -10 -21 2 -9 -1 -16 -6 -16 -15 0 -24 32 -12 44
5 5 10 23 10 39 0 22 -4 28 -15 23 -8 -3 -22 -9 -30 -12 -18 -7 -20 9 -4 34
12 19 53 19 65 1 7 -12 24 -12 24 0 0 5 -16 15 -36 21 -19 7 -38 18 -41 26 -3
8 -11 14 -19 14 -8 0 -22 8 -32 18 -10 10 -26 21 -35 25 -30 11 -19 29 13 22
20 -4 30 -3 30 5 0 7 12 9 31 6 20 -3 32 0 35 9 4 9 32 16 81 21 54 5 81 12
95 26 21 21 40 16 31 -9 -5 -12 -2 -15 10 -10 9 3 17 2 17 -4 0 -6 -8 -9 -17
-8 -36 3 -64 -1 -59 -10 3 -4 17 -6 31 -4 19 4 27 0 34 -18 7 -18 10 -19 10
-6 1 20 0 20 39 6 17 -6 30 -16 29 -22 -4 -19 72 -15 98 5 27 21 36 23 29 5
-6 -16 21 -41 35 -33 5 4 12 2 16 -4 3 -5 1 -10 -5 -10 -6 0 -8 -5 -4 -12 5
-8 2 -9 -9 -5 -9 3 -19 2 -22 -3 -4 -6 5 -10 19 -10 14 0 28 5 31 11 4 6 13 8
21 5 8 -3 14 -1 14 4 0 6 -7 10 -15 10 -24 0 -17 18 8 22 21 3 20 5 -9 20 -17
10 -34 15 -36 12 -9 -9 -30 25 -23 37 6 8 10 8 15 -2 6 -9 12 -10 22 -1 8 7
19 7 28 2 9 -5 17 -5 21 1 8 13 39 0 39 -16 0 -8 9 -13 20 -12 22 1 25 8 12
23 -5 5 -6 20 -1 34 l7 25 1 -27 c1 -15 5 -29 10 -32 5 -3 8 18 6 47 -3 81 2
95 33 89 15 -3 33 -11 40 -19 11 -11 10 -13 -8 -13 -12 0 -18 5 -15 10 3 6 -2
10 -12 10 -15 0 -18 -9 -20 -55 -2 -49 0 -57 20 -65 12 -5 17 -9 11 -9 -6 -1
-11 -8 -11 -15 0 -11 5 -13 19 -5 10 5 18 14 18 19 0 5 9 12 20 15 11 3 20 13
20 21 0 8 6 14 14 14 8 0 37 18 65 40 60 48 78 55 153 64 64 8 81 22 76 62 -3
25 -8 28 -40 30 -29 2 -38 -1 -43 -17 -7 -20 -14 -23 -53 -19 -20 1 -23 -2
-20 -27 3 -32 -9 -36 -57 -17 -31 12 -94 12 -113 0 -6 -3 -13 -2 -17 4 -4 7
-13 5 -26 -4 -11 -7 -29 -12 -39 -9 -12 3 -20 -1 -23 -14 -4 -16 -5 -16 -6 0
-1 20 -51 25 -51 5 0 -10 -2 -10 -9 0 -4 7 -12 12 -17 11 -16 -5 -74 12 -74
22 0 5 5 8 12 6 16 -3 27 59 17 98 -8 27 -15 34 -42 38 -38 6 -80 -19 -85 -52
-4 -24 -12 -27 -30 -9 -8 8 -14 4 -24 -17 -10 -23 -10 -29 5 -40 21 -15 22
-31 2 -39 -9 -3 -18 1 -22 10 -3 8 -11 13 -17 11 -6 -2 -36 -1 -66 3 -30 4
-59 4 -64 -1 -6 -5 -20 -9 -32 -9 -29 0 -54 -10 -54 -21 0 -6 7 -6 18 0 24 13
62 3 62 -16 0 -8 -4 -12 -9 -9 -5 3 -14 -1 -21 -9 -10 -12 -9 -15 8 -15 12 0
23 4 27 10 3 5 12 7 20 4 12 -5 10 -10 -8 -26 -12 -10 -15 -17 -7 -14 8 3 23
9 32 12 10 4 16 15 15 26 -1 12 4 23 12 26 10 3 12 0 8 -12 -4 -9 -3 -14 2
-11 5 3 12 1 16 -5 3 -5 -1 -10 -9 -10 -9 0 -16 -5 -16 -11 0 -5 4 -7 10 -4 6
3 10 2 10 -3 0 -6 -7 -12 -15 -16 -8 -3 -15 -1 -15 4 0 6 -7 10 -16 10 -10 0
-14 -6 -11 -14 3 -8 -1 -20 -9 -26 -11 -10 -14 -9 -14 3 0 9 -6 14 -13 11 -7
-2 -29 2 -48 10 -19 8 -28 15 -20 16 10 0 11 3 2 14 -10 11 -8 15 6 18 10 2
14 6 8 10 -18 10 -55 -10 -55 -31 0 -25 -30 -43 -52 -30 -10 6 -19 4 -26 -4
-6 -7 -24 -12 -39 -11 -30 1 -59 -28 -47 -48 5 -8 0 -9 -17 -5 -13 4 -30 7
-38 7 -10 0 -11 3 -2 14 15 18 -15 26 -74 20 -24 -3 -54 0 -66 6 -30 17 -90 4
-96 -21 -6 -23 -25 -24 -56 -5 -31 20 -105 6 -132 -26 -12 -13 -29 -27 -38
-31 -9 -3 -17 -13 -17 -20 0 -19 -37 -60 -48 -53 -10 6 -241 -71 -257 -85 -6
-7 -6 -12 1 -17 6 -4 10 -15 8 -24 -1 -10 1 -18 4 -19 4 0 18 -2 32 -5 14 -2
30 0 36 4 16 10 28 52 15 52 -6 0 -11 5 -11 11 0 8 5 7 16 -2 22 -18 91 -21
98 -3 3 9 -2 14 -14 14 -11 0 -20 4 -20 9 0 5 9 7 20 4 16 -4 19 -2 14 11 -3
9 -2 16 4 16 6 0 13 -6 15 -12 3 -8 6 -7 6 4 1 9 5 20 11 23 5 3 7 0 4 -8 -3
-9 7 -22 25 -33 29 -19 29 -20 11 -32 -12 -7 -21 -8 -25 -2 -3 6 -14 10 -23
10 -15 -1 -16 -2 -1 -13 9 -7 18 -24 21 -39 4 -23 3 -26 -12 -18 -21 11 -34 1
-19 -16 13 -15 -15 -64 -37 -64 -9 0 -14 -11 -14 -30 0 -27 -3 -30 -31 -30
-18 0 -37 -7 -43 -15 -10 -14 -14 -13 -34 5 -12 11 -28 20 -35 19 -36 -5 -59
2 -54 15 4 10 0 14 -14 11 -13 -3 -19 2 -19 14 0 13 10 21 35 25 19 4 35 11
35 17 0 6 -4 8 -9 4 -5 -3 -12 -1 -16 5 -3 5 -13 10 -22 10 -13 0 -13 -3 -3
-15 10 -12 10 -15 -3 -15 -8 0 -17 3 -20 8 -2 4 -2 1 -1 -5 2 -7 -1 -13 -7
-13 -6 0 -9 -7 -6 -14 4 -10 1 -13 -8 -10 -8 3 -11 12 -9 19 10 25 -53 29 -93
5 -35 -20 -37 -21 -89 -4 -71 22 -89 13 -31 -15 38 -18 46 -27 42 -42 -5 -16
-1 -19 27 -19 18 0 40 -5 48 -11 11 -7 1 -8 -33 -3 -44 6 -49 5 -45 -12 2 -11
10 -19 18 -19 8 0 28 -9 44 -20 l29 -19 -24 -7 c-23 -6 -23 -7 10 -21 20 -9
29 -18 22 -22 -6 -4 -26 2 -44 13 -19 11 -48 22 -66 23 -18 1 -35 7 -38 12 -4
5 11 6 35 2 23 -3 42 -4 42 -2 0 3 -26 16 -57 31 -32 14 -66 30 -75 35 -12 7
-18 7 -18 0 0 -7 -6 -7 -17 -2 -10 5 -30 12 -45 16 -46 11 -34 -20 15 -37 l42
-15 -35 -3 c-19 -1 -44 -2 -55 -3 -11 -1 -28 5 -38 13 -16 13 -19 13 -27 1 -7
-10 -10 -11 -10 -2 0 6 -7 12 -15 12 -24 0 -17 20 8 21 12 1 2 6 -22 11 -24 5
-51 16 -59 24 -8 8 -22 12 -33 9 -14 -5 -17 -2 -13 8 3 9 -7 20 -28 31 l-33
17 43 -6 c29 -3 41 -2 37 5 -3 6 4 14 17 19 21 9 19 10 -13 10 -20 1 -49 -6
-66 -14 -16 -8 -59 -16 -96 -17 -66 -2 -88 -14 -46 -25 31 -9 1 -23 -33 -16
-16 3 -28 1 -28 -4 0 -6 13 -13 28 -16 25 -5 82 -48 82 -62 0 -3 -12 -10 -27
-16 l-27 -10 34 -27 c19 -15 43 -29 54 -32 17 -5 21 -14 22 -53 1 -40 -2 -47
-17 -45 -15 3 -59 -35 -59 -51 0 -9 -79 -30 -105 -29 -11 1 -25 8 -31 16 -8
11 -22 14 -52 10 -23 -3 -42 -2 -44 3 -2 5 -29 4 -63 -3 -90 -18 -161 -13
-212 13 -33 17 -49 20 -61 13 -27 -16 -110 -6 -137 16 -15 13 -48 2 -38 -13 4
-7 0 -8 -12 -4 -10 4 -32 3 -49 -2 -86 -26 -104 -28 -134 -15 -24 10 -29 17
-25 33 5 19 1 21 -47 21 -38 0 -57 -5 -66 -17 -13 -17 -14 -17 -7 2 6 18 5 18
-10 6 -22 -18 -7 -46 41 -74 l37 -22 -34 -3 c-23 -2 -37 2 -43 12 -11 20 -25
20 -60 2 -19 -10 -29 -11 -37 -3 -8 8 -11 8 -11 -1 0 -7 -4 -12 -10 -12 -5 0
-2 13 8 29 9 16 20 28 23 25 4 -2 12 10 18 27 9 27 14 30 36 25 18 -5 27 -2
31 9 3 8 10 12 15 9 5 -3 6 1 4 8 -3 8 13 42 35 76 22 35 40 67 40 72 0 6 6
10 13 10 16 1 67 46 67 60 0 5 3 9 8 8 4 -1 17 3 29 10 25 14 89 11 120 -6 28
-16 30 -15 36 8 3 13 14 20 31 20 23 0 25 3 19 30 -4 21 1 45 15 73 11 23 23
49 26 57 3 11 6 9 11 -7 9 -28 21 -29 28 -3 4 15 14 20 42 20 37 0 37 0 31 35
-4 22 -3 35 4 35 5 0 10 7 10 15 0 8 4 15 10 15 5 0 7 7 4 15 -4 8 -2 15 4 15
6 0 13 -6 15 -12 3 -8 6 -6 6 4 1 9 -8 23 -20 31 -20 15 -20 15 -2 66 10 29
30 66 45 82 16 17 28 36 28 44 0 8 5 17 10 20 6 4 8 11 4 16 -3 5 -1 15 4 22
30 39 34 117 6 117 -8 0 -14 9 -14 20 0 11 -4 20 -10 20 -6 0 -7 18 -4 43 5
32 2 47 -10 59 -9 9 -16 21 -16 26 0 5 -7 15 -15 22 -10 9 -15 9 -15 1 0 -6 5
-11 10 -11 6 0 10 -4 10 -9 0 -5 -11 -8 -25 -7 -29 1 -30 4 -11 32 14 19 30
81 30 114 0 8 -7 14 -15 14 -13 -1 -15 7 -11 41 4 37 1 44 -16 49 -12 4 -19
13 -16 21 3 7 0 16 -7 21 -8 4 -10 3 -5 -4 4 -7 3 -19 -2 -28 -8 -15 -10 -14
-17 2 -27 68 -2 123 198 441 76 120 200 322 275 448 76 127 156 259 178 295
107 172 137 230 119 230 -7 0 -69 -65 -85 -90 -30 -46 -68 -81 -73 -68 -4 10
-6 10 -6 1 -1 -15 -47 -18 -55 -4 -10 16 -80 6 -116 -17 -19 -12 -42 -22 -50
-22 -8 0 -41 -14 -74 -30 -32 -16 -63 -27 -68 -24 -5 3 -17 -1 -26 -9 -9 -8
-38 -18 -64 -22 -26 -4 -45 -11 -42 -16 3 -5 -2 -6 -10 -3 -9 3 -14 9 -12 13
6 9 -37 6 -54 -4 -9 -6 -11 -4 -5 5 5 9 4 11 -3 6 -7 -4 -12 -14 -12 -22 0 -8
4 -13 9 -10 5 4 8 -2 6 -11 -2 -10 -4 -22 -4 -26 -1 -5 -7 -5 -13 -1 -9 6 -9
3 0 -9 8 -9 11 -21 7 -27 -3 -5 1 -13 9 -16 20 -8 21 -57 3 -76 -8 -7 -11 -20
-9 -28 5 -13 3 -13 -11 -1 -15 12 -17 11 -17 -8 0 -11 4 -21 8 -21 5 0 14 -11
20 -24 9 -20 8 -23 -7 -19 -15 4 -31 -16 -41 -52 -1 -5 -11 -16 -21 -23 -11
-7 -19 -20 -19 -28 0 -8 -7 -14 -15 -14 -25 0 -55 -38 -55 -71 0 -17 -6 -37
-12 -44 -31 -34 -55 -72 -69 -107 -6 -14 -17 -29 -25 -32 -8 -3 -14 -11 -14
-18 0 -12 -36 -42 -52 -43 -3 0 -10 -4 -15 -8 -4 -5 -3 -8 2 -7 22 5 27 -1 15
-15 -7 -8 -10 -24 -7 -35 7 -27 -8 -34 -29 -13 -16 16 -16 16 -9 -7 7 -21 6
-23 -7 -13 -21 18 -27 7 -21 -33 4 -22 2 -34 -6 -34 -6 0 -11 5 -11 10 0 6 -9
10 -20 10 -24 0 -26 -18 -3 -35 18 -14 12 -30 -20 -46 -18 -9 -20 -9 -10 2 10
10 9 17 -8 35 -19 21 -19 51 1 39 4 -3 6 4 3 15 -9 34 68 177 89 164 6 -4 8
-3 5 3 -4 6 5 15 19 22 34 15 36 14 29 -9 -8 -26 1 -26 15 1 8 15 8 24 1 33
-6 8 -9 22 -6 32 4 12 2 11 -6 -3 -7 -13 -19 -23 -28 -23 -14 0 -14 -2 -1 -11
11 -8 8 -9 -13 -4 -25 5 -35 -1 -73 -38 -24 -25 -44 -51 -44 -58 0 -8 9 0 19
17 19 32 67 74 83 74 5 0 -5 -15 -23 -32 -18 -18 -45 -60 -60 -93 -15 -33 -38
-85 -52 -115 -31 -70 -85 -143 -98 -134 -7 4 -1 16 14 33 26 27 80 128 91 171
4 14 -11 -11 -33 -55 -22 -44 -40 -74 -40 -67 -1 7 -6 10 -12 6 -8 -5 -8 -9 1
-14 8 -5 -6 -25 -42 -60 -55 -54 -61 -66 -45 -87 5 -7 6 -14 1 -14 -5 -1 -15
-2 -21 -3 -7 0 -12 -5 -10 -11 1 -5 6 -9 10 -7 5 1 6 -2 2 -8 -3 -6 -11 -7
-17 -4 -8 5 -9 1 -5 -10 4 -9 3 -15 -1 -12 -11 7 -25 -4 -51 -42 -12 -18 -26
-30 -30 -28 -11 7 -53 -83 -45 -96 4 -7 2 -8 -4 -4 -7 4 -21 -12 -36 -42 -24
-47 -99 -132 -117 -132 -28 0 11 69 103 183 39 49 54 76 52 94 -1 13 0 22 3
19 4 -3 13 0 22 6 12 10 12 8 -1 -8 -24 -27 -23 -42 0 -21 10 10 21 15 24 11
5 -4 52 63 53 76 0 3 9 18 20 35 11 16 25 43 31 60 16 42 78 179 84 185 11 11
40 73 37 77 -3 2 -12 -8 -21 -22 -9 -14 -22 -23 -28 -19 -6 4 -9 1 -6 -7 3 -8
-3 -30 -12 -49 -10 -19 -18 -38 -19 -43 -3 -30 -15 -56 -22 -51 -5 3 -6 -1 -4
-8 3 -8 -1 -22 -9 -33 -13 -18 -14 -17 -11 8 2 16 9 35 16 44 17 20 39 84 33
95 -3 4 3 19 12 33 9 14 15 28 12 30 -3 3 -27 -29 -54 -72 -27 -42 -59 -90
-72 -105 -32 -38 -16 -35 26 5 l34 32 -25 -50 c-24 -49 -105 -135 -127 -135
-5 0 -10 8 -11 18 0 13 -2 12 -9 -6 -11 -25 -12 -27 -75 -99 -25 -28 -56 -65
-68 -81 -20 -28 -71 -95 -100 -133 -23 -31 -47 -81 -47 -100 0 -11 -4 -18 -9
-15 -8 5 -71 -87 -71 -104 0 -5 -5 -12 -11 -16 -9 -5 -10 7 -5 46 4 30 10 58
13 64 4 5 7 21 8 35 0 13 6 26 13 29 7 2 12 13 12 25 0 12 7 30 15 40 7 11 11
26 8 35 -4 10 -2 13 5 8 8 -4 10 -2 6 7 -3 8 1 21 9 29 12 12 31 108 21 108
-1 0 -26 -20 -55 -45 -28 -24 -56 -43 -61 -42 -6 1 -13 -5 -17 -13 -93 -185
-118 -229 -126 -226 -5 2 -10 -9 -11 -24 -1 -16 -17 -60 -36 -99 -20 -39 -32
-68 -27 -65 5 3 9 -13 9 -36 0 -70 35 -116 85 -111 90 8 251 89 324 164 57 58
109 142 168 267 70 152 84 175 143 248 136 171 170 207 197 207 15 1 28 6 31
13 2 7 -3 12 -12 12 -9 0 -16 5 -16 10 0 12 10 13 30 0 9 -6 17 -5 22 3 6 9 8
9 8 0 0 -7 5 -13 11 -13 5 0 7 5 4 10 -9 15 1 12 14 -4 10 -12 8 -14 -13 -12
-16 2 -33 -5 -48 -21 -19 -21 -20 -23 -4 -17 13 5 17 4 13 -3 -9 -15 2 -43 17
-43 16 0 14 -36 -2 -52 -7 -7 -12 -22 -12 -34 0 -12 -7 -25 -16 -28 -8 -3 -12
-11 -8 -17 4 -8 3 -9 -4 -5 -11 7 -17 -7 -12 -29 1 -5 -2 -6 -7 -2 -4 5 -8 14
-8 20 0 5 -6 12 -14 15 -10 3 -12 0 -8 -11 7 -19 -9 -33 -16 -15 -6 15 -57
-35 -57 -55 0 -8 3 -8 8 -2 13 19 27 14 27 -10 0 -13 -2 -23 -5 -23 -20 1 -30
-4 -30 -17 0 -8 -4 -15 -9 -15 -5 0 -17 -3 -26 -6 -9 -4 -15 -3 -14 2 4 23 -2
45 -11 39 -6 -4 -8 -11 -5 -16 4 -5 1 -9 -5 -9 -6 0 -8 -4 -5 -10 3 -5 -3 -10
-15 -10 -13 0 -19 4 -14 11 4 7 1 10 -6 7 -18 -6 -26 -29 -8 -26 7 2 14 -6 14
-17 1 -11 2 -24 3 -29 1 -5 9 -2 18 5 15 12 16 12 10 -3 -3 -10 -1 -20 5 -24
6 -4 8 -3 4 4 -3 6 -1 14 5 17 7 5 9 -1 7 -16 -2 -13 -9 -23 -16 -22 -6 2 -12
-1 -12 -7 0 -5 -9 -18 -21 -28 -18 -18 -19 -21 -4 -35 9 -9 11 -18 6 -22 -6
-3 -8 -12 -4 -21 3 -8 2 -14 -3 -13 -23 4 -35 -3 -49 -31 -14 -26 -13 -30 2
-38 14 -9 14 -11 -5 -21 -17 -9 -22 -9 -23 1 0 7 -5 -2 -10 -20 -6 -19 -14
-30 -20 -26 -7 4 -7 -1 0 -15 7 -11 14 -21 17 -21 3 0 3 4 -1 9 -3 5 -2 12 3
15 4 2 9 -4 9 -15 1 -11 -4 -19 -10 -18 -23 3 -40 -1 -34 -7 3 -4 1 -16 -5
-28 -9 -17 -8 -19 3 -9 7 7 17 13 22 13 5 0 -2 -9 -16 -20 -14 -11 -31 -20
-39 -20 -10 0 -9 -3 2 -10 13 -8 13 -11 1 -22 -10 -9 -15 -10 -18 -1 -2 7 -14
2 -31 -14 -14 -13 -34 -22 -44 -20 -9 3 -20 0 -23 -7 -3 -8 -7 -7 -11 2 -10
22 -48 54 -52 43 -2 -5 -10 -7 -18 -4 -7 3 -12 9 -9 13 12 19 -14 19 -37 0
-14 -11 -28 -16 -32 -12 -4 3 -5 0 -2 -8 4 -8 -4 -26 -16 -40 -13 -14 -18 -19
-13 -10 9 13 8 13 -7 2 -16 -13 -22 -56 -6 -46 4 3 8 -2 8 -10 0 -10 6 -13 15
-10 8 4 15 1 15 -5 0 -6 -7 -11 -15 -11 -8 0 -15 -6 -16 -12 0 -7 -4 -4 -9 7
-9 20 -9 20 -9 0 -1 -12 5 -27 12 -35 10 -12 9 -12 -5 -1 -10 7 -18 22 -18 33
0 12 -4 17 -12 12 -7 -5 -9 -2 -6 8 4 8 0 15 -8 15 -21 0 -25 -25 -6 -37 15
-10 14 -11 -6 -7 -14 3 -20 1 -15 -6 4 -6 -2 -8 -15 -5 -12 4 -25 2 -28 -3 -3
-5 -13 -5 -24 1 -13 7 -21 7 -26 -2 -4 -6 -3 -8 4 -4 6 3 21 -4 33 -16 16 -17
20 -18 16 -6 -5 14 0 16 29 14 20 -3 34 1 35 8 0 6 4 1 10 -12 6 -17 5 -31 -7
-50 -13 -24 -15 -24 -11 -4 5 23 0 27 -21 14 -15 -10 -6 -41 17 -59 22 -17 10
-16 -30 2 -19 8 -28 14 -21 15 6 0 12 4 12 9 0 5 -8 8 -17 7 -10 -2 -24 3 -31
11 -16 15 -32 17 -32 3 0 -21 -18 -9 -24 16 -4 15 -9 24 -12 22 -2 -3 0 -17 5
-32 7 -16 7 -26 1 -26 -5 0 -19 -10 -31 -22 -12 -13 -19 -18 -16 -13 3 6 -4
11 -15 11 -17 0 -15 -4 13 -29 78 -67 169 -162 159 -165 -6 -2 -24 11 -42 30
-30 32 -31 32 -40 12 -10 -21 -3 -35 39 -79 18 -19 5 -47 -17 -40 -12 4 -25
-3 -39 -22 -11 -15 -26 -35 -33 -43 -7 -8 -12 -20 -10 -27 2 -7 -2 -13 -9 -13
-7 0 -9 -10 -6 -28 5 -22 -1 -37 -24 -65 -30 -37 -67 -51 -56 -23 4 10 1 13
-9 9 -24 -9 -16 17 14 45 16 15 31 37 34 50 6 20 3 22 -15 16 -25 -7 -57 -33
-54 -43 1 -3 -3 -7 -8 -9 -20 -7 -43 -34 -49 -58 -4 -13 -10 -24 -15 -24 -5 0
-23 -30 -41 -67 -26 -56 -48 -94 -87 -152 -1 -2 -9 2 -18 9 -8 7 -23 9 -32 5
-10 -3 -18 -5 -19 -3 0 2 -8 -3 -17 -10 -26 -22 -30 4 -7 45 20 35 21 32 5 -9
-10 -24 27 -25 46 -1 8 10 9 14 2 10 -6 -4 -14 -3 -18 3 -3 5 -2 10 4 10 6 0
8 7 5 15 -4 10 0 15 12 15 17 1 17 2 3 13 -9 7 -14 18 -12 24 3 9 -8 12 -36
10 -25 -1 -41 -7 -41 -14 0 -7 5 -13 10 -13 6 0 10 -7 10 -15 0 -18 -27 -20
-32 -3 -2 6 -10 8 -16 4 -17 -10 -15 -26 3 -20 9 4 15 0 15 -10 0 -9 6 -16 13
-17 6 0 -1 -5 -18 -10 -20 -6 -33 -5 -40 3 -7 8 -6 9 3 4 6 -4 12 -2 12 4 0
17 -25 6 -25 -11 -1 -8 4 -17 10 -21 14 -10 -6 -40 -28 -44 -12 -2 -17 6 -18
27 -2 37 -4 43 -36 121 -8 20 -12 41 -8 47 3 6 2 10 -3 9 -17 -5 -93 89 -86
107 4 9 12 14 18 12 16 -7 50 24 54 48 2 17 -2 15 -24 -10 -15 -16 -25 -25
-23 -20 3 6 11 24 18 42 7 17 19 34 26 37 9 3 12 0 8 -10 -3 -7 0 -14 6 -14 6
0 11 5 11 12 0 9 3 9 12 0 17 -17 33 -15 18 3 -7 9 -10 19 -6 22 12 12 27 -21
21 -45 -5 -18 -2 -23 11 -20 9 2 22 12 28 23 6 11 17 29 24 40 15 21 15 20 -5
-45 -3 -8 6 1 18 20 13 19 27 37 31 38 5 2 8 13 8 25 -1 20 -2 21 -14 5 -18
-24 -29 -23 -21 2 5 15 2 20 -12 20 -14 0 -15 -2 -4 -9 10 -7 8 -12 -9 -24
-12 -8 -19 -20 -16 -25 3 -6 2 -21 -3 -34 -7 -17 -10 -18 -10 -5 -1 9 -5 17
-11 17 -5 0 -10 6 -10 14 0 8 -5 16 -11 18 -9 3 -9 9 -1 24 8 14 8 24 1 31 -7
7 -5 12 5 16 21 8 29 -8 16 -34 -13 -23 -8 -35 10 -24 6 4 9 13 6 20 -3 8 0
16 7 19 9 3 9 7 1 13 -6 4 -14 19 -18 33 -6 19 -5 21 3 10 10 -13 11 -13 12 0
1 8 1 21 0 29 -2 7 2 10 8 6 6 -3 11 1 11 10 0 12 6 15 20 10 17 -5 20 -2 20
22 0 19 3 24 9 14 11 -18 23 2 14 25 -5 14 -3 16 12 11 15 -6 16 -5 5 8 -8 10
-9 15 -2 15 6 0 9 8 6 17 -4 12 1 9 15 -7 l20 -25 -4 31 c-3 26 3 38 36 70 21
21 39 33 39 26 0 -7 -7 -15 -15 -18 -8 -4 -12 -10 -9 -15 3 -5 -1 -9 -8 -9
-15 0 -40 -35 -31 -44 3 -3 24 9 47 26 38 29 39 30 17 5 -17 -18 -26 -41 -27
-69 -1 -23 -9 -47 -17 -52 -18 -14 -35 -62 -17 -51 9 5 10 1 5 -16 l-7 -24 25
23 c25 23 28 36 14 58 -4 7 8 23 29 39 19 15 33 29 30 32 -3 3 -13 0 -21 -7
-21 -17 -46 3 -27 22 9 9 12 8 12 -7 0 -17 1 -17 20 0 11 10 20 15 20 11 0 -4
15 7 33 23 35 33 42 36 52 21 4 -6 12 -8 18 -5 7 3 5 0 -4 -6 -15 -11 -14 -14
4 -35 17 -20 23 -21 36 -11 12 9 13 9 7 0 -4 -8 -2 -13 6 -13 7 0 19 -9 26
-20 7 -11 19 -20 26 -20 8 0 23 -18 33 -40 23 -50 37 -55 59 -22 12 18 13 27
6 30 -7 2 -12 8 -12 13 0 5 -23 32 -50 61 -44 45 -54 51 -52 27 1 -3 -5 -6
-12 -6 -7 0 -12 10 -10 23 2 24 -21 41 -30 21 -2 -7 -5 -5 -5 4 -1 9 -9 23
-18 30 -9 8 -14 9 -10 2 13 -20 -15 -20 -38 1 -12 12 -50 46 -85 76 -129 112
-139 122 -137 133 1 7 -4 11 -11 9 -7 -1 -42 22 -76 53 l-63 55 -64 -94 c-34
-52 -67 -92 -73 -89 -5 3 -6 1 -3 -4 10 -17 -33 -66 -47 -54 -17 14 -40 -4
-34 -26 4 -16 1 -19 -18 -17 -21 2 -22 0 -13 -17 11 -21 5 -39 -13 -39 -6 0
-8 9 -5 19 5 22 -35 67 -51 57 -5 -3 -22 19 -37 49 -14 30 -31 55 -37 55 -6 0
-20 10 -32 23 -24 26 -23 62 1 53 9 -4 21 1 28 11 18 25 8 36 -17 19 -13 -10
-29 -12 -48 -6 -16 5 -31 6 -34 2 -3 -3 -6 1 -6 9 0 9 -9 25 -20 37 -11 12
-20 30 -20 42 0 11 -4 20 -10 20 -5 0 -10 9 -10 20 0 13 -7 20 -20 20 -24 0
-53 41 -45 63 6 15 33 27 69 32 18 2 41 25 48 47 2 5 23 12 46 15 52 7 119
-20 124 -49 2 -10 6 -19 11 -18 4 0 19 0 34 0 20 0 24 3 16 11 -14 14 6 39 30
39 20 0 75 64 83 96 4 14 2 30 -4 36 -13 13 -5 69 12 83 34 29 57 77 54 111
-4 45 -31 67 -50 42 -18 -22 -85 -31 -92 -11 -9 23 -7 53 4 53 5 0 7 7 4 15
-4 10 0 15 15 15 12 0 21 5 21 11 0 11 48 79 65 91 6 5 5 8 -3 8 -9 0 -7 9 8
29 13 19 17 32 10 36 -21 13 43 50 87 50 24 0 43 5 42 10 0 15 40 23 96 18 56
-6 90 -33 79 -65 -15 -47 65 -78 99 -38 24 28 100 28 124 0 19 -22 43 -27 43
-8 0 6 9 3 20 -7 18 -16 20 -16 20 -2 0 10 7 17 15 17 12 0 13 -4 5 -19 -14
-28 -13 -41 6 -41 9 0 18 9 21 20 3 12 14 20 26 20 11 0 29 7 39 16 14 14 20
14 33 4 8 -7 15 -9 15 -5 0 4 7 2 15 -5 12 -10 18 -10 30 0 8 6 23 9 33 6 11
-4 31 -2 46 3 22 9 26 8 26 -7 0 -13 2 -14 9 -3 7 10 13 11 29 2 12 -6 25 -11
29 -10 25 4 43 -3 43 -17 0 -11 -6 -14 -22 -8 -19 6 -21 5 -11 -8 7 -8 10 -17
7 -20 -2 -3 2 -8 10 -11 15 -6 66 27 66 43 0 5 29 51 65 102 158 229 200 289
256 373 33 50 72 110 87 134 15 24 32 49 38 55 7 7 47 64 90 127 234 344 237
349 216 349 -4 0 -15 -8 -24 -17 -35 -38 -87 -71 -105 -68 -7 2 -17 3 -23 4
-5 0 -10 8 -10 16 0 13 -21 21 -34 13 -2 -2 -12 4 -22 13 -11 9 -32 19 -47 21
-23 4 -32 0 -45 -21 -9 -14 -24 -33 -34 -42 -10 -9 -18 -21 -18 -27 0 -5 -14
-9 -31 -8 -19 1 -33 -3 -36 -11 -5 -12 -8 -11 -22 1 -9 8 -29 16 -45 18 -16 1
-31 9 -34 16 -2 7 0 12 5 11 23 -4 35 2 29 16 -8 23 15 55 41 55 12 0 23 -5
25 -11 4 -12 78 -20 78 -8 0 5 7 9 15 9 19 0 19 5 -2 41 -14 23 -15 33 -6 48
9 15 7 23 -11 42 -13 14 -26 36 -29 51 -10 38 -52 61 -98 55 -23 -3 -39 -1
-42 6 -2 6 -11 8 -21 4 -9 -4 -15 -11 -11 -17 6 -10 -23 -43 -48 -53 -19 -7
-54 38 -34 46 6 3 1 6 -13 7 l-25 2 25 7 c28 8 42 51 17 51 -9 0 -18 6 -21 13
-3 8 -9 6 -20 -7 -15 -18 -21 -15 -17 8 1 5 -12 6 -30 2 -26 -5 -30 -3 -25 10
4 11 -7 30 -34 56 -22 22 -40 43 -40 48 0 4 -6 13 -14 19 -26 22 -29 62 -7 85
30 32 28 66 -4 66 -20 0 -25 5 -25 24 0 13 -6 27 -12 29 -8 4 -4 8 10 12 14 5
22 15 22 30 0 13 3 30 6 39 4 9 1 16 -6 16 -29 0 -56 36 -59 80 -1 25 -5 49
-8 54 -4 5 -1 6 5 2 16 -9 16 33 1 71 l-11 28 -18 -38 c-18 -39 -34 -31 -23
12 3 12 -2 27 -11 36 -9 9 -16 25 -16 36 0 10 -9 28 -20 39 -11 11 -20 30 -20
43 0 20 -18 59 -21 47 -4 -13 -9 -69 -10 -103 0 -32 -2 -37 -14 -27 -7 6 -17
25 -20 42 -5 22 -10 27 -15 17 -5 -7 -7 -16 -4 -20 2 -4 -3 -9 -10 -12 -15 -6
-29 6 -39 33 -4 11 -6 10 -6 -4 -1 -19 -2 -19 -14 -2 -13 17 -52 13 -41 -5 3
-5 1 -9 -5 -9 -6 0 -13 -16 -17 -35 -3 -19 -12 -35 -19 -35 -7 0 -16 -12 -19
-26 -5 -20 -10 -24 -18 -16 -7 7 -17 8 -28 2 -12 -7 -18 -6 -17 3 1 41 -4 57
-21 57 -14 0 -18 10 -20 51 -1 28 -6 58 -11 66 -9 17 8 59 24 58 17 0 22 58 8
92 -7 18 -13 45 -13 61 0 29 -21 58 -33 45 -9 -8 -17 16 -21 63 -2 21 -4 42
-5 45 -1 4 -8 10 -17 13 -12 4 -14 1 -9 -14 5 -17 2 -20 -24 -20 -26 0 -31 -4
-31 -24 0 -14 -5 -28 -11 -32 -15 -9 -29 14 -29 49 0 15 -4 27 -10 27 -5 0
-10 7 -10 15 0 18 -50 21 -51 3 0 -7 -5 1 -10 17 -5 17 -5 41 -1 55 12 36 -2
66 -60 131 -10 10 -18 23 -18 27 0 15 -38 53 -44 44 -6 -11 -1 -60 7 -69 10
-10 8 -23 -3 -23 -5 0 -10 7 -10 15 0 8 -4 15 -9 15 -5 0 -12 8 -15 18 -3 9
-13 28 -20 41 -12 20 -15 21 -23 7 -8 -15 -11 -13 -23 9 -15 28 -28 32 -36 11
-3 -8 -12 -12 -21 -9 -12 5 -14 1 -8 -18 7 -22 6 -23 -9 -8 -10 9 -18 25 -19
37 -2 27 -13 28 -27 2z m25 -55 c4 -21 3 -25 -3 -15 -15 24 -26 67 -14 55 6
-5 13 -23 17 -40z m-31 9 c3 -8 2 -12 -4 -9 -6 3 -10 10 -10 16 0 14 7 11 14
-7z m56 -85 c11 -19 10 -20 -9 -9 -22 11 -29 30 -11 30 5 0 14 -9 20 -21z m-3
-61 c-3 -7 -5 -2 -5 12 0 14 2 19 5 13 2 -7 2 -19 0 -25z m-21 -95 c-7 -7 -26
7 -26 19 0 6 6 6 15 -2 9 -7 13 -15 11 -17z m14 -39 c0 -14 -12 -19 -23 -8 -9
9 4 35 14 28 5 -3 9 -12 9 -20z m-322 -73 c3 -8 -1 -12 -9 -9 -7 2 -15 10 -17
17 -3 8 1 12 9 9 7 -2 15 -10 17 -17z m1238 -482 c2 -16 -1 -29 -6 -29 -13 0
-30 44 -30 78 l0 26 16 -23 c10 -13 18 -36 20 -52z m-98 -86 c-2 -10 -7 -21
-12 -24 -4 -4 -4 -15 2 -25 5 -11 6 -28 1 -39 -6 -17 -8 -17 -8 -2 -1 9 -7 17
-15 17 -23 0 8 89 32 90 2 0 2 -8 0 -17z m57 -223 c3 -5 -1 -10 -10 -10 -9 0
-13 5 -10 10 3 6 8 10 10 10 2 0 7 -4 10 -10z m-43 -30 c-2 -7 6 -19 18 -27
25 -18 26 -35 1 -50 -14 -9 -18 -20 -15 -38 4 -21 1 -25 -20 -25 -25 0 -28 13
-11 39 5 9 5 16 -1 18 -11 4 -11 74 0 92 10 15 32 8 28 -9z m-20 -222 c-7 -7
-12 -8 -12 -2 0 14 12 26 19 19 2 -3 -1 -11 -7 -17z m695 -155 c6 -16 -79 -27
-88 -11 -4 7 -6 15 -3 17 3 3 8 0 12 -6 6 -9 14 -9 32 1 28 15 42 15 47 -1z
m-797 -9 c0 -2 -10 -14 -22 -26 -14 -14 -23 -18 -26 -10 -2 7 -11 12 -20 12
-14 1 -13 4 5 19 19 16 63 19 63 5z m350 -64 c0 -5 10 -10 22 -10 24 0 58 -27
58 -46 0 -7 -10 -16 -22 -20 -17 -5 -27 0 -44 22 -25 31 -37 64 -23 64 5 0 9
-4 9 -10z m430 -110 c0 -5 -8 -10 -17 -10 -15 0 -16 2 -3 10 19 12 20 12 20 0z
m-563 -237 c-3 -10 -5 -2 -5 17 0 19 2 27 5 18 2 -10 2 -26 0 -35z m1403 -93
c0 -4 -6 -10 -14 -13 -10 -4 -12 0 -9 14 5 18 23 18 23 -1z m-1285 1 c3 -5 1
-12 -5 -16 -5 -3 -10 1 -10 9 0 18 6 21 15 7z m1305 -131 c-7 -4 -9 -13 -6
-19 4 -6 -4 -15 -19 -21 -35 -13 -42 -13 -49 6 -5 13 -1 15 19 10 20 -5 27 -2
37 18 6 14 15 23 21 19 5 -3 4 -9 -3 -13z m-49 -81 c-13 -10 -18 -19 -12 -19
6 0 11 -5 11 -12 0 -8 -7 -5 -17 6 -17 16 -17 18 6 37 13 11 27 17 30 13 3 -3
-5 -14 -18 -25z m-105 -50 c-8 -13 -15 -28 -15 -32 1 -16 -8 -17 -20 -3 -13
16 -5 60 9 51 4 -3 11 3 14 12 5 11 10 13 17 6 8 -8 6 -18 -5 -34z m69 2 c-3
-6 -16 -16 -28 -23 -20 -10 -20 -9 3 15 24 25 39 29 25 8z m-40 -51 c3 -5 1
-10 -4 -10 -6 0 -11 5 -11 10 0 6 2 10 4 10 3 0 8 -4 11 -10z m-30 -33 c11 14
12 14 12 -1 0 -9 -5 -16 -10 -16 -5 0 -6 -12 -3 -27 5 -21 4 -24 -4 -13 -7 11
-10 11 -10 2 0 -7 -4 -10 -10 -7 -5 3 -10 1 -10 -4 0 -6 5 -11 10 -11 6 0 10
-4 10 -9 0 -6 -9 -8 -19 -6 -13 2 -18 -1 -15 -9 3 -8 -2 -16 -10 -19 -9 -4
-16 -13 -16 -21 0 -15 -37 -32 -47 -22 -4 3 1 6 10 6 10 0 17 7 17 15 0 8 5
15 10 15 18 0 31 49 19 72 -8 15 -8 19 0 14 6 -4 21 -4 32 -1 21 7 21 7 -3 33
l-23 25 24 -16 c22 -15 25 -15 36 0z m-65 -17 c0 -5 -5 -10 -11 -10 -5 0 -7 5
-4 10 3 6 8 10 11 10 2 0 4 -4 4 -10z m-90 -155 c7 -9 8 -15 2 -15 -5 0 -12 7
-16 15 -3 8 -4 15 -2 15 2 0 9 -7 16 -15z m44 -31 c3 -8 2 -12 -4 -9 -6 3 -10
10 -10 16 0 14 7 11 14 -7z m-69 -4 c3 -5 1 -10 -4 -10 -6 0 -11 5 -11 10 0 6
2 10 4 10 3 0 8 -4 11 -10z m35 -30 c0 -5 -5 -10 -11 -10 -5 0 -7 5 -4 10 3 6
8 10 11 10 2 0 4 -4 4 -10z m-263 -142 c-3 -8 -6 -5 -6 6 -1 11 2 17 5 13 3
-3 4 -12 1 -19z m138 -16 c1 -11 -2 -19 -7 -16 -5 4 -7 12 -4 19 3 8 1 16 -5
19 -5 2 -4 3 2 2 7 -1 13 -12 14 -24z m-133 -15 c3 16 4 16 10 -3 3 -12 1 -21
-6 -21 -6 0 -19 -4 -28 -8 -19 -8 -22 2 -11 31 6 16 7 16 19 0 11 -16 12 -16
16 1z m-142 -120 c-19 -17 -21 -18 -8 -2 8 11 13 27 10 35 -4 12 -2 13 9 2 11
-10 9 -16 -11 -35z m160 33 c-20 -13 -33 -13 -25 0 3 6 14 10 23 10 15 0 15
-2 2 -10z m-23 -152 c-3 -7 -5 -2 -5 12 0 14 2 19 5 13 2 -7 2 -19 0 -25z
m-367 -78 c0 -5 -11 -17 -25 -26 -14 -9 -25 -21 -25 -26 0 -10 -106 -154 -119
-162 -4 -3 -8 8 -8 25 0 20 4 28 13 25 8 -3 11 0 7 10 -5 13 8 19 31 15 5 -1
3 5 -4 14 -10 12 -10 19 -2 27 9 9 12 9 12 -2 0 -7 3 -10 8 -6 4 4 7 12 7 17
0 10 85 95 98 97 4 1 7 -2 7 -8z m-40 -4 c0 -2 -7 -7 -16 -10 -8 -3 -12 -2 -9
4 6 10 25 14 25 6z m290 -6 c0 -5 -5 -10 -11 -10 -5 0 -7 5 -4 10 3 6 8 10 11
10 2 0 4 -4 4 -10z m-271 -151 c-12 -24 -26 -46 -30 -47 -5 -2 -7 -8 -4 -13 4
-5 -2 -6 -11 -2 -11 4 -15 3 -10 -5 4 -6 -4 -18 -19 -28 -14 -9 -25 -23 -25
-30 0 -8 -5 -14 -11 -14 -6 0 -8 -7 -5 -16 3 -8 2 -12 -4 -9 -6 3 -10 1 -10
-5 0 -18 -62 -80 -74 -73 -6 3 -5 0 2 -8 6 -7 12 -18 12 -23 0 -6 -4 -5 -8 2
-7 10 -15 6 -35 -14 -15 -14 -24 -30 -21 -35 3 -5 -2 -6 -10 -3 -10 4 -19 -1
-23 -14 -5 -12 -12 -20 -18 -19 -5 1 -11 -8 -13 -20 -2 -12 -12 -25 -23 -28
-11 -4 -17 -10 -14 -15 7 -11 -88 -50 -125 -50 -18 0 -29 4 -25 10 3 6 15 10
26 10 10 0 19 5 19 11 0 5 5 7 10 4 14 -9 12 9 -2 24 -11 10 -9 11 7 5 18 -7
19 -6 6 9 -12 15 -11 20 5 38 16 18 19 18 24 4 4 -13 10 -10 29 15 12 18 20
34 16 38 -3 4 -10 0 -15 -8 -6 -8 -10 -10 -10 -4 0 6 7 17 15 24 10 9 15 9 15
1 0 -22 17 -10 36 25 16 29 74 93 148 161 7 6 18 8 26 3 7 -4 21 -5 30 -2 20
8 75 54 81 68 11 23 52 84 55 81 2 -2 -6 -23 -17 -48z m6121 23 c0 -11 -41
-34 -48 -28 -3 3 0 6 7 6 9 0 12 9 9 25 -4 21 -3 23 13 14 11 -5 19 -13 19
-17z m-5887 11 c-7 -2 -19 -2 -25 0 -7 3 -2 5 12 5 14 0 19 -2 13 -5z m5647
-2 c0 -5 -9 -11 -19 -14 -14 -3 -18 -1 -14 9 6 15 33 19 33 5z m-5675 -39 c-3
-3 -11 0 -18 7 -9 10 -8 11 6 5 10 -3 15 -9 12 -12z m6175 -50 c0 -29 -10 -32
-37 -15 -24 16 -24 17 -7 24 32 13 44 10 44 -9z m-6550 -6 c0 -2 -7 -9 -15
-16 -13 -11 -14 -10 -9 4 5 14 24 23 24 12z m6284 -12 c3 -8 2 -12 -4 -9 -6 3
-10 10 -10 16 0 14 7 11 14 -7z m-89 -34 c3 -5 -3 -10 -15 -10 -12 0 -18 5
-15 10 3 6 10 10 15 10 5 0 12 -4 15 -10z m41 -12 c-3 -23 -46 -40 -46 -19 0
6 6 11 14 11 8 0 16 7 20 15 8 23 16 18 12 -7z m74 6 c0 -2 -7 -4 -15 -4 -8 0
-15 4 -15 10 0 5 7 7 15 4 8 -4 15 -8 15 -10z m-470 -39 c0 -8 -4 -15 -9 -15
-13 0 -22 16 -14 24 11 11 23 6 23 -9z m690 5 c0 -5 -5 -10 -11 -10 -5 0 -7 5
-4 10 3 6 8 10 11 10 2 0 4 -4 4 -10z m-475 -40 c-3 -5 -10 -10 -16 -10 -5 0
-9 5 -9 10 0 6 7 10 16 10 8 0 12 -4 9 -10z m-5785 -10 c0 -5 -2 -10 -4 -10
-3 0 -8 5 -11 10 -3 6 -1 10 4 10 6 0 11 -4 11 -10z m-490 -60 c0 -5 -5 -10
-11 -10 -5 0 -7 5 -4 10 3 6 8 10 11 10 2 0 4 -4 4 -10z m5940 -10 c0 -5 -5
-10 -11 -10 -5 0 -7 5 -4 10 3 6 8 10 11 10 2 0 4 -4 4 -10z m-4586 -25 c-4
-8 -7 -15 -9 -15 -2 0 -5 7 -9 15 -3 9 0 15 9 15 9 0 12 -6 9 -15z m2801 -24
c16 -7 12 -9 -16 -9 -20 0 -42 4 -50 9 -18 11 38 11 66 0z m1942 -7 c3 -7 -8
-11 -28 -10 -18 1 -34 7 -37 14 -3 10 5 13 29 10 18 -2 34 -8 36 -14z m58 6
c-3 -5 -10 -10 -16 -10 -5 0 -9 5 -9 10 0 6 7 10 16 10 8 0 12 -4 9 -10z
m-1776 -45 c9 -36 9 -38 -4 -21 -8 11 -15 31 -15 45 0 32 5 25 19 -24z m1984
31 c4 -10 1 -13 -9 -9 -7 3 -14 0 -14 -7 0 -6 -4 -8 -10 -5 -5 3 -10 13 -10
21 0 18 36 18 43 0z m-254 -32 c5 4 12 2 16 -4 3 -5 0 -10 -9 -10 -23 0 -46
11 -46 22 0 6 6 5 15 -2 8 -6 19 -9 24 -6z m81 -14 c0 -5 -7 -7 -15 -4 -8 4
-15 8 -15 10 0 2 7 4 15 4 8 0 15 -4 15 -10z m45 0 c3 -5 -1 -10 -10 -10 -9 0
-13 5 -10 10 3 6 8 10 10 10 2 0 7 -4 10 -10z m-30 -40 c-3 -5 -10 -10 -16
-10 -5 0 -9 5 -9 10 0 6 7 10 16 10 8 0 12 -4 9 -10z m-6285 -10 c0 -5 -5 -10
-11 -10 -5 0 -7 5 -4 10 3 6 8 10 11 10 2 0 4 -4 4 -10z m4030 1 c0 -5 18 -7
40 -4 32 5 40 2 40 -10 0 -9 8 -17 18 -20 16 -4 16 -4 -2 -12 -11 -5 -21 -4
-25 3 -4 6 -33 14 -66 17 -59 6 -88 15 -47 15 12 0 22 5 22 10 0 6 5 10 10 10
6 0 10 -4 10 -9z m2200 -1 c-20 -13 -50 -13 -50 0 0 6 15 10 33 10 24 0 28 -3
17 -10z m-6025 -29 c-3 -6 3 -14 12 -20 10 -6 13 -11 7 -11 -15 0 -36 25 -27
33 10 10 15 8 8 -2z m5535 0 c0 -12 -20 -25 -27 -18 -7 7 6 27 18 27 5 0 9 -4
9 -9z m-1660 -25 c0 -3 -4 -8 -10 -11 -5 -3 -10 -1 -10 4 0 6 5 11 10 11 6 0
10 -2 10 -4z m-4802 -33 c-3 -16 -9 -37 -13 -48 l-8 -20 24 20 24 20 -19 -22
c-10 -12 -23 -21 -28 -20 -6 1 -13 -4 -16 -12 -3 -8 0 -11 7 -7 6 4 11 2 11
-4 0 -7 -6 -10 -14 -7 -16 7 -101 -119 -86 -128 4 -3 17 10 29 28 11 17 29 45
40 61 l19 28 -1 -25 c-1 -14 -5 -23 -9 -21 -3 2 -16 -9 -27 -24 -16 -23 -17
-32 -8 -41 9 -10 8 -11 -4 -6 -11 4 -23 -2 -34 -17 -11 -15 -15 -17 -12 -5 8
22 1 22 -30 -3 -14 -11 -22 -20 -16 -20 5 0 9 -13 8 -29 0 -22 -3 -27 -12 -19
-9 7 -13 7 -13 -1 0 -7 -4 -10 -10 -6 -5 3 -7 13 -4 23 5 15 4 15 -6 2 -9 -13
-11 -12 -7 5 2 11 9 19 15 18 7 -2 12 4 12 13 0 9 9 24 19 33 11 10 21 24 23
32 2 7 10 20 18 27 11 10 11 12 1 6 -15 -8 -16 -9 31 65 15 25 28 38 28 30 0
-12 2 -12 9 1 6 8 7 19 3 25 -3 5 1 4 10 -3 13 -10 15 -9 10 13 -3 18 0 25 12
25 9 0 16 8 16 20 0 11 3 20 6 20 4 0 4 -12 2 -27z m6142 -3 c0 -5 -4 -10 -10
-10 -5 0 -10 5 -10 10 0 6 5 10 10 10 6 0 10 -4 10 -10z m66 -17 c-7 -7 -26 7
-26 19 0 6 6 6 15 -2 9 -7 13 -15 11 -17z m104 -4 c0 -3 -10 -11 -22 -17 -18
-8 -19 -11 -5 -11 21 -1 23 -21 2 -21 -9 0 -18 -7 -21 -15 -4 -8 -10 -15 -16
-15 -5 0 -7 4 -3 10 3 5 6 29 7 53 l0 44 29 -11 c16 -5 29 -13 29 -17z m135
22 c3 -6 -3 -9 -14 -8 -11 0 -17 5 -15 9 7 11 22 10 29 -1z m-280 -21 c-8 -14
22 -57 45 -63 11 -3 20 -11 20 -17 0 -7 -6 -10 -14 -7 -7 3 -18 1 -24 -5 -14
-14 -62 -20 -62 -7 0 21 -17 6 -30 -26 -14 -37 -36 -50 -25 -15 3 11 8 32 11
47 4 23 3 25 -11 13 -8 -7 -19 -9 -23 -5 -4 4 -1 10 6 12 7 3 18 10 24 17 6 6
26 10 45 8 20 -3 33 0 33 7 0 7 -10 9 -26 5 -19 -5 -25 -4 -20 5 12 19 -23 12
-44 -9 -11 -11 -20 -16 -20 -12 0 24 62 56 77 41 6 -6 14 -4 23 6 14 17 25 21
15 5z m-5280 -9 c3 -5 2 -12 -3 -15 -5 -3 -9 1 -9 9 0 17 3 19 12 6z m4523 -3
c-6 -18 -28 -21 -28 -4 0 9 7 16 16 16 9 0 14 -5 12 -12z m939 -25 c-10 -2
-16 -11 -15 -18 2 -8 -1 -15 -7 -17 -5 -2 -11 7 -13 20 -3 18 1 22 25 21 17
-1 21 -3 10 -6z m968 -15 c1 -2 -6 -12 -16 -22 -19 -19 -19 -19 -19 0 0 16 -2
17 -10 4 -8 -12 -10 -11 -10 6 0 17 5 21 26 18 14 -1 27 -4 29 -6z m50 2 c-3
-5 -14 -10 -23 -9 -14 0 -13 2 3 9 27 11 27 11 20 0z m95 -20 c0 -5 -4 -10
-10 -10 -5 0 -10 5 -10 10 0 6 5 10 10 10 6 0 10 -4 10 -10z m-3855 -29 c-3
-6 -11 -11 -16 -11 -5 0 -4 6 3 14 14 16 24 13 13 -3z m-3768 3 c-3 -3 -12 -4
-19 -1 -8 3 -5 6 6 6 11 1 17 -2 13 -5z m7583 -6 c0 -4 -7 -8 -15 -8 -8 0 -15
4 -15 8 0 5 7 9 15 9 8 0 15 -4 15 -9z m-3886 -49 c-9 -15 -34 -10 -34 6 0 9
6 22 13 29 10 12 13 10 20 -6 4 -11 5 -24 1 -29z m4066 35 c0 -2 -13 -4 -30
-4 -16 0 -30 4 -30 8 0 5 14 7 30 4 17 -2 30 -6 30 -8z m-3810 -15 c0 -6 -4
-7 -10 -4 -5 3 -10 11 -10 16 0 6 5 7 10 4 6 -3 10 -11 10 -16z m-3665 -14 c0
-27 -10 -33 -18 -11 -4 10 9 36 18 36 0 0 0 -11 0 -25z m1351 15 c26 -10 26
-11 8 -24 -10 -8 -22 -12 -25 -10 -4 2 -10 -3 -13 -12 -4 -10 -2 -13 7 -8 6 4
9 4 5 -1 -4 -4 -3 -14 4 -22 24 -29 0 -21 -31 11 -29 30 -31 36 -19 55 14 24
25 25 64 11z m6085 -18 c-7 -2 -18 1 -23 6 -8 8 -4 9 13 5 13 -4 18 -8 10 -11z
m-6911 -53 c-11 -8 -9 -9 9 -4 17 5 22 4 19 -6 -6 -15 -47 -14 -62 1 -6 6 0
13 15 19 28 10 40 4 19 -10z m3890 -3 c0 -10 -7 -12 -22 -8 -16 4 -19 2 -13
-8 5 -9 4 -11 -3 -6 -7 4 -12 1 -12 -8 0 -9 -4 -16 -9 -16 -5 0 -7 -9 -4 -20
3 -11 0 -20 -6 -20 -6 0 -11 4 -11 10 0 5 -7 7 -15 4 -16 -7 -18 -1 -8 34 4
17 8 20 14 11 5 -9 14 -5 31 14 25 29 58 36 58 13z m-3874 -48 c4 -6 3 -8 -4
-4 -6 3 -13 2 -17 -4 -9 -15 -22 -12 -22 5 0 18 33 20 43 3z m-803 -13 c-3 -9
-8 -14 -10 -11 -3 3 -2 9 2 15 9 16 15 13 8 -4z m173 -31 c-18 -26 -22 -41
-15 -50 12 -14 -7 -60 -27 -68 -16 -6 -19 10 -4 19 12 8 13 25 2 25 -9 0 -32
-44 -32 -62 0 -5 7 -8 15 -5 8 4 17 2 20 -4 4 -5 3 -9 -2 -8 -21 4 -33 -2 -33
-17 0 -9 5 -12 13 -8 8 5 7 2 -2 -9 -18 -23 -26 -13 -26 31 0 28 -4 36 -15 34
-9 -2 -5 6 10 21 41 40 60 66 60 83 0 8 4 13 8 10 4 -2 16 8 27 24 11 16 21
27 23 25 2 -2 -8 -20 -22 -41z m7484 36 c0 -5 -2 -10 -4 -10 -3 0 -8 5 -11 10
-3 6 -1 10 4 10 6 0 11 -4 11 -10z m-4190 -30 c0 -5 -4 -10 -10 -10 -5 0 -10
5 -10 10 0 6 5 10 10 10 6 0 10 -4 10 -10z m-3542 -12 c16 -16 15 -23 -4 -43
-12 -12 -19 -13 -24 -5 -5 8 -9 7 -13 -5 -4 -9 -3 -13 3 -10 6 3 10 1 10 -5 0
-6 5 -8 12 -4 7 4 8 3 4 -5 -4 -6 -11 -9 -16 -6 -8 5 -20 -16 -26 -43 -1 -8
-11 -23 -21 -35 -10 -11 -12 -17 -4 -12 11 6 13 4 8 -9 -4 -10 -7 -23 -7 -28
0 -6 -3 -9 -6 -5 -7 7 -44 -29 -44 -43 0 -13 -39 -37 -73 -46 l-29 -7 41 60
c23 33 41 65 41 71 0 6 11 22 24 35 14 14 22 28 19 31 -9 9 72 126 87 126 3 0
11 -5 18 -12z m7799 -20 c-3 -8 -6 -5 -6 6 -1 11 2 17 5 13 3 -3 4 -12 1 -19z
m-3080 -10 c-3 -8 -6 -5 -6 6 -1 11 2 17 5 13 3 -3 4 -12 1 -19z m-4256 -11
c-10 -9 -11 -8 -5 6 3 10 9 15 12 12 3 -3 0 -11 -7 -18z m7266 17 c-3 -3 -12
-4 -19 -1 -8 3 -5 6 6 6 11 1 17 -2 13 -5z m48 -4 c3 -5 2 -10 -4 -10 -5 0
-13 5 -16 10 -3 6 -2 10 4 10 5 0 13 -4 16 -10z m-7915 -19 c0 -6 -4 -13 -10
-16 -5 -3 -10 1 -10 9 0 9 5 16 10 16 6 0 10 -4 10 -9z m4850 -5 c0 -3 -4 -8
-10 -11 -5 -3 -10 -1 -10 4 0 6 5 11 10 11 6 0 10 -2 10 -4z m-1416 -51 c-4
-8 -8 -15 -10 -15 -2 0 -4 7 -4 15 0 8 4 15 10 15 5 0 7 -7 4 -15z m-3307 -20
c0 -8 -4 -12 -9 -9 -4 3 -8 0 -8 -7 0 -7 -3 -9 -6 -6 -4 4 -1 13 6 22 15 19
17 19 17 0z m147 -43 c-4 -9 -8 -19 -9 -22 -9 -27 -19 -39 -27 -34 -5 3 -1 12
9 20 10 7 14 14 9 14 -5 0 -3 6 3 14 6 8 11 18 10 22 -3 17 3 29 8 16 3 -7 1
-20 -3 -30z m106 -6 c0 -21 -20 -30 -33 -17 -9 9 -7 10 7 5 16 -6 18 -4 13 9
-3 9 -2 17 3 17 6 0 10 -6 10 -14z m-87 -51 c-3 -9 -8 -13 -11 -11 -7 7 -32
-13 -32 -26 0 -5 6 -6 13 -2 7 4 9 3 4 -2 -5 -5 -13 -9 -17 -9 -5 0 -17 -9
-26 -20 -13 -17 -13 -15 1 10 32 56 84 101 68 60z m-88 -51 c-23 -23 -28 -13
-8 16 10 14 18 19 21 12 2 -7 -4 -19 -13 -28z m3469 20 c5 -14 4 -15 -9 -4
-17 14 -19 20 -6 20 5 0 12 -7 15 -16z m-3814 -3 c0 -6 -4 -13 -10 -16 -5 -3
-10 1 -10 9 0 9 5 16 10 16 6 0 10 -4 10 -9z m-34 -20 c-9 -14 5 -42 16 -35
14 9 -6 -29 -66 -120 -28 -44 -51 -82 -50 -85 0 -3 -12 -19 -27 -35 l-27 -28
-12 22 c-7 12 -8 20 -2 16 5 -3 13 1 16 10 3 8 2 12 -4 9 -6 -4 -5 5 1 19 7
14 16 23 20 20 5 -3 9 5 9 18 0 18 2 20 10 8 8 -12 10 -12 10 5 0 18 97 185
107 185 2 0 2 -4 -1 -9z m3204 -11 c-8 -5 -18 -6 -24 -3 -5 4 -1 10 10 13 24
9 34 2 14 -10z m-2895 -252 c5 -42 11 -59 24 -63 10 -3 26 -13 37 -23 10 -9
31 -25 47 -35 15 -10 27 -21 27 -25 0 -4 -29 -23 -65 -41 -70 -37 -70 -38 -80
-121 -4 -30 -9 -63 -12 -73 -5 -18 -5 -18 -19 0 -7 10 -14 26 -14 36 0 10 -4
16 -9 12 -6 -3 -22 10 -38 30 -31 38 -54 43 -143 25 -25 -4 -46 -8 -46 -7 -1
1 16 37 37 80 l38 78 -34 82 c-18 45 -31 84 -30 85 2 2 36 -4 76 -15 l72 -18
56 62 56 61 7 -36 c4 -21 9 -63 13 -94z m696 19 c-8 -8 -11 -7 -11 4 0 20 13
34 18 19 3 -7 -1 -17 -7 -23z m-1172 -66 c10 -7 7 -9 -12 -8 -14 1 -23 5 -20
10 6 9 15 9 32 -2z m-50 -67 c-14 -18 -24 -11 -15 11 3 9 11 13 16 10 8 -5 7
-11 -1 -21z m965 11 c-4 -8 -11 -15 -16 -15 -6 0 -5 6 2 15 7 8 14 15 16 15 2
0 1 -7 -2 -15z m-105 -7 c11 -11 12 -10 6 0 -5 10 -2 13 10 10 10 -1 20 -10
22 -18 4 -13 3 -13 -6 0 -9 12 -11 10 -11 -10 0 -18 -6 -26 -20 -27 -11 -1
-22 2 -25 8 -4 5 2 9 12 9 17 1 17 1 1 11 -18 10 -24 29 -10 29 4 0 14 -6 21
-12z m76 -28 c-3 -5 -16 -10 -28 -9 -20 1 -20 2 3 9 14 4 26 8 28 9 2 1 0 -3
-3 -9z m-115 -25 c7 -9 11 -16 9 -18 -51 -29 -52 -29 -45 -12 3 9 6 23 6 31 0
18 14 18 30 -1z m38 -45 c-15 -24 -22 -19 -13 9 3 12 11 19 16 16 5 -4 3 -14
-3 -25z m-57 -63 c-10 -9 -11 -8 -5 6 3 10 9 15 12 12 3 -3 0 -11 -7 -18z
m-711 6 c0 -10 -54 -83 -58 -78 -3 3 0 11 6 17 15 15 16 31 1 22 -6 -3 -4 5 5
18 13 20 46 35 46 21z m30 -82 c-5 -11 -15 -23 -21 -27 -6 -3 -3 5 6 20 20 30
30 35 15 7z m-90 -25 c0 -7 -8 -20 -17 -27 -15 -11 -16 -11 -5 1 15 18 16 34
0 24 -7 -4 -8 -3 -4 4 10 16 26 15 26 -2z m144 -42 c6 -15 -17 -64 -29 -64 -6
0 6 32 18 48 6 8 6 12 -2 12 -6 0 -11 5 -11 10 0 16 17 11 24 -6z m877 -74
c20 -11 27 -40 9 -40 -5 0 -9 6 -7 13 4 21 -33 7 -69 -25 -19 -17 -34 -37 -34
-45 0 -8 -12 -13 -30 -13 -30 0 -30 1 -30 55 l0 55 33 0 c18 0 38 -5 45 -12
10 -9 16 -8 29 5 20 20 27 21 54 7z m624 -34 c43 -33 63 -62 71 -103 7 -34 -6
-44 -49 -36 -17 3 -27 12 -27 23 0 10 -14 30 -31 44 -54 45 -123 30 -149 -34
-10 -25 -18 -30 -46 -30 -29 0 -34 4 -34 23 0 12 10 40 23 62 47 84 165 109
242 51z m5833 17 c33 -21 20 -30 -48 -32 -43 -1 -60 2 -60 11 0 7 -11 1 -23
-13 -13 -14 -29 -23 -37 -21 -8 3 -12 2 -8 -2 3 -4 17 -9 31 -10 20 -2 24 1
21 18 -3 12 -2 15 2 9 3 -7 14 -13 24 -13 14 0 6 -13 -31 -50 -27 -27 -51 -50
-53 -50 -9 0 -16 52 -9 63 4 7 8 17 9 22 0 6 2 16 2 23 1 7 6 11 10 8 5 -3 15
6 22 20 8 14 20 22 27 19 8 -2 11 0 8 5 -10 16 86 10 113 -7z m47 -55 c6 -31
8 -48 6 -78 -1 -24 -2 -23 -40 15 -22 22 -37 44 -33 49 3 5 1 6 -4 3 -6 -3
-16 -2 -24 4 -11 6 -2 9 28 9 23 0 42 5 42 10 0 20 20 10 25 -12z m-6565 -8
c0 -5 -4 -10 -10 -10 -5 0 -10 5 -10 10 0 6 5 10 10 10 6 0 10 -4 10 -10z m54
-15 c3 -8 1 -15 -4 -15 -6 0 -10 7 -10 15 0 8 2 15 4 15 2 0 6 -7 10 -15z m13
-77 c-3 -8 -6 -5 -6 6 -1 11 2 17 5 13 3 -3 4 -12 1 -19z m520 -60 c-3 -7 -5
-2 -5 12 0 14 2 19 5 13 2 -7 2 -19 0 -25z m70 0 c-3 -7 -5 -2 -5 12 0 14 2
19 5 13 2 -7 2 -19 0 -25z m701 15 c-5 -25 -28 -28 -28 -4 0 12 6 21 16 21 9
0 14 -7 12 -17z m906 2 c-4 -8 -12 -15 -20 -15 -17 0 -18 17 -1 23 22 9 27 7
21 -8z m-1850 -11 c3 -8 2 -12 -4 -9 -6 3 -10 10 -10 16 0 14 7 11 14 -7z
m200 0 c3 -8 2 -12 -4 -9 -6 3 -10 10 -10 16 0 14 7 11 14 -7z m3026 12 c0 -3
-4 -8 -10 -11 -5 -3 -10 -1 -10 4 0 6 5 11 10 11 6 0 10 -2 10 -4z m1007 -18
c-3 -8 -6 -5 -6 6 -1 11 2 17 5 13 3 -3 4 -12 1 -19z"/>
<path d="M780 1506 c0 -9 5 -16 10 -16 6 0 10 4 10 9 0 6 -4 13 -10 16 -5 3
-10 -1 -10 -9z"/>
<path d="M436 1352 c-3 -5 1 -9 9 -9 8 0 12 4 9 9 -3 4 -7 8 -9 8 -2 0 -6 -4
-9 -8z"/>
<path d="M96 733 c-6 -14 -5 -15 5 -6 7 7 10 15 7 18 -3 3 -9 -2 -12 -12z"/>
<path d="M1045 520 c-3 -6 1 -7 9 -4 18 7 21 14 7 14 -6 0 -13 -4 -16 -10z"/>
<path d="M1726 397 c3 -10 9 -15 12 -12 3 3 0 11 -7 18 -10 9 -11 8 -5 -6z"/>
<path d="M4510 5250 c0 -6 28 -10 65 -10 37 0 65 4 65 10 0 6 -28 10 -65 10
-37 0 -65 -4 -65 -10z"/>
<path d="M6011 5093 c-44 -48 -78 -89 -75 -92 5 -6 174 162 174 173 0 19 -27
-3 -99 -81z"/>
<path d="M6738 5099 c-10 -5 -18 -17 -18 -25 0 -13 3 -13 22 0 44 31 124 12
134 -31 6 -21 11 -23 75 -23 39 0 69 4 69 10 0 6 -28 10 -65 10 -60 0 -66 2
-75 24 -5 14 -18 30 -29 35 -25 14 -90 14 -113 0z"/>
<path d="M7228 5099 c-10 -5 -18 -16 -18 -24 0 -12 5 -11 28 2 41 24 99 11
120 -28 16 -27 20 -29 85 -29 38 0 67 4 67 10 0 6 -30 10 -70 10 -56 0 -70 3
-70 15 0 8 -9 24 -20 35 -22 22 -92 27 -122 9z"/>
<path d="M4851 5081 c-12 -12 -21 -28 -21 -36 0 -12 -14 -15 -65 -15 -37 0
-65 -4 -65 -10 0 -6 27 -10 63 -10 59 1 63 2 82 33 17 27 27 33 63 35 29 2 53
-3 70 -14 l27 -18 -16 25 c-23 34 -108 40 -138 10z"/>
<path d="M5353 5088 c-24 -12 -57 -72 -49 -91 2 -7 5 -5 5 4 1 9 10 28 22 43
16 21 29 26 64 26 35 0 48 -5 64 -26 12 -15 21 -33 21 -40 0 -11 18 -14 70
-14 56 0 70 3 70 15 0 12 -14 15 -68 15 -66 0 -68 1 -79 30 -16 44 -72 61
-120 38z"/>
<path d="M6268 5083 c-8 -10 -18 -26 -21 -35 -5 -15 -19 -18 -72 -18 -37 0
-65 -4 -65 -10 0 -6 30 -10 70 -10 56 0 70 3 70 15 0 47 90 73 138 39 20 -13
22 -13 22 0 0 37 -114 52 -142 19z"/>
<path d="M3155 4858 c-55 -84 -124 -184 -152 -222 -29 -38 -53 -80 -53 -93 0
-13 3 -22 8 -21 4 1 22 -12 41 -30 18 -18 42 -32 52 -32 23 0 24 9 4 37 -14
20 -14 22 7 25 14 2 23 10 23 20 0 10 11 25 25 35 14 9 29 23 33 31 6 9 18 11
33 8 18 -5 24 -2 24 9 0 12 -6 15 -20 10 -12 -4 -20 -2 -20 5 0 6 4 9 9 5 5
-3 12 4 16 15 3 11 11 20 16 20 5 0 9 7 9 15 0 8 7 15 15 15 8 0 15 -5 15 -11
0 -8 5 -7 15 1 9 7 13 20 10 27 -7 19 12 53 29 53 23 0 28 31 9 46 -17 13 -17
14 1 8 17 -6 17 -5 6 17 -13 23 -12 23 5 9 17 -14 18 -13 12 3 -4 10 35 -14
86 -53 85 -66 114 -105 77 -105 -8 0 -20 -11 -27 -25 -7 -14 -18 -24 -23 -22
-8 1 -7 -4 0 -18 6 -11 17 -20 24 -20 8 0 16 -7 20 -15 7 -20 42 -19 94 5 45
20 54 44 25 66 -13 9 -14 13 -4 14 8 0 11 6 7 16 -4 10 3 23 20 36 14 11 30
32 35 47 9 22 7 29 -15 47 -48 42 -197 125 -266 150 -119 41 -111 46 -225
-128z"/>
<path d="M7070 4993 c0 -20 42 -74 68 -87 16 -8 71 -27 123 -41 52 -15 100
-32 108 -38 11 -9 13 -7 10 8 -3 16 -23 25 -89 43 -120 33 -179 61 -196 94
-14 27 -24 36 -24 21z"/>
<path d="M6590 4978 c0 -43 56 -78 180 -113 52 -15 99 -31 105 -36 16 -16 26
-10 15 11 -6 11 -29 24 -53 30 -135 35 -182 53 -214 85 -18 18 -33 29 -33 23z"/>
<path d="M4913 4910 c-69 -19 -93 -34 -93 -59 1 -14 2 -14 11 1 5 10 29 22 52
28 92 23 117 31 117 40 0 13 -12 11 -87 -10z"/>
<path d="M6370 4920 c-14 -5 -42 -11 -63 -15 -38 -6 -77 -35 -77 -57 0 -6 8
-4 19 6 11 10 50 25 87 34 37 10 69 23 72 30 4 14 -2 14 -38 2z"/>
<path d="M5803 4873 c-32 -37 -29 -52 5 -20 l27 26 60 -107 60 -107 80 0 c104
0 102 19 -2 23 l-78 3 -58 104 c-32 58 -62 105 -65 104 -4 0 -17 -12 -29 -26z"/>
<path d="M5161 4840 c-1 -25 44 -113 70 -137 59 -54 185 -70 264 -34 45 20 91
69 112 118 20 49 15 64 -6 18 -41 -90 -106 -130 -211 -130 -115 0 -178 42
-215 142 -7 21 -14 31 -14 23z"/>
<path d="M3389 4796 c10 -11 5 -22 -21 -53 -18 -21 -36 -40 -41 -41 -15 -7
-39 -64 -30 -73 15 -15 42 1 59 32 8 16 20 29 27 29 24 0 37 22 26 42 -7 14
-7 23 2 34 9 11 9 17 -1 29 -7 8 -17 15 -22 15 -6 0 -6 -6 1 -14z m1 -66 c0
-5 -4 -10 -10 -10 -5 0 -10 5 -10 10 0 6 5 10 10 10 6 0 10 -4 10 -10z"/>
<path d="M6570 4799 c1 -38 47 -95 100 -122 51 -26 62 -28 145 -25 125 6 187
41 209 118 7 22 5 21 -12 -6 -30 -47 -68 -72 -130 -85 -126 -26 -248 12 -289
90 -13 24 -23 38 -23 30z"/>
<path d="M7060 4791 c0 -29 45 -90 82 -111 72 -41 237 -39 299 3 37 25 65 61
74 97 4 17 -1 12 -17 -15 -37 -64 -95 -90 -198 -90 -117 0 -172 22 -211 83
-16 25 -29 40 -29 33z"/>
<path d="M6105 4755 c15 -69 91 -112 177 -102 52 7 138 53 138 75 0 17 -15 15
-31 -4 -41 -49 -157 -65 -219 -29 -19 12 -43 36 -53 55 -19 35 -19 35 -12 5z"/>
<path d="M4690 4750 c0 -23 35 -62 71 -81 66 -33 161 -19 216 33 35 33 27 40
-13 13 -86 -59 -181 -55 -241 10 -18 19 -33 30 -33 25z"/>
<path d="M3310 4719 c0 -5 5 -7 10 -4 6 3 10 8 10 11 0 2 -4 4 -10 4 -5 0 -10
-5 -10 -11z"/>
<path d="M5001 4698 c-1 -24 12 -29 86 -31 45 -1 68 2 70 11 4 9 -15 12 -70
12 -51 0 -77 4 -80 13 -3 7 -6 6 -6 -5z"/>
<path d="M5650 4677 c0 -10 17 -12 67 -11 93 4 96 24 4 24 -52 0 -71 -4 -71
-13z"/>
<path d="M6422 4678 c6 -17 148 -17 148 0 0 8 -22 12 -76 12 -53 0 -75 -3 -72
-12z"/>
<path d="M3271 4604 c0 -11 3 -14 6 -6 3 7 2 16 -1 19 -3 4 -6 -2 -5 -13z"/>
<path d="M4622 4542 c-15 -36 -51 -53 -124 -59 -32 -3 -55 -10 -52 -14 9 -15
98 -10 134 9 33 16 65 62 58 82 -2 6 -9 -3 -16 -18z"/>
<path d="M3130 4545 c0 -8 5 -15 10 -15 6 0 10 7 10 15 0 8 -4 15 -10 15 -5 0
-10 -7 -10 -15z"/>
<path d="M4783 4423 c-7 -2 -13 -14 -13 -26 0 -20 1 -20 13 -2 10 12 22 16 40
13 19 -4 27 -1 27 8 0 14 -41 18 -67 7z"/>
<path d="M6196 4400 c-31 -10 -72 -44 -88 -74 -8 -14 -3 -31 18 -74 21 -41 30
-75 32 -124 l4 -68 -181 0 c-114 0 -181 -4 -181 -10 0 -6 68 -10 184 -10 l183
0 55 -62 c31 -35 76 -88 102 -118 26 -30 51 -55 56 -55 5 0 55 56 113 125
l104 125 5 73 c4 52 13 87 32 124 l27 51 -29 36 c-57 71 -126 86 -206 47 l-55
-27 -30 22 c-32 24 -101 33 -145 19z"/>
<path d="M3695 4370 c-3 -5 -15 -10 -27 -10 -15 0 -18 -4 -13 -17 4 -10 12
-31 17 -46 14 -37 26 -23 32 36 4 47 2 55 -9 37z"/>
<path d="M4566 4253 c-15 -16 -3 -24 32 -21 20 2 36 7 35 13 -3 11 -57 18 -67
8z"/>
<path d="M4770 4244 c0 -10 12 -14 40 -14 27 0 40 4 40 14 0 9 -13 14 -40 14
-28 1 -40 -3 -40 -14z"/>
<path d="M5054 4250 c-26 -10 -64 -57 -64 -79 1 -10 6 -6 16 11 19 35 43 48
91 48 47 0 80 -22 99 -64 7 -17 13 -25 14 -18 1 33 -30 80 -63 95 -38 19 -61
20 -93 7z"/>
<path d="M5865 4246 c-17 -7 -36 -25 -43 -40 -17 -38 -16 -38 17 -5 24 24 38
29 76 29 38 0 52 -5 76 -29 32 -33 34 -33 18 3 -12 26 -64 56 -96 56 -10 -1
-32 -7 -48 -14z"/>
<path d="M6794 4246 c-30 -13 -64 -69 -50 -83 3 -3 6 1 6 10 0 27 49 57 94 57
46 0 83 -21 96 -54 7 -18 9 -18 9 -3 1 31 -19 58 -54 73 -42 17 -61 17 -101 0z"/>
<path d="M5574 4220 c-26 -10 -54 -48 -53 -70 0 -10 4 -7 11 7 14 28 66 53
113 53 21 0 34 4 30 10 -7 12 -72 12 -101 0z"/>
<path d="M7314 4220 c-25 -10 -54 -48 -54 -70 1 -9 7 -4 15 11 16 29 60 49
106 49 16 0 29 5 29 10 0 12 -67 12 -96 0z"/>
<path d="M6730 4050 c0 -6 66 -10 179 -10 109 0 182 4 186 10 4 7 -58 10 -179
10 -117 0 -186 -4 -186 -10z"/>
<path d="M5326 3977 c-37 -98 -138 -155 -256 -144 -97 8 -161 52 -199 137 -11
25 -21 39 -21 32 0 -28 44 -103 80 -136 44 -40 92 -56 169 -56 115 0 195 50
231 147 11 30 19 57 17 60 -2 2 -12 -16 -21 -40z"/>
<path d="M5670 3999 c1 -59 87 -156 159 -177 49 -15 133 -15 182 -1 47 14 104
61 125 101 22 42 11 45 -16 5 -71 -103 -237 -127 -353 -50 -28 19 -51 46 -69
82 -16 30 -28 48 -28 40z"/>
<path d="M6610 3968 c0 -9 15 -36 33 -60 107 -143 354 -128 427 25 16 33 16
36 3 17 -68 -98 -183 -141 -293 -110 -58 16 -127 66 -149 107 -11 21 -20 30
-21 21z"/>
<path d="M2777 3881 c-9 -16 -17 -33 -17 -38 0 -4 9 7 21 26 11 18 18 35 17
37 -2 2 -12 -10 -21 -25z"/>
<path d="M2636 3871 c-3 -4 6 -6 19 -3 14 2 25 6 25 8 0 8 -39 4 -44 -5z"/>
<path d="M4635 3840 c-4 -6 15 -11 49 -11 31 -1 61 -2 68 -3 6 -1 13 5 16 12
5 15 -123 17 -133 2z"/>
<path d="M5383 3838 c4 -13 97 -20 125 -10 33 11 5 22 -59 22 -52 0 -70 -3
-66 -12z"/>
<path d="M7123 3838 c5 -17 129 -17 135 0 3 9 -17 12 -68 12 -53 0 -71 -3 -67
-12z"/>
<path d="M2700 3802 c-19 -20 -26 -29 -14 -19 11 9 23 15 26 12 2 -3 10 6 16
20 6 14 11 25 9 25 -1 0 -18 -17 -37 -38z"/>
<path d="M2519 3773 c-13 -16 -12 -17 4 -4 9 7 17 15 17 17 0 8 -8 3 -21 -13z"/>
<path d="M2726 3773 c-6 -14 -5 -15 5 -6 7 7 10 15 7 18 -3 3 -9 -2 -12 -12z"/>
<path d="M2690 3765 c-7 -9 -11 -17 -9 -20 3 -2 10 5 17 15 14 24 10 26 -8 5z"/>
<path d="M2645 3749 c-4 -6 -5 -12 -2 -15 2 -3 7 2 10 11 7 17 1 20 -8 4z"/>
<path d="M2706 3733 c-6 -14 -5 -15 5 -6 7 7 10 15 7 18 -3 3 -9 -2 -12 -12z"/>
<path d="M2830 3739 c0 -5 5 -7 10 -4 6 3 10 8 10 11 0 2 -4 4 -10 4 -5 0 -10
-5 -10 -11z"/>
<path d="M2420 3659 c-7 -11 -10 -23 -7 -25 2 -2 9 7 15 21 14 30 7 33 -8 4z"/>
<path d="M2666 3653 c-6 -14 -5 -15 5 -6 7 7 10 15 7 18 -3 3 -9 -2 -12 -12z"/>
<path d="M2795 3639 c-4 -6 -5 -12 -2 -15 2 -3 7 2 10 11 7 17 1 20 -8 4z"/>
<path d="M6324 3626 c-3 -8 -16 -17 -30 -20 -31 -8 -31 -24 1 -32 23 -6 25
-11 25 -65 0 -32 2 -59 4 -59 2 0 11 -3 20 -6 14 -5 16 7 16 95 0 84 -3 101
-15 101 -9 0 -18 -6 -21 -14z"/>
<path d="M6440 3631 c0 -7 -11 -17 -25 -23 -30 -13 -33 -38 -5 -38 16 0 20 -7
21 -37 2 -84 3 -88 24 -88 19 0 20 7 20 95 0 82 -2 95 -17 98 -10 2 -18 -1
-18 -7z"/>
<path d="M2396 3603 c-6 -14 -5 -15 5 -6 7 7 10 15 7 18 -3 3 -9 -2 -12 -12z"/>
<path d="M6865 3592 c-26 -5 -45 -21 -45 -38 0 -16 36 -19 45 -4 8 12 35 13
35 1 0 -5 -12 -12 -27 -16 -16 -4 -34 -11 -40 -17 -17 -13 -17 -53 0 -66 10
-8 61 -10 109 -3 10 1 8 102 -2 121 -10 19 -43 28 -75 22z m35 -96 c0 -21 -20
-30 -33 -17 -9 9 -8 14 3 21 21 14 30 12 30 -4z"/>
<path d="M7018 3592 l-38 -3 0 -74 c0 -68 1 -73 20 -68 16 4 20 14 20 49 0 38
4 46 25 54 23 9 85 10 85 1 0 -2 -13 -19 -30 -38 -16 -18 -30 -40 -30 -48 0
-15 36 -22 93 -16 48 4 50 29 2 33 l-35 3 28 30 c16 17 31 40 34 53 6 21 3 22
-53 22 -33 0 -59 -4 -59 -10 0 -14 -18 -12 -22 3 -2 7 -17 11 -40 9z"/>
<path d="M7259 3588 c-59 -20 -65 -115 -9 -138 53 -22 98 0 107 53 10 65 -36
106 -98 85z m49 -45 c4 -10 7 -24 6 -30 -1 -7 -2 -17 -3 -23 -1 -14 -34 -13
-48 1 -6 6 -10 18 -7 25 2 8 6 21 9 29 6 20 32 19 43 -2z"/>
<path d="M6587 3583 c-2 -5 -4 -37 -3 -73 2 -57 4 -65 21 -65 17 0 20 8 23 53
3 44 6 52 23 52 16 0 19 -7 19 -49 0 -40 3 -50 20 -54 18 -5 20 0 20 47 0 57
5 67 26 59 9 -3 14 -21 14 -53 0 -38 4 -49 19 -53 23 -6 28 16 21 88 l-5 50
-97 3 c-53 1 -99 -1 -101 -5z"/>
<path d="M2605 3549 c-4 -6 -5 -12 -2 -15 2 -3 7 2 10 11 7 17 1 20 -8 4z"/>
<path d="M2555 3460 c-9 -16 -13 -30 -11 -30 3 0 12 14 21 30 9 17 13 30 11
30 -3 0 -12 -13 -21 -30z"/>
<path d="M2222 3429 c-13 -16 -20 -29 -15 -29 9 1 47 50 41 54 -1 2 -13 -10
-26 -25z"/>
<path d="M2261 3378 c-10 -30 -9 -31 4 -14 8 11 15 26 15 33 0 22 -8 14 -19
-19z"/>
<path d="M2383 3293 c-16 -21 -37 -52 -46 -69 l-16 -32 30 2 c18 1 40 13 57
31 26 28 26 28 1 7 -26 -23 -52 -31 -31 -10 7 7 12 16 12 21 0 5 -10 -2 -21
-17 -12 -15 -23 -25 -26 -22 -7 7 16 45 54 87 19 21 31 39 26 39 -5 0 -23 -17
-40 -37z"/>
<path d="M2220 3307 c-14 -11 -25 -37 -16 -37 2 0 11 11 20 25 18 28 18 30 -4
12z"/>
<path d="M2439 3273 c-13 -16 -12 -17 4 -4 16 13 21 21 13 21 -2 0 -10 -8 -17
-17z"/>
<path d="M2177 3271 c9 -11 6 -21 -14 -47 -14 -19 -29 -32 -33 -29 -12 8 -2
-57 10 -69 8 -8 9 -4 2 14 -7 20 -3 32 25 71 31 43 32 47 16 60 -15 11 -16 11
-6 0z"/>
<path d="M2099 3243 c-13 -16 -12 -17 4 -4 16 13 21 21 13 21 -2 0 -10 -8 -17
-17z"/>
<path d="M2565 3241 c-3 -5 -1 -12 5 -16 5 -3 10 1 10 9 0 18 -6 21 -15 7z"/>
<path d="M2097 3176 c-4 -10 -4 -23 0 -28 3 -7 1 -8 -5 -4 -6 4 -18 -5 -28
-19 -9 -13 -20 -22 -25 -19 -5 3 -9 -3 -9 -14 0 -30 -11 -33 -32 -9 l-19 22
16 -27 c17 -28 13 -68 -7 -68 -5 0 -7 -7 -4 -16 3 -9 2 -12 -5 -9 -6 4 -8 -2
-3 -18 7 -29 -9 -67 -20 -48 -4 6 -2 11 3 11 6 0 11 8 11 18 0 14 -4 12 -20
-8 -11 -14 -18 -33 -16 -43 2 -9 0 -15 -5 -12 -4 3 -18 -13 -29 -35 -12 -23
-46 -77 -76 -120 -50 -72 -68 -120 -45 -120 5 0 12 8 16 19 6 21 40 62 46 57
2 -1 12 6 22 16 9 10 12 18 7 18 -11 0 32 71 64 105 34 37 49 66 52 100 4 45
42 132 61 139 8 4 11 11 7 18 -6 10 -4 10 8 0 14 -11 16 -10 14 13 -2 14 1 28
7 32 6 4 7 1 2 -7 -5 -9 -4 -11 3 -6 20 12 30 40 22 60 -6 18 -7 18 -13 2z
m-143 -272 c3 -8 2 -12 -4 -9 -6 3 -10 10 -10 16 0 14 7 11 14 -7z"/>
<path d="M2046 3172 c-3 -5 1 -9 9 -9 8 0 12 4 9 9 -3 4 -7 8 -9 8 -2 0 -6 -4
-9 -8z"/>
<path d="M2302 3160 c-18 -29 -15 -38 4 -12 9 13 14 25 12 27 -2 2 -9 -5 -16
-15z"/>
<path d="M7981 3169 c-13 -5 -32 -7 -42 -4 -11 4 -19 2 -19 -4 0 -6 -7 -11
-15 -11 -8 0 -24 -6 -35 -12 -16 -11 -22 -9 -34 7 -14 20 -15 20 -36 -5 -16
-19 -23 -21 -29 -11 -14 23 -44 8 -53 -27 -5 -17 -15 -32 -23 -32 -7 0 -20 -9
-27 -19 -8 -11 -27 -21 -43 -23 -27 -3 -30 -7 -30 -38 1 -19 4 -46 9 -59 6
-16 5 -21 -3 -17 -6 4 -11 3 -11 -3 0 -6 17 -13 38 -16 70 -12 73 -14 59 -36
-10 -17 -9 -22 6 -30 9 -6 17 -16 17 -23 0 -8 14 -16 30 -18 17 -3 30 -2 30 2
0 11 121 43 170 46 86 4 175 15 205 24 17 4 83 12 148 15 l117 7 0 48 0 48
-39 -19 c-22 -10 -43 -24 -46 -29 -4 -6 -25 -10 -48 -10 -23 1 -61 -2 -83 -6
-49 -8 -111 20 -93 42 9 11 -14 65 -43 101 -7 9 -5 24 6 48 24 51 18 70 -24
72 -19 1 -46 -2 -59 -8z m66 -291 c-3 -8 -6 -5 -6 6 -1 11 2 17 5 13 3 -3 4
-12 1 -19z m-110 -20 c-3 -7 -5 -2 -5 12 0 14 2 19 5 13 2 -7 2 -19 0 -25z"/>
<path d="M2256 3059 c-14 -33 -26 -63 -26 -66 0 -13 44 51 45 66 1 9 5 26 9
39 14 43 -2 21 -28 -39z"/>
<path d="M2115 3099 c-4 -6 -5 -12 -2 -15 2 -3 7 2 10 11 7 17 1 20 -8 4z"/>
<path d="M2203 3078 c-16 -18 -49 -62 -73 -98 -26 -40 -33 -55 -17 -39 14 14
32 39 40 55 9 16 29 45 46 64 25 29 32 33 41 20 8 -12 10 -11 10 8 0 30 -11
28 -47 -10z"/>
<path d="M2320 3083 c-33 -14 -48 -48 -25 -57 9 -3 15 1 15 10 0 9 10 24 23
35 22 18 16 23 -13 12z"/>
<path d="M8065 3080 c-3 -5 -1 -10 4 -10 6 0 11 5 11 10 0 6 -2 10 -4 10 -3 0
-8 -4 -11 -10z"/>
<path d="M2463 3055 c0 -8 4 -12 9 -9 5 3 6 10 3 15 -9 13 -12 11 -12 -6z"/>
<path d="M2350 3045 c0 -8 2 -15 4 -15 2 0 6 7 10 15 3 8 1 15 -4 15 -6 0 -10
-7 -10 -15z"/>
<path d="M2417 3013 c7 -52 13 -54 13 -5 0 23 -4 42 -9 42 -5 0 -7 -17 -4 -37z"/>
<path d="M2081 3031 c-8 -5 -16 -17 -17 -26 -1 -9 1 -14 4 -10 4 4 6 9 4 12
-2 3 5 11 15 19 20 15 16 19 -6 5z"/>
<path d="M2401 2994 c0 -11 3 -14 6 -6 3 7 2 16 -1 19 -3 4 -6 -2 -5 -13z"/>
<path d="M7370 2961 c0 -5 -18 -26 -40 -47 -42 -41 -49 -64 -25 -84 10 -9 12
-17 5 -30 -5 -9 -6 -20 -3 -24 8 -7 -25 -8 -53 0 -15 4 -20 12 -17 28 6 31
-28 41 -55 16 -27 -25 -54 -9 -29 18 23 26 22 52 -3 52 -11 0 -20 -3 -20 -7 0
-5 -11 -9 -25 -9 -25 -2 -33 10 -15 21 6 3 10 15 10 27 0 18 -4 20 -32 14 -48
-9 -81 -34 -75 -57 3 -12 -1 -20 -14 -24 -13 -5 -18 -13 -14 -24 3 -9 -1 -26
-9 -36 -12 -16 -11 -25 5 -63 11 -24 19 -48 19 -53 0 -5 9 -28 19 -52 10 -23
22 -50 25 -60 3 -10 10 -15 16 -12 5 3 10 -1 10 -10 0 -9 5 -13 10 -10 6 3 10
17 10 31 0 13 5 24 10 24 9 0 14 -14 11 -32 -1 -10 11 -10 27 1 10 6 10 10 -3
21 -12 10 -13 15 -4 21 17 10 39 0 39 -18 0 -11 7 -14 23 -10 19 5 18 2 -9
-22 -18 -16 -39 -33 -48 -38 -10 -5 -18 -20 -19 -34 -1 -23 -13 -39 -30 -39
-5 0 -5 5 -2 10 3 6 1 10 -4 10 -9 0 -16 -27 -13 -52 1 -3 -17 -4 -38 -1 -36
5 -40 3 -40 -15 0 -24 -15 -37 -25 -22 -3 5 -1 10 4 10 6 0 11 5 11 10 0 6 -7
10 -15 10 -8 0 -15 -9 -15 -20 0 -14 -7 -20 -23 -20 -33 0 -66 -27 -62 -50 5
-25 -12 -35 -31 -19 -13 10 -20 8 -42 -14 -15 -15 -21 -27 -14 -27 6 0 12 4
12 9 0 13 42 21 59 11 9 -5 11 -10 5 -10 -5 0 -19 -6 -29 -14 -17 -13 -18 -15
-3 -30 16 -15 20 -15 57 0 23 9 41 20 41 25 0 5 11 9 25 9 14 0 28 7 31 15 4
9 11 15 18 14 30 -4 56 3 75 19 l22 17 -22 13 c-11 8 -18 9 -14 3 7 -13 -14
-14 -33 -3 -9 6 -3 13 20 24 54 26 128 48 141 42 7 -2 22 4 32 16 10 11 24 20
31 20 7 0 17 7 22 15 4 9 19 17 33 17 13 1 32 8 42 16 19 16 24 3 6 -15 -7 -7
5 -6 30 3 23 8 47 12 52 8 5 -3 16 0 24 6 8 7 24 10 36 7 22 -6 69 11 69 24 0
13 46 59 53 53 3 -3 1 -14 -6 -25 -14 -23 -5 -33 23 -24 16 5 19 10 11 18 -18
18 -13 33 14 45 28 13 32 34 11 55 -10 9 -11 18 -5 24 6 6 5 14 -4 21 -10 9
-18 7 -35 -8 -12 -11 -24 -20 -28 -20 -4 0 -16 -7 -26 -17 -16 -14 -18 -15
-18 0 0 26 -20 30 -61 11 -49 -22 -50 -50 -1 -46 24 1 32 -2 32 -14 0 -12 6
-15 28 -10 l27 6 -24 -20 c-16 -14 -33 -19 -47 -16 -24 6 -54 -16 -54 -40 0
-21 -40 -18 -41 4 -3 42 -1 68 6 87 6 13 -6 7 -38 -20 -26 -22 -47 -42 -47
-46 0 -4 -28 -6 -62 -5 -48 1 -63 -2 -63 -13 0 -14 -63 -56 -71 -48 -3 2 11
16 30 31 22 17 33 32 29 41 -4 11 -1 13 11 9 10 -4 18 0 22 10 3 9 10 13 15
10 5 -3 7 -10 4 -15 -8 -12 2 -11 26 2 14 7 18 16 14 30 -4 13 -2 19 8 19 8 0
17 -9 20 -20 3 -11 0 -20 -6 -20 -6 0 -8 -3 -4 -6 5 -5 55 26 85 54 23 21 6
25 -22 6 -31 -19 -37 -17 -30 13 4 12 12 19 19 17 7 -3 15 2 19 11 3 9 11 13
17 10 5 -4 18 -1 27 7 9 8 36 22 58 32 46 20 50 44 11 71 -21 15 -20 25 5 29
35 5 55 46 22 46 -9 0 -14 6 -11 13 2 6 9 11 14 10 5 -1 10 9 11 23 2 24 -12
33 -23 14 -9 -15 -25 -12 -19 3 8 21 -19 44 -58 50 -21 3 -38 2 -38 -2z m0
-91 c0 -5 -2 -10 -4 -10 -3 0 -8 5 -11 10 -3 6 -1 10 4 10 6 0 11 -4 11 -10z
m70 6 c0 -3 -4 -8 -10 -11 -5 -3 -10 -1 -10 4 0 6 5 11 10 11 6 0 10 -2 10 -4z
m-246 -81 c3 -8 1 -15 -4 -15 -6 0 -10 7 -10 15 0 8 2 15 4 15 2 0 6 -7 10
-15z m9 -325 c-3 -12 -8 -19 -11 -16 -5 6 5 36 12 36 2 0 2 -9 -1 -20z m-19
-45 c-7 -18 -16 -19 -32 -3 -9 9 -12 9 -12 0 0 -7 -5 -12 -10 -12 -6 0 -3 11
7 24 14 18 22 22 35 15 10 -5 15 -16 12 -24z m-302 -107 c-7 -7 -12 -8 -12 -2
0 14 12 26 19 19 2 -3 -1 -11 -7 -17z m83 3 c8 -14 -13 -24 -33 -16 -14 5 -14
7 -2 15 19 12 27 12 35 1z m-30 -40 c3 -5 1 -12 -5 -16 -5 -3 -10 1 -10 9 0
18 6 21 15 7z"/>
<path d="M1863 2849 c-23 -43 -37 -81 -32 -84 5 -4 9 0 9 7 0 8 16 44 36 81
20 38 34 70 33 72 -2 2 -23 -32 -46 -76z"/>
<path d="M8250 2850 c20 -13 57 -13 65 0 4 6 -11 10 -37 10 -31 0 -39 -3 -28
-10z"/>
<path d="M8365 2850 c-3 -5 1 -10 10 -10 9 0 13 5 10 10 -3 6 -8 10 -10 10 -2
0 -7 -4 -10 -10z"/>
<path d="M2030 2819 c-7 -11 -10 -23 -7 -25 2 -2 9 7 15 21 14 30 7 33 -8 4z"/>
<path d="M8270 2814 c14 -7 35 -13 47 -14 26 0 42 20 16 21 -10 1 -34 2 -53 4
-34 3 -34 3 -10 -11z"/>
<path d="M8040 2810 c0 -6 -6 -10 -12 -9 -33 4 -78 -2 -78 -11 0 -5 13 -7 30
-3 20 3 30 1 30 -6 0 -7 7 -19 15 -27 13 -14 16 -14 21 -1 3 9 19 16 37 16 91
2 111 17 29 23 -25 2 -42 8 -42 16 0 6 -7 12 -15 12 -8 0 -15 -5 -15 -10z"/>
<path d="M8210 2810 c20 -13 33 -13 25 0 -3 6 -14 10 -23 10 -15 0 -15 -2 -2
-10z"/>
<path d="M990 2785 c0 -21 28 -31 43 -16 9 9 8 14 -3 21 -22 14 -40 12 -40 -5z"/>
<path d="M7797 2793 c-15 -15 -6 -33 18 -33 13 0 29 -8 34 -17 9 -15 12 -16
20 -3 5 8 7 18 5 22 -3 4 9 8 25 8 17 0 31 4 31 9 0 12 -39 21 -46 10 -7 -12
-64 -11 -64 1 0 11 -13 13 -23 3z"/>
<path d="M8180 2791 c0 -6 6 -13 13 -18 8 -5 2 -10 -18 -14 -29 -7 -29 -7 -7
-14 14 -5 21 -13 18 -21 -3 -8 -3 -14 0 -14 12 0 51 25 73 47 27 27 20 44 -11
24 -11 -7 -17 -8 -14 -3 3 6 -1 13 -10 16 -23 9 -44 7 -44 -3z m49 -52 c-15
-9 -32 -2 -24 11 3 5 13 6 21 3 12 -4 13 -8 3 -14z"/>
<path d="M8366 2791 c-4 -7 -14 -10 -22 -7 -8 3 -14 1 -14 -5 0 -7 10 -9 25
-5 18 5 25 2 25 -9 0 -8 -9 -15 -19 -15 -11 0 -23 -4 -26 -10 -3 -5 -15 -10
-25 -10 -10 0 -21 -4 -24 -9 -3 -4 17 -9 45 -10 29 0 48 3 44 9 -3 5 3 17 15
27 23 20 26 33 6 33 -8 0 -16 5 -18 12 -3 9 -6 9 -12 -1z"/>
<path d="M7706 2763 c-3 -4 -16 -8 -29 -10 -36 -6 -45 -23 -11 -23 17 0 36 6
43 13 10 10 12 9 11 -3 -4 -28 0 -40 14 -40 8 0 17 6 19 13 3 6 6 2 6 -10 1
-31 16 -29 52 8 29 30 29 30 6 27 -13 -1 -32 5 -41 15 -18 17 -57 23 -70 10z"/>
<path d="M1996 2745 c-9 -26 -7 -32 5 -12 6 10 9 21 6 23 -2 3 -7 -2 -11 -11z"/>
<path d="M7520 2740 c0 -5 0 -13 1 -17 0 -3 -12 -12 -28 -19 -24 -10 -25 -13
-11 -19 10 -4 31 -2 47 3 22 8 31 7 34 -1 2 -7 8 -8 13 -4 5 4 2 12 -6 18 -13
8 -13 10 0 19 8 5 11 10 6 10 -5 0 -17 -7 -26 -15 -16 -14 -18 -14 -23 0 -4 8
-2 15 3 15 6 0 10 5 10 10 0 6 -4 10 -10 10 -5 0 -10 -4 -10 -10z"/>
<path d="M8118 2718 c17 -8 26 -8 34 0 9 9 4 12 -22 11 -33 0 -34 -1 -12 -11z"/>
<path d="M7665 2710 c-3 -5 3 -10 14 -10 12 0 21 5 21 10 0 6 -6 10 -14 10 -8
0 -18 -4 -21 -10z"/>
<path d="M7436 2682 c-2 -4 4 -9 15 -9 11 -1 17 2 14 8 -7 11 -22 12 -29 1z"/>
<path d="M2270 2649 c-9 -15 -8 -24 1 -35 16 -19 21 -18 43 14 l19 27 -25 -23
c-17 -15 -28 -20 -33 -13 -3 6 -2 11 2 11 5 0 9 9 10 20 2 26 -3 25 -17 -1z"/>
<path d="M7740 2660 c0 -12 48 -25 58 -16 8 9 -18 26 -40 26 -10 0 -18 -4 -18
-10z"/>
<path d="M8150 2650 c0 -5 5 -10 10 -10 6 0 10 5 10 10 0 6 -4 10 -10 10 -5 0
-10 -4 -10 -10z"/>
<path d="M1816 2642 c-2 -4 4 -8 14 -8 10 0 16 4 14 8 -3 4 -9 8 -14 8 -5 0
-11 -4 -14 -8z"/>
<path d="M8077 2633 c-15 -14 -6 -31 13 -26 11 3 20 12 20 19 0 14 -22 19 -33
7z"/>
<path d="M7690 2619 c0 -5 5 -7 10 -4 6 3 10 8 10 11 0 2 -4 4 -10 4 -5 0 -10
-5 -10 -11z"/>
<path d="M7720 2619 c0 -4 7 -9 15 -13 8 -3 15 -12 15 -21 0 -8 8 -15 18 -16
14 0 14 -2 -3 -9 -18 -7 -18 -9 -3 -15 10 -4 27 0 40 9 12 9 18 16 13 16 -6 0
1 6 15 13 14 7 25 19 25 27 0 12 -15 15 -67 16 -38 0 -68 -3 -68 -7z m117 -25
c-3 -3 -12 -4 -19 -1 -8 3 -5 6 6 6 11 1 17 -2 13 -5z"/>
<path d="M7977 2608 c-15 -5 -25 -13 -22 -17 2 -5 -7 -14 -20 -21 -14 -7 -25
-17 -25 -22 0 -5 14 -1 31 7 17 9 36 14 43 12 7 -3 19 -1 27 5 11 8 10 9 -3 4
-10 -3 -18 -1 -18 5 0 6 9 13 20 16 22 6 28 23 8 22 -7 0 -25 -5 -41 -11z"/>
<path d="M2184 2599 c-4 -7 -3 -9 4 -5 5 3 12 0 15 -6 2 -7 7 -10 11 -7 4 3 0
12 -8 18 -11 9 -16 9 -22 0z"/>
<path d="M1605 2590 c-11 -18 -14 -50 -4 -50 5 0 9 3 10 8 0 4 2 17 3 30 3 24
0 27 -9 12z"/>
<path d="M7885 2580 c3 -5 8 -10 11 -10 2 0 4 5 4 10 0 6 -5 10 -11 10 -5 0
-7 -4 -4 -10z"/>
<path d="M7835 2560 c3 -5 8 -10 11 -10 2 0 4 5 4 10 0 6 -5 10 -11 10 -5 0
-7 -4 -4 -10z"/>
<path d="M7710 2550 c-12 -8 -11 -10 8 -10 12 0 22 5 22 10 0 13 -11 13 -30 0z"/>
<path d="M8267 2553 c-10 -9 -9 -23 2 -23 5 0 11 7 15 15 5 15 -5 20 -17 8z"/>
<path d="M7410 2539 c0 -5 5 -7 10 -4 6 3 10 8 10 11 0 2 -4 4 -10 4 -5 0 -10
-5 -10 -11z"/>
<path d="M7863 2525 c-14 -10 -24 -12 -28 -5 -3 5 -11 10 -16 10 -6 0 -7 -5
-3 -11 4 -8 -3 -9 -24 -4 -18 3 -33 2 -37 -4 -3 -6 -14 -11 -23 -11 -15 1 -14
3 3 17 20 15 19 15 -5 9 -14 -3 -31 -6 -37 -6 -20 0 -15 -20 5 -21 10 0 12 -3
5 -6 -26 -10 -13 -33 17 -33 17 0 30 4 30 8 0 9 2 10 71 13 49 2 97 29 85 48
-9 15 -17 14 -43 -4z"/>
<path d="M7060 2521 c-8 -6 -19 -7 -25 -3 -5 3 -4 -2 4 -11 10 -13 18 -14 32
-6 10 5 19 14 19 19 0 12 -11 12 -30 1z"/>
<path d="M1710 2510 c0 -5 5 -10 10 -10 6 0 10 5 10 10 0 6 -4 10 -10 10 -5 0
-10 -4 -10 -10z"/>
<path d="M7645 2490 c-3 -5 1 -10 10 -10 9 0 13 5 10 10 -3 6 -8 10 -10 10 -2
0 -7 -4 -10 -10z"/>
<path d="M7577 2470 c-3 -11 -2 -20 2 -20 3 0 12 9 19 20 10 16 10 20 -2 20
-7 0 -16 -9 -19 -20z"/>
<path d="M7391 2446 c-8 -9 -19 -16 -25 -16 -11 0 -46 -34 -46 -45 0 -3 13 -5
29 -5 37 0 121 43 112 58 -12 19 -57 24 -70 8z"/>
<path d="M6891 2434 c-7 -8 -11 -18 -8 -20 6 -7 47 18 47 28 0 13 -24 8 -39
-8z"/>
<path d="M7239 2408 c-9 -17 -8 -19 17 -16 33 4 43 23 14 31 -14 3 -24 -1 -31
-15z"/>
<path d="M6855 2400 c-3 -5 -3 -15 1 -21 6 -11 23 6 24 24 0 10 -18 9 -25 -3z"/>
<path d="M7100 2365 c-7 -9 -11 -17 -9 -19 7 -7 49 13 49 24 0 15 -26 12 -40
-5z"/>
<path d="M6795 2333 l-30 -14 30 6 c31 7 41 12 34 19 -2 2 -17 -3 -34 -11z"/>
<path d="M7350 2336 c0 -2 13 -6 29 -8 17 -2 28 -1 25 4 -5 8 -54 12 -54 4z"/>
<path d="M2050 2319 c0 -5 5 -7 10 -4 6 3 10 8 10 11 0 2 -4 4 -10 4 -5 0 -10
-5 -10 -11z"/>
<path d="M7220 2284 c0 -8 5 -12 10 -9 6 3 10 10 10 16 0 5 -4 9 -10 9 -5 0
-10 -7 -10 -16z"/>
<path d="M8160 2269 c0 -5 5 -7 10 -4 6 3 10 8 10 11 0 2 -4 4 -10 4 -5 0 -10
-5 -10 -11z"/>
<path d="M1948 2249 c-22 -23 -22 -26 -3 -26 8 0 12 4 9 9 -3 4 -1 8 4 8 6 0
12 7 16 15 7 20 -5 18 -26 -6z"/>
<path d="M7405 2250 c3 -5 10 -10 16 -10 5 0 9 5 9 10 0 6 -7 10 -16 10 -8 0
-12 -4 -9 -10z"/>
<path d="M7460 2250 c0 -5 5 -10 11 -10 5 0 7 5 4 10 -3 6 -8 10 -11 10 -2 0
-4 -4 -4 -10z"/>
<path d="M6655 2220 c-4 -6 -11 -8 -16 -5 -5 4 -9 1 -9 -5 0 -6 8 -14 18 -17
9 -4 20 -10 23 -15 3 -5 16 1 29 12 23 20 23 20 2 20 -12 0 -22 5 -22 10 0 13
-17 13 -25 0z"/>
<path d="M6735 2210 c-3 -5 1 -10 9 -10 8 0 18 5 21 10 3 6 -1 10 -9 10 -8 0
-18 -4 -21 -10z"/>
<path d="M8170 2208 c0 -18 18 -34 28 -24 3 4 -2 14 -11 23 -16 16 -17 16 -17
1z"/>
<path d="M6410 2186 c0 -8 6 -17 13 -19 9 -4 9 -6 0 -6 -6 -1 -15 4 -18 9 -3
6 -16 10 -28 9 -21 0 -21 -1 -2 -8 16 -7 10 -10 -27 -16 -27 -4 -48 -11 -48
-16 0 -4 21 -14 48 -22 l47 -13 -48 -8 c-31 -5 -53 -4 -61 4 -10 8 -15 7 -20
-5 -4 -12 2 -15 29 -15 18 0 37 -4 40 -10 3 -5 25 -10 48 -10 37 0 39 1 22 14
-17 12 -16 14 13 31 17 10 29 22 26 27 -3 4 2 5 11 2 16 -7 55 25 55 45 0 14
-22 19 -47 10 -13 -5 -25 -4 -28 1 -9 15 -25 12 -25 -4z"/>
<path d="M6562 2173 c2 -10 6 -20 10 -23 10 -8 -2 -50 -14 -50 -5 0 -7 12 -6
26 2 16 -3 29 -11 32 -8 3 -11 0 -7 -7 4 -6 2 -11 -4 -11 -7 0 -10 -6 -7 -14
3 -8 3 -17 -1 -20 -5 -6 -11 -46 -7 -46 17 0 65 25 65 33 0 7 5 6 11 -3 8 -11
12 -12 16 -2 2 6 9 10 14 6 5 -3 9 -1 9 5 0 5 20 17 45 27 25 9 45 21 45 26 0
6 12 7 28 3 21 -5 24 -4 15 6 -9 9 -22 9 -60 -1 -26 -7 -52 -16 -57 -21 -16
-14 -71 26 -60 43 3 4 -2 8 -11 8 -10 0 -15 -7 -13 -17z"/>
<path d="M7681 2174 c0 -11 3 -14 6 -6 3 7 2 16 -1 19 -3 4 -6 -2 -5 -13z"/>
<path d="M1304 2145 c-9 -14 -20 -22 -25 -19 -6 3 -51 0 -102 -7 -51 -7 -100
-12 -109 -11 -10 0 -20 -3 -23 -9 -4 -5 -16 -9 -28 -8 -21 0 -21 1 -2 9 16 7
13 9 -17 11 -47 2 -50 3 -64 11 -5 4 -31 2 -57 -5 l-47 -12 107 -95 c58 -52
118 -106 132 -121 49 -48 115 -104 106 -90 -5 9 -4 12 6 9 8 -3 13 -12 11 -20
-1 -9 23 -37 54 -64 31 -26 52 -39 46 -28 -8 15 -5 25 15 49 14 17 22 24 19
18 -10 -18 9 -16 24 2 9 11 9 15 1 15 -7 0 -10 4 -7 9 3 5 -7 21 -22 37 -26
28 -35 42 -71 109 -9 17 -16 51 -15 76 l0 46 -45 -4 -46 -3 30 14 c17 7 49 12
72 10 23 -1 42 1 41 4 -1 4 6 24 15 45 11 25 21 36 28 31 8 -4 9 -3 5 4 -10
17 -13 15 -32 -13z m-329 -55 c3 -5 1 -10 -4 -10 -6 0 -11 5 -11 10 0 6 2 10
4 10 3 0 8 -4 11 -10z m30 -30 c3 -5 1 -10 -4 -10 -6 0 -11 5 -11 10 0 6 2 10
4 10 3 0 8 -4 11 -10z m63 -17 c-27 -7 -22 -26 12 -48 16 -11 30 -24 30 -29 0
-9 -13 1 -68 48 -24 22 -14 37 23 35 17 -1 17 -2 3 -6z m77 -111 c-3 -3 -11 0
-18 7 -9 10 -8 11 6 5 10 -3 15 -9 12 -12z m30 -22 c3 -5 1 -10 -4 -10 -6 0
-11 5 -11 10 0 6 2 10 4 10 3 0 8 -4 11 -10z"/>
<path d="M6608 2163 c7 -3 16 -2 19 1 4 3 -2 6 -13 5 -11 0 -14 -3 -6 -6z"/>
<path d="M7648 2163 c7 -3 16 -2 19 1 4 3 -2 6 -13 5 -11 0 -14 -3 -6 -6z"/>
<path d="M8150 2149 c0 -6 8 -18 17 -27 16 -16 16 -16 10 1 -4 10 -7 23 -7 28
0 5 -4 9 -10 9 -5 0 -10 -5 -10 -11z"/>
<path d="M7695 2140 c-3 -5 -1 -10 4 -10 6 0 11 5 11 10 0 6 -2 10 -4 10 -3 0
-8 -4 -11 -10z"/>
<path d="M8291 2121 c-10 -7 -10 -10 -1 -16 7 -4 16 -2 20 5 5 9 9 9 13 1 4
-8 5 -8 3 1 -3 16 -18 20 -35 9z"/>
<path d="M8100 2110 c0 -5 5 -10 10 -10 6 0 10 5 10 10 0 6 -4 10 -10 10 -5 0
-10 -4 -10 -10z"/>
<path d="M5228 2083 c7 -3 16 -2 19 1 4 3 -2 6 -13 5 -11 0 -14 -3 -6 -6z"/>
<path d="M6150 2068 c0 -12 88 -9 95 2 4 7 -11 10 -44 8 -28 -2 -51 -6 -51
-10z"/>
<path d="M6720 2070 c-12 -8 -12 -10 2 -15 19 -7 38 1 38 16 0 12 -21 11 -40
-1z"/>
<path d="M7845 2070 c-3 -5 -2 -10 4 -10 5 0 13 5 16 10 3 6 2 10 -4 10 -5 0
-13 -4 -16 -10z"/>
<path d="M6480 2045 c0 -8 7 -15 16 -15 14 0 14 3 4 15 -7 8 -14 15 -16 15 -2
0 -4 -7 -4 -15z"/>
<path d="M6555 2050 c-3 -6 1 -7 9 -4 18 7 21 14 7 14 -6 0 -13 -4 -16 -10z"/>
<path d="M8226 2041 c-3 -5 0 -11 8 -14 15 -6 26 1 26 15 0 11 -27 10 -34 -1z"/>
<path d="M1930 2025 c-7 -9 -10 -18 -6 -22 3 -3 6 -1 6 6 0 7 4 10 8 7 5 -3 9
1 9 9 0 19 -2 19 -17 0z"/>
<path d="M6195 2030 c3 -5 8 -10 11 -10 2 0 4 5 4 10 0 6 -5 10 -11 10 -5 0
-7 -4 -4 -10z"/>
<path d="M8353 2015 l-21 -25 25 6 c23 6 25 4 20 -15 -3 -11 -1 -24 5 -27 5
-3 7 -12 4 -20 -3 -8 -1 -14 5 -14 6 0 7 -4 4 -10 -3 -5 -1 -18 4 -27 8 -14
10 -1 11 50 0 37 -4 67 -9 67 -5 0 -7 9 -4 20 7 28 -17 25 -44 -5z"/>
<path d="M8136 1995 c4 -8 10 -12 15 -9 11 6 2 24 -11 24 -5 0 -7 -7 -4 -15z"/>
<path d="M8006 1984 c-9 -23 -8 -24 19 -24 23 0 24 2 13 20 -15 24 -24 25 -32
4z"/>
<path d="M7935 1980 c-3 -5 -1 -10 4 -10 6 0 11 5 11 10 0 6 -2 10 -4 10 -3 0
-8 -4 -11 -10z"/>
<path d="M8080 1972 c-8 -3 -20 -12 -26 -20 -6 -8 -16 -12 -22 -8 -6 3 -13 2
-17 -4 -4 -6 5 -10 21 -10 27 0 27 -1 8 -14 -13 -10 -14 -14 -4 -12 19 2 58
25 45 26 -5 0 -4 4 3 9 18 11 11 39 -8 33z"/>
<path d="M1864 1936 c-10 -22 -10 -24 6 -14 10 7 16 18 13 25 -7 17 -6 17 -19
-11z"/>
<path d="M6134 1946 c-10 -8 -16 -17 -13 -20 10 -10 39 5 39 20 0 17 -2 17
-26 0z"/>
<path d="M8332 1949 c2 -6 8 -10 13 -10 5 0 11 4 13 10 2 6 -4 11 -13 11 -9 0
-15 -5 -13 -11z"/>
<path d="M8182 1934 c10 -10 20 -16 22 -13 3 3 -5 11 -17 18 -21 13 -21 12 -5
-5z"/>
<path d="M5367 1913 c-3 -5 11 -9 31 -10 26 -1 32 1 22 7 -18 12 -47 13 -53 3z"/>
<path d="M6055 1910 c-3 -5 1 -10 9 -10 8 0 18 5 21 10 3 6 -1 10 -9 10 -8 0
-18 -4 -21 -10z"/>
<path d="M5177 1889 c-19 -21 -22 -33 -8 -24 5 3 12 1 16 -5 3 -5 33 -10 65
-10 65 0 93 -7 84 -22 -4 -5 -10 -5 -18 1 -7 6 -17 6 -26 1 -11 -7 -8 -11 13
-19 15 -6 27 -17 27 -26 0 -8 7 -15 16 -15 9 0 12 5 8 12 -4 6 2 17 12 25 19
14 19 14 -1 11 -11 -2 -20 2 -20 7 -2 30 -25 52 -50 48 -15 -3 -25 -1 -25 6 0
6 -9 11 -21 11 -11 0 -28 4 -38 9 -13 7 -22 5 -34 -10z"/>
<path d="M5478 1893 c7 -3 16 -2 19 1 4 3 -2 6 -13 5 -11 0 -14 -3 -6 -6z"/>
<path d="M2980 1876 c14 -8 36 -15 49 -16 30 0 18 15 -12 16 -12 1 -31 4 -42
8 -13 5 -11 2 5 -8z"/>
<path d="M5378 1883 c7 -3 16 -2 19 1 4 3 -2 6 -13 5 -11 0 -14 -3 -6 -6z"/>
<path d="M5607 1883 c-12 -12 -7 -22 8 -17 8 4 15 10 15 15 0 11 -14 12 -23 2z"/>
<path d="M5812 1873 c-7 -13 -19 -23 -27 -23 -7 0 -17 -5 -21 -12 -4 -7 -3 -8
4 -4 22 13 12 -12 -10 -27 l-23 -15 25 -10 c19 -7 26 -6 28 5 2 8 10 12 17 9
7 -2 20 1 28 7 12 10 13 19 3 52 -12 39 -12 39 -24 18z"/>
<path d="M8046 1873 c-6 -14 -5 -15 5 -6 7 7 10 15 7 18 -3 3 -9 -2 -12 -12z"/>
<path d="M5406 1871 c-3 -5 2 -12 11 -14 11 -3 8 -5 -9 -6 -16 0 -28 4 -28 9
0 6 -4 10 -8 10 -5 0 -9 -7 -9 -15 0 -8 7 -15 14 -15 8 0 21 -7 29 -15 9 -8
22 -15 30 -15 8 0 14 7 14 15 0 8 5 15 10 15 6 0 9 -6 8 -12 -3 -14 36 -23 60
-13 15 6 15 8 -3 18 -19 11 -19 11 5 17 l25 6 -24 13 c-18 10 -22 10 -16 0 6
-9 -1 -11 -31 -7 -21 4 -46 9 -55 13 -10 3 -20 2 -23 -4z"/>
<path d="M5765 1870 c3 -5 10 -10 16 -10 5 0 9 5 9 10 0 6 -7 10 -16 10 -8 0
-12 -4 -9 -10z"/>
<path d="M3115 1840 c3 -5 11 -10 16 -10 6 0 7 5 4 10 -3 6 -11 10 -16 10 -6
0 -7 -4 -4 -10z"/>
<path d="M3180 1837 c19 -6 37 -14 40 -18 3 -4 14 -8 25 -11 12 -2 19 -10 17
-20 -1 -9 2 -19 8 -23 5 -3 10 -15 10 -26 0 -10 4 -19 8 -19 5 0 9 -13 10 -28
0 -15 2 -33 4 -39 2 -6 -10 -22 -25 -37 -15 -14 -24 -26 -20 -26 5 0 14 5 20
11 8 8 13 8 17 0 4 -6 14 -11 22 -11 11 0 14 15 13 73 -3 89 5 117 34 118 l22
0 -23 11 c-16 8 -29 8 -47 0 -20 -9 -23 -9 -18 3 6 18 -42 40 -107 48 -45 5
-45 5 -10 -6z m130 -76 c0 -17 -18 -21 -24 -6 -3 9 0 15 9 15 8 0 15 -4 15 -9z"/>
<path d="M1117 1783 c3 -7 6 -13 8 -13 2 0 5 6 8 13 3 8 -1 14 -8 14 -7 0 -11
-6 -8 -14z"/>
<path d="M5370 1791 c0 -10 24 -21 43 -21 7 0 3 7 -7 15 -22 17 -36 19 -36 6z"/>
<path d="M5451 1781 c-15 -10 -8 -15 32 -25 19 -4 26 -3 22 4 -3 5 -12 10 -20
10 -7 0 -15 4 -17 10 -2 5 -9 6 -17 1z"/>
<path d="M3010 1762 c0 -4 9 -8 20 -8 11 0 20 4 20 8 0 4 -9 8 -20 8 -11 0
-20 -4 -20 -8z"/>
<path d="M3455 1757 c27 -18 65 -27 65 -16 0 11 -43 29 -68 29 -14 0 -13 -2 3
-13z"/>
<path d="M1450 1731 c0 -5 7 -11 15 -15 8 -3 15 -1 15 3 0 5 -7 11 -15 15 -8
3 -15 1 -15 -3z"/>
<path d="M3555 1730 c3 -5 10 -10 16 -10 5 0 9 5 9 10 0 6 -7 10 -16 10 -8 0
-12 -4 -9 -10z"/>
<path d="M5380 1724 c0 -8 5 -12 10 -9 6 3 10 10 10 16 0 5 -4 9 -10 9 -5 0
-10 -7 -10 -16z"/>
<path d="M4198 1706 c-13 -10 -15 -15 -6 -24 18 -18 35 -14 33 8 -2 27 -7 30
-27 16z"/>
<path d="M4350 1710 c0 -5 5 -10 10 -10 6 0 10 5 10 10 0 6 -4 10 -10 10 -5 0
-10 -4 -10 -10z"/>
<path d="M4397 1706 c-3 -8 2 -20 11 -28 15 -12 16 -11 3 5 -9 11 -10 17 -2
17 6 0 11 5 11 10 0 15 -17 12 -23 -4z"/>
<path d="M3350 1670 c8 -5 20 -10 25 -10 6 0 3 5 -5 10 -8 5 -19 10 -25 10 -5
0 -3 -5 5 -10z"/>
<path d="M3676 1657 c3 -10 9 -15 12 -12 3 3 0 11 -7 18 -10 9 -11 8 -5 -6z"/>
<path d="M4095 1660 l-30 -8 37 -1 c20 0 40 4 43 9 7 11 -6 11 -50 0z"/>
<path d="M3771 1656 c3 -3 20 -7 40 -9 19 -2 40 -7 47 -11 8 -5 10 -2 6 8 -4
11 -20 16 -52 16 -25 0 -43 -2 -41 -4z"/>
<path d="M3390 1640 c0 -5 6 -10 14 -10 8 0 18 5 21 10 3 6 -3 10 -14 10 -12
0 -21 -4 -21 -10z"/>
<path d="M3885 1640 c-7 -12 19 -12 55 0 22 7 21 8 -12 9 -20 1 -40 -3 -43 -9z"/>
<path d="M4395 1639 c-9 -14 -2 -20 14 -10 8 6 9 11 3 15 -6 3 -14 1 -17 -5z"/>
<path d="M3055 1630 c-19 -7 -18 -8 5 -14 50 -11 149 -12 139 0 -5 6 -28 11
-51 12 -23 1 -49 4 -58 6 -8 3 -24 1 -35 -4z"/>
<path d="M4350 1630 c0 -5 4 -10 9 -10 6 0 13 5 16 10 3 6 -1 10 -9 10 -9 0
-16 -4 -16 -10z"/>
<path d="M4270 1620 c0 -5 4 -10 9 -10 6 0 13 5 16 10 3 6 -1 10 -9 10 -9 0
-16 -4 -16 -10z"/>
<path d="M1137 1599 c-4 -14 -10 -18 -19 -13 -11 6 -11 5 0 -8 7 -9 11 -28 7
-45 -3 -15 -3 -23 1 -16 9 19 35 3 29 -18 -3 -11 -8 -29 -11 -40 -10 -33 14
-13 30 26 8 19 13 42 11 52 -2 10 -4 23 -4 28 -1 6 -5 3 -10 -5 -6 -8 -7 -18
-4 -24 3 -5 1 -6 -6 -2 -6 4 -9 12 -5 17 3 5 1 16 -6 24 -7 9 -8 15 0 20 12 8
13 25 1 25 -5 0 -11 -9 -14 -21z"/>
<path d="M1019 1595 c-1 -3 -2 -8 -3 -12 -1 -5 -5 -15 -10 -23 -7 -12 -6 -13
4 -3 13 12 23 43 14 43 -2 0 -5 -2 -5 -5z"/>
<path d="M3630 1581 c0 -4 11 -6 25 -3 14 2 25 6 25 8 0 2 -11 4 -25 4 -14 0
-25 -4 -25 -9z"/>
<path d="M3745 1570 c3 -5 10 -10 16 -10 5 0 9 5 9 10 0 6 -7 10 -16 10 -8 0
-12 -4 -9 -10z"/>
<path d="M3785 1570 c-3 -5 3 -10 14 -10 12 0 21 5 21 10 0 6 -6 10 -14 10 -8
0 -18 -4 -21 -10z"/>
<path d="M3927 1569 c7 -7 15 -10 18 -7 3 3 -2 9 -12 12 -14 6 -15 5 -6 -5z"/>
<path d="M3933 1523 c9 -9 20 -13 24 -9 4 4 1 11 -7 16 -25 16 -35 11 -17 -7z"/>
<path d="M1095 1459 c-4 -6 -14 -8 -22 -4 -13 4 -14 3 -3 -10 14 -17 35 -21
25 -5 -3 6 1 10 9 10 9 0 16 5 16 10 0 13 -17 13 -25 -1z"/>
<path d="M968 1443 c-23 -28 -30 -43 -19 -43 6 0 11 7 11 16 0 8 4 13 9 10 5
-3 11 3 14 14 6 24 4 25 -15 3z"/>
<path d="M1038 1427 c8 -9 11 -21 7 -27 -4 -6 0 -19 9 -29 9 -10 16 -24 14
-31 -2 -7 3 -15 10 -17 6 -3 13 2 13 11 2 25 4 30 13 44 12 19 -1 27 -19 12
-13 -10 -15 -9 -15 8 0 12 -10 27 -22 33 -21 11 -22 11 -10 -4z"/>
<path d="M915 1420 c-3 -5 -1 -10 4 -10 6 0 11 5 11 10 0 6 -2 10 -4 10 -3 0
-8 -4 -11 -10z"/>
<path d="M1135 1400 c-9 -16 -13 -30 -11 -30 3 0 12 14 21 30 9 17 13 30 11
30 -3 0 -12 -13 -21 -30z"/>
<path d="M992 1288 c0 -22 3 -28 14 -24 17 6 19 -10 2 -20 -6 -4 -17 1 -25 11
-11 16 -13 17 -13 3 0 -9 5 -20 10 -23 7 -4 7 -13 0 -24 -6 -12 -5 -22 3 -31
9 -10 9 -11 0 -6 -7 4 -13 3 -13 -3 0 -6 -7 -8 -15 -5 -16 7 -11 43 7 55 7 4
7 9 1 12 -6 4 -20 -3 -31 -14 l-22 -20 22 -34 c13 -18 26 -29 29 -23 4 6 9 6
12 1 3 -5 -5 -21 -19 -36 -14 -15 -21 -27 -17 -27 13 0 29 14 37 30 4 8 15 31
26 50 10 19 14 36 10 38 -5 2 -2 15 6 30 18 36 18 48 -5 71 -18 18 -18 17 -19
-11z"/>
<path d="M1055 1300 c-3 -5 1 -10 9 -10 9 0 16 5 16 10 0 6 -4 10 -9 10 -6 0
-13 -4 -16 -10z"/>
<path d="M2240 1296 c0 -2 7 -6 15 -10 8 -3 15 -1 15 4 0 6 -7 10 -15 10 -8 0
-15 -2 -15 -4z"/>
<path d="M781 1228 c11 -21 -1 -24 -20 -5 -11 10 -13 9 -7 -6 3 -10 6 -32 6
-49 0 -24 3 -29 16 -24 12 5 15 2 10 -11 -6 -17 -5 -16 8 0 14 18 14 18 19 0
4 -17 5 -17 6 0 0 10 6 15 11 12 7 -4 9 2 5 18 -4 16 -2 26 8 30 8 3 17 15 20
26 5 21 -3 28 -17 14 -12 -13 -57 -10 -52 2 2 7 -2 12 -9 12 -10 0 -11 -5 -4
-19z m36 -33 c7 -19 2 -24 -26 -30 -24 -4 -25 -1 -11 26 13 23 28 25 37 4z"/>
<path d="M2200 1229 c0 -15 18 -19 23 -6 3 8 -1 14 -9 14 -8 0 -14 -4 -14 -8z"/>
<path d="M690 1198 c0 -4 4 -8 9 -8 6 0 12 4 15 8 3 5 -1 9 -9 9 -8 0 -15 -4
-15 -9z"/>
<path d="M895 1080 c-3 -5 -1 -10 4 -10 6 0 11 5 11 10 0 6 -2 10 -4 10 -3 0
-8 -4 -11 -10z"/>
<path d="M887 1049 c7 -7 15 -10 18 -7 3 3 -2 9 -12 12 -14 6 -15 5 -6 -5z"/>
<path d="M1020 1055 c0 -23 15 -33 27 -19 8 8 9 15 3 19 -6 3 -10 0 -10 -7 0
-9 -3 -9 -10 2 -5 8 -10 11 -10 5z"/>
<path d="M820 1000 c-12 -7 -10 -9 7 -7 12 0 19 5 17 9 -6 10 -6 10 -24 -2z"/>
<path d="M1016 1002 c-3 -5 1 -9 9 -9 8 0 15 4 15 9 0 4 -4 8 -9 8 -6 0 -12
-4 -15 -8z"/>
<path d="M1030 954 c0 -8 5 -12 10 -9 6 4 8 11 5 16 -9 14 -15 11 -15 -7z"/>
<path d="M5 639 c-4 -6 -5 -12 -2 -15 2 -3 7 2 10 11 7 17 1 20 -8 4z"/>
</g>
</svg>
