<?xml version="1.0" standalone="no"?>
<!DOCTYPE svg PUBLIC "-//W3C//DTD SVG 20010904//EN"
 "http://www.w3.org/TR/2001/REC-SVG-20010904/DTD/svg10.dtd">
<svg version="1.0" xmlns="http://www.w3.org/2000/svg"
 width="530.000000pt" height="530.000000pt" viewBox="0 0 530.000000 530.000000"
 preserveAspectRatio="xMidYMid meet">

<g transform="translate(0.000000,530.000000) scale(0.100000,-0.100000)"
fill="#000000" stroke="none">
<path d="M1090 4968 c0 -14 6 -29 13 -31 10 -4 10 -6 0 -6 -9 -1 -13 -18 -13
-50 0 -39 4 -51 18 -54 16 -4 16 -5 0 -6 -27 -2 -26 -106 1 -121 27 -14 30
-13 26 9 -5 27 18 43 63 46 74 5 133 18 148 32 13 14 17 13 37 -3 18 -16 19
-16 8 -2 -11 15 -10 20 3 33 9 9 20 13 26 10 5 -3 10 -1 10 5 0 6 8 14 18 18
9 4 44 36 77 72 39 43 46 53 20 30 l-40 -35 -114 0 c-76 0 -116 4 -118 11 -2
6 5 14 17 17 11 3 20 13 19 24 -1 17 -1 17 -6 0 -4 -14 -11 -17 -29 -13 -14 4
-24 2 -24 -4 0 -5 -13 -10 -29 -10 -23 0 -30 5 -33 23 -2 18 -10 23 -40 25
-26 2 -38 -1 -38 -10 0 -9 -3 -9 -10 2 -8 12 -10 9 -10 -12z m67 -44 c-3 -3
-12 -4 -19 -1 -8 3 -5 6 6 6 11 1 17 -2 13 -5z m288 -36 c17 -16 -92 -88 -128
-84 -15 2 -24 0 -21 -5 2 -4 -12 -11 -33 -14 -56 -10 -53 -10 -112 -1 l-54 7
27 15 c34 17 37 17 34 2 -4 -15 40 -19 49 -5 4 6 -2 8 -15 5 -24 -7 -28 7 -12
32 8 12 10 12 10 -5 0 -17 2 -17 10 -5 7 11 5 18 -5 26 -8 6 -15 15 -15 19 0
5 11 -2 25 -15 14 -13 26 -20 26 -17 1 4 3 12 4 17 1 6 3 15 4 21 0 5 5 8 10
4 5 -3 12 -2 15 3 4 7 174 8 181 0z m-325 -153 c-7 -9 -15 -13 -19 -10 -3 3 1
10 9 15 21 14 24 12 10 -5z"/>
<path d="M1290 4865 c0 -8 4 -15 10 -15 5 0 7 7 4 15 -4 8 -8 15 -10 15 -2 0
-4 -7 -4 -15z"/>
<path d="M1365 4849 c-4 -6 -5 -12 -2 -15 2 -3 7 2 10 11 7 17 1 20 -8 4z"/>
<path d="M1210 4976 c-18 -18 -10 -25 21 -16 16 5 37 6 45 3 8 -3 14 1 14 9 0
17 -63 21 -80 4z"/>
<path d="M1717 4977 c3 -4 -11 -5 -31 -2 -37 7 -71 -8 -60 -26 3 -5 -2 -9 -10
-9 -9 0 -16 -7 -16 -16 0 -8 -5 -12 -10 -9 -6 4 -9 1 -8 -7 4 -15 39 -38 50
-32 5 3 8 0 8 -5 0 -6 -4 -11 -10 -11 -16 0 -11 -17 7 -24 9 -4 21 -1 27 5 8
9 7 10 -7 6 -14 -5 -16 -2 -11 20 5 19 2 30 -12 40 -14 11 -15 14 -4 13 32 -5
61 0 55 9 -3 6 -14 8 -24 6 -11 -2 -22 3 -25 12 -5 11 -2 13 9 9 9 -3 13 -2
10 4 -9 14 8 12 30 -4 20 -14 49 -11 39 5 -3 5 -1 9 5 9 5 0 11 -6 14 -12 3
-7 5 -4 4 7 -1 13 -8 21 -18 21 -10 0 -15 -4 -12 -9z"/>
<path d="M1847 4976 c-4 -10 -1 -13 9 -9 15 6 19 23 5 23 -5 0 -11 -7 -14 -14z"/>
<path d="M2420 4984 c0 -7 28 -35 35 -34 20 1 24 -2 19 -14 -6 -17 12 -31 21
-16 4 6 11 8 16 4 6 -3 5 3 -3 15 -7 12 -20 21 -29 21 -9 0 -19 7 -23 15 -5
14 -36 22 -36 9z"/>
<path d="M2715 4974 c12 -9 13 -13 4 -16 -9 -3 -7 -6 4 -11 9 -3 17 -2 17 4 0
6 5 7 10 4 6 -3 10 -1 10 4 0 6 4 11 10 11 5 0 6 -8 3 -17 -6 -16 -5 -16 10
-4 30 24 19 36 -33 36 -40 0 -47 -2 -35 -11z"/>
<path d="M2820 4980 c-8 -5 -11 -10 -7 -10 5 0 2 -7 -7 -15 -9 -9 -12 -23 -9
-33 6 -16 6 -16 -11 1 -9 9 -24 17 -33 17 -10 0 -13 -6 -9 -17 5 -16 4 -16 -6
-3 -7 9 -19 15 -25 14 -7 -1 -17 -2 -23 -3 -18 -2 -11 -28 13 -45 12 -9 15
-14 7 -11 -8 4 -6 -1 4 -9 11 -9 25 -16 31 -16 13 0 80 -34 100 -50 17 -14 21
0 5 16 -7 7 -6 11 5 11 8 0 15 -3 16 -6 0 -3 2 -18 4 -33 3 -21 0 -26 -12 -21
-11 4 -14 2 -9 -6 4 -6 14 -10 23 -9 9 2 30 -18 51 -47 19 -27 31 -40 28 -27
-6 16 -3 22 8 22 9 0 16 -5 16 -11 0 -6 5 -7 13 -2 6 4 21 6 32 5 15 -2 17 -1
6 6 -11 8 -11 11 0 18 20 13 59 12 51 -1 -3 -5 2 -4 11 4 15 12 17 11 17 -3 0
-9 3 -15 8 -15 4 1 18 1 31 0 24 -1 24 -1 4 -18 -11 -10 -22 -26 -26 -36 -6
-15 -11 -16 -29 -7 -21 10 -21 10 -5 -3 20 -17 23 -31 3 -24 -18 7 -10 -30 12
-55 14 -16 13 -18 -7 -18 -15 0 -21 5 -19 17 2 14 -4 18 -29 18 -32 0 -51 10
-40 21 4 4 13 1 21 -5 12 -10 15 -9 13 6 -1 15 -7 18 -29 15 -23 -4 -26 -7
-17 -23 5 -10 15 -19 21 -19 5 0 8 -9 5 -20 -3 -11 -1 -17 4 -14 6 3 7 -7 4
-25 -7 -40 18 -43 38 -5 9 17 17 23 21 15 4 -6 3 -11 -2 -11 -5 0 -12 -9 -15
-20 -3 -11 -1 -20 3 -20 5 0 8 -13 8 -30 l-1 -30 -19 22 c-14 16 -21 19 -28
10 -6 -7 -7 -10 -3 -7 10 8 29 -26 48 -87 11 -35 23 -58 32 -58 8 0 11 -4 8
-10 -10 -16 0 -12 24 9 13 11 20 25 16 30 -3 7 0 8 9 5 20 -8 20 -23 1 -30
-12 -5 -13 -10 -4 -20 6 -8 8 -14 5 -14 -14 0 21 -28 40 -32 18 -5 18 -5 1
-13 -19 -8 -61 30 -51 47 3 5 -3 4 -15 -4 -21 -13 -23 -33 -3 -33 5 0 14 -4
19 -9 5 -5 3 -6 -4 -2 -20 11 -16 1 34 -103 41 -86 47 -93 54 -71 6 22 7 21 7
-10 0 -19 7 -53 15 -75 28 -71 14 -174 -21 -160 -8 3 -21 0 -28 -6 -10 -8 -14
-8 -14 -1 0 6 -9 9 -20 7 -36 -7 -50 5 -50 42 0 20 -4 32 -10 28 -6 -4 -10 7
-10 25 0 51 -21 118 -44 143 -13 14 -37 51 -55 83 -17 33 -24 50 -14 38 10
-11 26 -21 35 -21 16 0 16 2 0 31 -9 17 -15 34 -14 38 1 4 -10 3 -24 -2 -22
-9 -25 -8 -20 5 3 8 2 15 -3 15 -9 0 -23 39 -27 79 -2 13 -12 33 -22 45 -11
11 -30 41 -42 66 -12 25 -30 53 -38 63 -14 16 -14 19 -2 27 11 7 17 3 23 -15
5 -14 15 -25 23 -25 8 0 14 -4 14 -9 0 -13 49 -8 54 6 3 7 0 15 -6 19 -7 4 -8
3 -4 -4 4 -7 4 -12 -1 -12 -10 1 -47 50 -37 50 4 0 12 -7 19 -16 10 -15 13
-15 28 1 10 9 14 21 11 27 -4 7 -2 8 4 4 14 -8 15 3 3 22 -6 10 -18 11 -49 4
-22 -5 -43 -7 -47 -4 -3 3 -5 1 -5 -5 0 -6 -6 -13 -14 -16 -11 -4 -10 1 2 26
12 23 17 27 20 16 2 -11 10 -15 23 -12 10 3 19 9 19 12 0 4 10 7 23 6 12 -1
26 0 30 2 14 8 -15 33 -39 33 -23 0 -114 -38 -146 -62 -13 -10 -22 -6 -52 20
-20 18 -40 32 -44 32 -4 -1 11 -16 33 -36 39 -33 39 -35 20 -49 -34 -27 -146
-138 -183 -183 -33 -40 -36 -42 -53 -26 -14 13 -16 20 -8 31 9 10 7 13 -10 13
-15 0 -20 -4 -15 -12 5 -10 4 -10 -6 -1 -18 17 -23 53 -7 54 6 0 4 4 -6 7 -15
6 -16 10 -5 25 10 14 19 16 37 9 35 -13 65 -4 103 29 l33 30 -32 -16 c-48 -23
-81 -19 -114 14 -37 37 -38 74 -3 106 28 26 79 31 119 13 20 -9 20 -9 1 6 -25
20 -86 21 -112 1 -10 -8 -27 -15 -36 -15 -10 0 -22 -9 -28 -19 -14 -28 -12
-36 5 -21 13 11 15 8 15 -17 0 -16 7 -39 16 -51 9 -13 13 -26 10 -29 -8 -8
-37 17 -35 31 4 35 -2 47 -20 41 -14 -4 -23 1 -32 16 -10 20 -8 25 12 42 13
11 24 22 24 26 0 3 3 5 8 3 4 -1 6 4 5 10 -2 7 2 12 9 11 7 -2 10 3 8 10 -3 6
14 32 37 57 23 25 38 41 33 37 -5 -4 -14 2 -20 13 -10 19 -13 19 -24 7 -9 -12
-9 -17 0 -23 8 -4 9 -3 5 4 -4 7 -2 12 3 12 22 0 10 -28 -31 -71 -24 -24 -47
-42 -51 -41 -5 1 -6 -2 -2 -8 13 -21 -12 -9 -38 18 -28 29 -27 44 1 36 13 -4
12 -2 -2 6 -13 9 -20 9 -25 2 -4 -7 -12 -8 -21 -2 -27 17 -41 11 -22 -8 9 -11
20 -17 24 -15 4 2 9 -1 13 -7 3 -5 -1 -10 -10 -10 -9 0 -13 -5 -10 -10 5 -8
11 -7 21 1 12 10 19 8 36 -9 20 -20 20 -22 5 -46 -11 -16 -23 -23 -32 -20 -8
4 -12 10 -9 15 9 15 -13 10 -26 -6 -7 -8 -16 -12 -21 -9 -5 3 -9 1 -9 -4 0 -5
9 -12 20 -15 12 -3 18 -1 14 5 -4 6 -1 9 5 7 7 -3 12 -8 11 -12 -8 -35 -14
-47 -21 -47 -5 0 -9 4 -9 10 0 5 -13 16 -30 25 -42 22 -51 18 -12 -5 17 -11
32 -28 32 -38 0 -26 -11 -34 -27 -21 -9 8 -13 8 -13 1 0 -6 4 -13 10 -17 13
-8 1 -35 -17 -35 -9 0 -13 6 -9 15 3 9 0 15 -10 15 -14 0 -22 -14 -39 -69 -6
-20 -4 -23 9 -18 10 4 16 1 16 -8 0 -13 -19 -20 -43 -16 -5 1 -5 -3 -2 -9 4
-6 13 -9 21 -6 16 6 20 -29 4 -39 -6 -4 -7 -11 -4 -17 4 -7 2 -8 -4 -4 -16 10
-15 36 1 36 8 0 7 4 -3 10 -24 16 -33 12 -26 -12 4 -13 8 -30 11 -39 2 -9 -10
-44 -27 -78 -17 -34 -30 -73 -30 -86 0 -14 -4 -22 -9 -19 -5 3 -9 0 -9 -6 0
-7 -12 -26 -26 -43 -22 -26 -25 -38 -21 -74 3 -29 0 -46 -9 -54 -21 -18 -18
-129 6 -191 26 -68 18 -75 -11 -9 -12 28 -26 51 -31 51 -5 0 -6 4 -3 10 3 6
-1 7 -9 4 -9 -3 -13 -10 -10 -15 3 -5 -2 -6 -10 -3 -11 4 -13 0 -9 -15 4 -15
0 -21 -11 -22 -30 -3 -34 -4 -43 -13 -5 -5 -3 -6 5 -2 6 4 12 2 12 -3 0 -6 -9
-11 -21 -11 -11 0 -18 -4 -14 -10 3 -5 12 -7 20 -4 23 9 38 -5 24 -22 -8 -10
-23 -13 -43 -9 -27 4 -28 4 -8 -5 12 -5 22 -18 22 -30 0 -11 7 -20 16 -20 8 0
12 5 9 10 -3 6 1 13 10 16 9 4 14 12 12 19 -3 6 1 12 9 12 18 0 18 1 -7 -41
-12 -20 -19 -36 -17 -36 11 0 48 38 48 49 0 7 4 10 9 6 5 -3 13 0 16 5 5 7 12
5 21 -7 13 -17 15 -16 18 9 2 25 26 18 42 -14 9 -19 11 -28 4 -21 -10 10 -19
9 -39 -1 -14 -7 -48 -23 -75 -35 -30 -13 -45 -25 -38 -30 7 -4 5 -11 -8 -19
-12 -7 -20 -8 -20 -2 0 18 -36 10 -64 -14 -23 -19 -25 -24 -12 -29 8 -3 18 -2
21 3 10 17 21 11 22 -12 0 -13 -1 -17 -4 -10 -3 6 -9 12 -14 12 -6 0 -7 -6 -3
-12 5 -9 2 -9 -9 1 -17 13 -18 12 -21 -11 0 -6 -8 -13 -16 -15 -9 -3 -11 -1
-5 4 9 7 11 18 6 38 0 4 -9 2 -18 -3 -20 -12 -25 -52 -6 -52 8 0 12 -4 9 -9
-4 -5 7 -4 23 2 17 6 28 14 25 18 -2 4 4 6 13 4 21 -3 45 14 37 26 -3 5 -1 9
5 9 5 0 11 -8 13 -17 3 -14 -16 -26 -77 -54 -44 -20 -85 -32 -90 -28 -6 4 -17
3 -25 -3 -12 -8 -12 -9 2 -4 10 3 20 1 23 -4 3 -5 -5 -12 -19 -16 -14 -3 -30
-12 -37 -20 -8 -10 -3 -9 21 2 23 12 35 13 43 5 7 -7 4 -13 -13 -19 -22 -8
-22 -9 -4 -16 17 -6 14 -10 -21 -32 -42 -25 -60 -30 -51 -15 4 5 -3 7 -14 4
-16 -4 -18 -9 -9 -19 14 -17 3 -34 -21 -31 -28 5 -33 13 -20 36 15 29 8 27
-71 -24 -38 -25 -72 -45 -74 -45 -15 0 0 18 30 38 30 19 34 26 29 50 -11 45
-10 46 19 46 20 -1 27 4 27 17 0 11 -4 19 -10 19 -5 0 -10 -4 -10 -10 0 -5
-15 -8 -32 -6 -32 3 -33 4 -39 62 -4 38 -6 47 -7 24 l-2 -35 -14 27 c-19 35
-25 184 -8 180 7 -1 12 8 12 20 0 19 -2 20 -11 8 -8 -12 -9 -9 -5 13 4 16 2
27 -4 27 -16 0 -38 58 -42 110 -3 40 -1 45 17 43 15 -2 14 0 -5 8 -14 6 -33
15 -42 20 -10 5 -24 9 -33 9 -9 0 -12 6 -9 15 4 8 12 15 20 15 8 0 14 7 14 15
0 8 4 15 8 15 5 0 9 16 10 35 2 44 8 55 32 55 10 0 22 5 25 11 4 6 1 9 -6 8
-25 -4 -88 13 -100 27 -18 22 -2 28 26 10 19 -12 30 -14 43 -7 15 9 14 10 -8
11 -28 1 -60 21 -60 39 0 8 5 7 16 -3 8 -9 27 -16 42 -16 18 0 23 3 15 11 -6
6 -9 31 -7 57 2 26 1 41 -2 35 -3 -7 -13 -13 -22 -12 -11 0 -12 2 -4 6 6 2 10
9 6 14 -3 5 -2 9 3 8 22 -4 33 3 33 22 0 11 -5 17 -10 14 -6 -3 -10 -1 -10 4
0 6 -7 11 -15 11 -12 0 -13 3 -3 19 11 18 12 18 29 -3 15 -17 18 -18 19 -5 0
9 10 24 22 35 12 10 18 13 14 7 -9 -17 4 -16 27 1 11 9 17 27 17 52 0 27 -3
35 -9 25 -7 -12 -13 -12 -24 -3 -17 14 -27 6 -27 -22 0 -15 3 -17 8 -8 10 15
42 5 42 -13 0 -20 -19 -28 -34 -16 -7 6 -16 8 -19 4 -4 -3 -7 3 -7 15 0 12 -4
22 -9 22 -5 0 -8 -8 -7 -17 0 -10 -5 -17 -11 -16 -7 2 -12 0 -12 -5 3 -19 -2
-22 -16 -8 -8 8 -15 26 -15 39 0 22 4 25 33 23 30 -1 32 1 33 34 0 42 -6 70
-15 70 -4 0 -6 -13 -3 -29 6 -44 -13 -46 -57 -5 -43 38 -76 44 -41 7 28 -31
25 -43 -10 -43 -35 0 -38 -10 -9 -28 15 -10 19 -10 14 -1 -5 8 -4 10 4 5 8 -5
11 -24 8 -51 -4 -39 -2 -44 18 -49 17 -4 22 -11 18 -25 -3 -11 -11 -22 -19
-25 -17 -6 -17 -1 -4 24 8 15 7 18 -3 14 -9 -3 -20 8 -31 30 -9 20 -22 36 -29
36 -8 0 -9 -3 -1 -8 12 -9 13 -57 0 -69 -5 -4 -6 -3 -3 3 7 13 -17 27 -27 17
-10 -11 -7 -45 4 -38 6 3 10 1 10 -4 0 -6 -4 -11 -9 -11 -17 0 -35 -76 -20
-85 5 -4 6 -12 2 -18 -5 -7 -9 -25 -10 -42 0 -16 -2 -30 -3 -30 -1 0 -3 -10
-4 -23 -2 -16 2 -21 11 -18 7 3 13 1 13 -3 0 -12 -30 -22 -42 -15 -5 3 -8 15
-5 25 4 14 0 19 -15 19 -18 0 -19 -2 -7 -17 13 -16 12 -17 -3 -4 -10 7 -15 17
-12 22 3 5 1 9 -4 9 -8 0 -9 23 -4 68 1 6 6 12 12 12 20 0 47 33 43 51 -3 11
-10 16 -17 12 -6 -4 -20 -8 -31 -8 -44 -1 -44 -1 -45 -328 -2 -395 -4 -367 26
-423 37 -68 45 -101 29 -108 -10 -3 -20 12 -34 47 l-20 52 -3 -273 c-2 -149
-2 -272 0 -272 5 0 197 173 200 181 1 3 -4 12 -13 19 -19 16 -19 30 0 30 17 0
37 -34 27 -46 -4 -5 12 9 36 31 23 21 42 35 42 29 0 -11 -68 -78 -115 -113
-16 -13 -63 -52 -102 -88 l-73 -65 0 -80 c0 -44 3 -78 8 -76 4 2 50 28 104 58
81 46 100 61 124 102 16 26 32 48 36 48 10 0 -5 -31 -33 -72 -28 -39 -24 -41
30 -8 26 17 51 30 54 30 5 0 4 -19 -2 -63 0 -5 -5 -6 -10 -3 -5 3 -14 -1 -21
-9 -16 -19 -141 -83 -171 -87 -13 -2 -34 -9 -47 -16 -14 -8 -22 -9 -22 -2 0 5
6 10 14 10 16 0 31 18 23 26 -2 3 -23 -4 -45 -16 -34 -18 -41 -26 -44 -58 -6
-72 -2 -75 50 -45 41 23 45 24 29 6 -10 -12 -32 -27 -48 -33 -16 -7 -29 -13
-30 -14 -1 0 -3 -502 -5 -1113 l-4 -1113 1570 0 1570 0 0 590 -1 589 -37 -4
c-20 -3 -32 -2 -26 3 6 4 14 14 17 22 4 12 6 11 6 -2 1 -24 18 -23 31 2 13 25
12 570 -1 591 -7 12 -9 12 -9 0 0 -19 -13 -6 -16 17 -2 9 -6 31 -10 47 -5 25
-4 28 7 18 17 -17 42 -17 37 0 -5 12 -9 13 -48 16 -20 1 -26 24 -14 55 5 13 8
13 26 -4 12 -10 17 -24 13 -31 -5 -7 -3 -10 6 -7 18 6 26 283 9 304 -7 7 -9
17 -6 22 5 9 -31 50 -40 45 -10 -6 -34 11 -34 24 0 13 3 13 15 3 13 -11 14
-10 9 4 -3 9 -14 16 -24 16 -10 0 -23 7 -30 14 -17 21 -96 50 -115 42 -9 -3
-38 3 -63 13 -26 11 -55 22 -64 25 -14 4 -18 20 -21 83 -3 77 -3 77 -5 -20 -1
-63 2 -96 8 -92 7 4 7 -3 0 -20 -12 -32 -14 -56 -2 -38 7 12 20 8 101 -31 13
-6 34 -12 45 -12 40 -3 44 -4 49 -24 6 -23 -9 -30 -45 -19 -15 4 -56 6 -91 3
l-63 -4 2 33 c1 22 0 24 -3 7 -8 -47 -23 -46 -23 2 0 44 -2 47 -33 57 -24 8
-33 18 -35 36 -1 19 2 23 16 19 13 -5 14 -4 3 4 -9 6 -12 23 -8 51 2 22 1 38
-4 35 -8 -4 -64 24 -313 155 -32 17 -64 31 -71 31 -7 0 -37 19 -66 43 -58 47
-173 117 -192 117 -7 0 -23 9 -37 20 -14 11 -33 20 -42 20 -9 0 -19 4 -23 9
-3 6 -13 10 -23 11 -15 0 -49 4 -94 9 -10 1 -10 3 1 10 7 5 23 7 35 4 17 -3
13 3 -17 30 -34 32 -35 34 -12 29 14 -2 25 -9 25 -14 0 -5 5 -6 12 -2 6 4 17
-1 24 -11 11 -15 17 -16 36 -6 13 6 15 9 6 7 -10 -3 -18 -2 -18 3 0 10 -80 34
-118 35 -15 1 -25 4 -22 8 7 10 -89 72 -98 63 -4 -4 -2 -10 5 -12 38 -14 78
-51 78 -73 1 -15 6 -24 14 -22 7 1 10 -2 7 -7 -4 -5 2 -14 11 -20 10 -6 14
-11 8 -11 -5 0 -23 13 -40 29 -16 16 -70 50 -119 75 -48 25 -81 46 -73 46 9 0
28 -6 43 -12 22 -10 28 -10 32 0 2 7 9 9 15 5 7 -4 6 0 -1 10 -12 14 -11 17
12 23 13 3 30 3 37 -2 7 -4 9 -3 5 4 -4 7 5 9 30 5 27 -4 35 -3 30 5 -4 7 -1
12 8 12 20 0 30 -17 14 -23 -8 -3 -6 -6 5 -6 9 -1 17 5 17 12 0 9 3 8 9 -2 6
-9 11 -10 15 -2 11 17 34 13 41 -8 6 -21 46 -33 67 -20 10 7 9 9 -4 9 -10 0
-18 5 -18 10 0 6 8 10 18 11 25 1 -46 18 -91 20 -62 5 -24 24 47 24 35 0 62 3
59 8 -2 4 5 7 17 7 14 0 19 -4 14 -12 -5 -8 0 -7 11 2 11 9 16 10 11 3 -4 -8
-2 -13 4 -13 6 0 9 -4 6 -9 -7 -11 56 -24 63 -13 3 5 15 7 26 5 11 -2 27 -4
35 -3 50 4 106 -2 183 -21 48 -12 91 -19 94 -15 12 11 3 15 -82 31 -90 17
-135 29 -135 36 0 5 -7 5 -17 2 -11 -4 -14 -3 -9 5 4 7 1 12 -6 13 -7 0 -31 9
-53 19 l-40 19 38 -4 c22 -3 35 0 32 5 -4 6 -13 10 -21 10 -8 0 -14 7 -14 15
0 9 -12 28 -26 42 l-26 26 6 -24 c4 -13 4 -19 -1 -13 -4 6 -15 13 -23 16 -10
4 -3 11 22 22 43 19 52 20 43 6 -3 -5 1 -10 9 -10 9 0 16 5 16 11 0 5 5 7 12
3 7 -4 8 -3 4 5 -4 6 -10 9 -14 7 -4 -2 -16 3 -27 11 -12 9 -14 13 -5 11 8 -3
19 4 25 15 15 30 49 31 65 2 7 -14 15 -23 18 -20 9 8 42 -16 42 -30 0 -12 3
-12 18 3 17 16 16 18 -25 34 -23 10 -52 27 -63 38 -19 19 -19 20 -1 20 11 0
52 -17 93 -39 40 -21 84 -42 98 -46 14 -4 78 -32 143 -61 65 -30 120 -54 123
-54 2 0 4 7 4 15 0 8 -5 15 -12 15 -6 0 -1 8 10 19 12 10 19 21 15 25 -9 9 11
8 23 -1 6 -5 -14 16 -43 45 -30 28 -52 56 -48 61 3 5 -2 17 -11 26 -27 26 -11
26 28 0 26 -18 38 -21 42 -12 3 6 4 3 1 -9 -7 -28 32 -65 45 -44 5 8 7 23 4
33 -3 10 0 17 7 17 13 0 38 29 39 45 0 6 -14 10 -30 11 -26 1 -28 -1 -18 -14
11 -13 10 -14 -9 -3 -13 6 -23 16 -23 22 0 6 5 7 10 4 9 -5 14 6 12 25 0 3 8
6 19 6 10 0 19 -4 19 -8 0 -4 -8 -8 -17 -8 -12 0 -14 -3 -7 -10 7 -7 19 -8 37
-1 28 11 37 31 13 31 -8 0 -17 7 -20 16 -5 14 -9 14 -24 3 -16 -13 -16 -13 -2
5 14 18 13 19 -8 14 -15 -4 -22 -2 -19 5 5 15 39 10 53 -9 6 -7 13 -11 16 -9
3 3 11 -1 18 -10 7 -8 20 -15 29 -15 14 0 14 2 1 10 -12 7 -12 10 -1 10 7 0
11 6 8 14 -3 8 -1 17 6 20 7 2 4 5 -5 5 -11 1 -18 9 -18 20 0 11 -4 23 -10 26
-13 8 -13 25 1 25 5 0 8 -4 5 -9 -3 -5 1 -12 10 -15 8 -3 12 -10 9 -16 -8 -13
16 -13 35 1 12 8 12 12 2 16 -10 4 -9 10 5 25 18 20 17 20 -7 17 -16 -3 -24 0
-23 9 2 6 -7 12 -20 12 -22 1 -22 1 3 14 31 18 43 11 29 -17 -9 -19 -7 -18 10
3 16 20 21 22 21 8 0 -24 34 -40 67 -32 16 3 24 2 18 -3 -14 -12 -17 -33 -4
-33 7 0 5 -9 -4 -24 -12 -17 -13 -26 -4 -35 8 -8 7 -11 -6 -11 -9 0 -17 7 -17
16 0 10 -5 14 -15 10 -9 -3 -18 1 -21 9 -4 8 -10 13 -15 10 -4 -3 -6 -12 -3
-20 4 -8 10 -13 14 -10 18 11 20 -15 4 -40 -17 -27 -15 -28 30 -25 18 1 26 -2
22 -9 -4 -6 -20 -11 -37 -11 -16 0 -29 -4 -29 -10 0 -6 16 -8 36 -5 23 3 41
-1 50 -10 18 -17 18 -22 -1 -22 -8 0 -12 4 -9 8 2 4 0 10 -6 14 -5 3 -10 -2
-10 -12 0 -10 12 -25 26 -34 22 -14 24 -17 10 -22 -11 -5 -15 -3 -10 5 4 7 3
8 -5 4 -9 -6 -9 -11 0 -22 9 -11 8 -14 -6 -14 -12 0 -16 6 -12 19 6 23 -19 46
-53 48 -23 2 -23 1 -8 -11 10 -7 15 -15 12 -19 -3 -3 3 -8 14 -11 13 -4 18
-13 15 -24 -3 -12 5 -23 21 -32 14 -7 24 -15 21 -18 -2 -3 -11 0 -19 7 -12 10
-13 7 -6 -23 6 -28 3 -39 -17 -62 l-24 -29 5 26 c5 21 1 28 -14 32 -27 7 -32
-5 -25 -57 6 -36 10 -43 23 -38 14 5 15 4 2 -10 -8 -9 -17 -14 -19 -13 -2 2
-9 -2 -16 -8 -11 -10 -6 -14 23 -24 l37 -12 -50 1 c-27 1 -61 -2 -75 -6 -14
-4 -40 -8 -58 -9 -29 -2 -31 -3 -15 -15 10 -7 23 -10 30 -8 14 6 5 -25 -11
-36 -6 -4 -4 -9 7 -14 9 -3 17 -12 17 -20 0 -8 7 -14 15 -14 17 0 19 -9 5 -30
-6 -9 -5 -17 3 -22 17 -11 37 -10 37 1 0 5 -6 12 -12 14 -7 2 1 3 17 1 27 -3
28 -2 10 8 -11 6 -21 12 -23 13 -7 6 11 34 19 29 5 -3 9 2 9 11 0 10 -5 13
-12 9 -6 -4 -8 -3 -4 4 3 6 2 13 -4 17 -6 4 -8 10 -5 15 3 5 1 11 -5 15 -5 3
-10 -1 -10 -9 0 -23 -17 -20 -23 4 -3 11 -1 18 3 15 5 -3 12 -1 15 5 5 8 12 7
23 -2 12 -10 16 -10 19 0 6 15 29 16 39 0 4 -6 3 -8 -4 -4 -19 12 -24 -15 -6
-30 18 -14 18 -15 -5 -8 l-24 6 23 -32 c25 -35 38 -105 17 -94 -9 5 -8 3 1 -7
6 -7 12 -19 12 -27 0 -16 -24 -11 -26 6 -3 23 -4 23 -19 8 -20 -20 -19 -23 9
-30 24 -6 36 -30 36 -73 0 -23 -14 -31 -25 -13 -3 5 -12 7 -21 3 -12 -5 -12
-8 3 -20 17 -14 17 -14 0 -9 -56 18 -67 18 -67 2 0 -12 -10 -16 -35 -16 -19 0
-35 4 -35 9 0 12 -108 13 -115 1 -9 -15 -65 -12 -65 3 0 8 -30 23 -72 36 -40
13 -95 29 -121 37 -27 9 -70 28 -97 44 -26 16 -52 25 -56 22 -4 -4 -4 -1 0 5
10 18 -49 51 -104 58 -25 4 -58 9 -74 12 -20 3 -26 2 -22 -6 9 -14 77 -43 84
-36 3 2 -6 9 -19 15 -20 9 -16 10 21 6 25 -3 59 -12 75 -21 30 -17 30 -17 3
-11 -14 3 -34 9 -45 12 -10 3 8 -10 40 -30 32 -20 64 -33 70 -30 7 4 9 4 5 -1
-9 -9 121 -64 158 -67 13 -1 24 -6 24 -11 0 -5 10 -5 23 -2 16 5 18 4 8 -4
-12 -8 -9 -12 15 -23 16 -7 31 -15 34 -18 7 -9 148 -66 199 -81 33 -10 46 -10
48 -2 4 12 50 8 68 -6 5 -5 25 -11 43 -14 27 -6 119 -57 101 -57 -22 0 -68 24
-62 33 3 6 1 7 -5 3 -19 -11 -15 -15 31 -37 23 -11 34 -17 25 -15 -26 8 -22
-11 5 -26 29 -16 47 -19 47 -7 0 5 5 9 10 9 6 0 9 -5 8 -11 -2 -9 94 -69 110
-69 2 0 -6 14 -18 30 -14 20 -30 30 -48 31 -24 0 -25 1 -7 9 31 13 31 13 68
-42 19 -29 44 -62 56 -72 21 -19 21 -19 18 0 -2 10 -9 30 -17 44 -12 23 -12
24 3 11 16 -12 17 -8 17 50 -1 62 -18 107 -35 91 -5 -4 -5 -1 -1 6 5 8 0 22
-11 34 -10 12 -12 18 -5 14 8 -5 22 -22 32 -38 18 -30 18 -21 18 398 0 402 -4
457 -24 334 -7 -41 -9 -44 -23 -35 -8 4 -8 12 -1 25 5 10 12 34 14 53 6 50 16
77 27 77 5 0 9 7 9 16 0 8 -4 13 -8 10 -9 -5 -7 82 3 137 3 21 1 27 -13 27
-10 0 -13 3 -6 8 5 4 11 25 13 47 1 21 4 41 6 43 2 2 0 14 -5 26 -4 12 -13 73
-20 136 -7 63 -15 120 -20 125 -7 9 -13 33 -22 90 -3 22 -28 46 -40 39 -5 -3
-8 0 -8 5 0 6 5 11 10 11 6 0 10 5 10 11 0 5 -4 8 -8 5 -9 -5 -8 41 1 51 12
11 8 25 -5 21 -14 -5 -41 39 -32 53 3 5 1 9 -3 9 -5 0 -9 18 -9 40 1 22 2 40
3 40 1 0 9 -13 18 -30 12 -23 13 -30 3 -31 -7 0 -2 -5 12 -10 17 -7 26 -7 28
1 2 5 8 7 13 4 6 -3 2 -12 -8 -21 -12 -9 -14 -16 -7 -19 7 -3 10 -13 7 -23 -3
-10 0 -22 6 -25 6 -4 11 -18 11 -31 0 -13 5 -27 11 -31 6 -3 9 -15 6 -25 -3
-11 -2 -17 3 -14 8 5 23 -82 16 -94 -3 -4 4 -13 16 -20 19 -12 20 -10 16 54
-3 43 -10 70 -19 76 -12 8 -12 11 2 22 13 10 16 45 18 215 2 162 0 202 -11
202 -11 0 -11 2 0 9 9 5 11 17 6 34 -6 26 -9 27 -71 27 -40 0 -62 -4 -58 -10
3 -5 1 -10 -4 -10 -6 0 -11 5 -11 10 0 6 -33 10 -80 10 -44 0 -80 -3 -80 -6 0
-3 10 -19 21 -36 18 -25 19 -32 8 -39 -22 -14 -27 -11 -56 32 -21 32 -32 40
-50 36 -13 -2 -23 -1 -23 4 0 4 -183 8 -406 8 -321 1 -404 -2 -398 -12 5 -9 4
-9 -7 1 -7 6 -21 12 -31 12 -10 0 -18 -6 -18 -12 0 -8 -3 -9 -8 -3 -9 13 -103
17 -122 5z m1325 -43 c5 5 3 0 -5 -11 -11 -14 -15 -15 -18 -5 -3 8 -10 21 -16
29 -7 10 -3 9 10 -3 11 -9 25 -14 29 -10z m-1271 -2 c-4 -8 -8 -15 -10 -15 -2
0 -4 7 -4 15 0 8 4 15 10 15 5 0 7 -7 4 -15z m900 -129 c-4 -15 -3 -17 4 -7
12 16 27 -3 16 -21 -5 -7 -3 -8 6 -3 10 6 12 4 7 -9 -4 -10 -3 -15 3 -11 12 8
44 -41 35 -55 -10 -16 -31 4 -63 59 -14 25 -43 66 -64 91 -26 31 -34 47 -25
52 7 4 9 8 5 9 -5 1 -12 3 -18 4 -5 1 -13 3 -16 4 -3 0 -2 6 2 13 5 8 26 -8
61 -47 40 -44 52 -64 47 -79z m-1068 97 c-10 -10 -19 5 -10 18 6 11 8 11 12 0
2 -7 1 -15 -2 -18z m406 9 c-10 -3 -9 -8 4 -23 9 -10 13 -19 8 -18 -5 0 -19
13 -31 28 l-22 28 27 -5 c15 -3 21 -7 14 -10z m-332 -16 c0 -3 -7 -12 -16 -20
-22 -23 -37 -20 -16 3 16 18 32 26 32 17z m244 -25 c-2 -3 -12 3 -22 13 -16
17 -16 18 5 5 12 -7 20 -15 17 -18z m41 19 c3 -5 -1 -10 -10 -10 -9 0 -13 5
-10 10 3 6 8 10 10 10 2 0 7 -4 10 -10z m912 -6 c3 -9 0 -20 -8 -25 -13 -8
-11 -10 20 -13 8 0 16 -7 19 -15 3 -10 0 -12 -11 -8 -12 4 -14 2 -10 -11 3 -9
-8 2 -26 26 -17 23 -29 47 -26 52 10 16 35 12 42 -6z m-997 -19 c0 -2 -9 -3
-20 -2 -11 1 -20 7 -20 14 0 11 5 11 20 3 11 -6 20 -13 20 -15z m177 -15 c-3
-11 2 -21 11 -25 13 -5 12 -8 -4 -21 -10 -9 -13 -13 -6 -9 6 3 12 1 12 -6 0
-9 3 -9 14 1 8 6 13 17 10 24 -3 7 3 22 13 32 10 11 15 15 11 9 -4 -6 -2 -17
4 -23 9 -9 9 -12 -1 -12 -8 0 -11 -6 -7 -15 7 -19 -3 -45 -16 -45 -6 0 -4 8 3
18 11 13 9 13 -9 -2 -12 -11 -20 -26 -18 -33 3 -7 1 -13 -4 -13 -6 0 -10 6
-10 13 0 8 -4 7 -10 -3 -5 -8 -10 -11 -10 -6 0 5 7 18 17 28 15 17 15 18 -15
12 -27 -6 -32 -4 -31 12 0 11 3 14 6 7 9 -23 23 -13 23 16 0 20 -6 31 -17 34
-13 3 -11 5 6 6 17 1 21 5 17 17 -3 9 -2 12 5 8 6 -3 9 -14 6 -24z m36 10 c-3
-11 -10 -23 -16 -27 -7 -4 -8 0 -4 11 4 10 7 22 7 27 0 5 4 9 9 9 5 0 7 -9 4
-20z m-389 -6 c3 -8 2 -12 -4 -9 -6 3 -10 10 -10 16 0 14 7 11 14 -7z m66 -2
c0 -4 -9 -8 -19 -8 -15 0 -17 3 -9 13 10 12 28 9 28 -5z m215 -1 c-3 -6 -11
-11 -17 -11 -6 0 -6 6 2 15 14 17 26 13 15 -4z m-121 -16 c3 -8 1 -15 -4 -15
-6 0 -10 7 -10 15 0 8 2 15 4 15 2 0 6 -7 10 -15z m42 -25 c-15 -7 -19 -30 -4
-30 9 0 9 -3 1 -11 -6 -6 -16 -8 -21 -5 -12 7 -12 46 0 46 4 0 7 3 7 8 -3 18
2 22 15 10 10 -9 11 -14 2 -18z m-63 -2 c16 -17 16 -18 -3 -18 -11 0 -20 -4
-20 -10 0 -5 5 -10 10 -10 6 0 10 -5 10 -11 0 -23 -25 -1 -26 23 -1 14 -4 29
-7 35 -11 17 17 10 36 -9z m160 -1 c-10 -6 -20 -14 -23 -18 -8 -11 -34 7 -27
18 3 5 20 10 37 10 27 0 29 -2 13 -10z m257 4 c0 -5 -7 -11 -14 -14 -10 -4
-13 -1 -9 9 6 15 23 19 23 5z m-10 -35 c0 -2 -7 -7 -16 -10 -8 -3 -12 -2 -9 4
6 10 25 14 25 6z m275 -6 c3 -6 -1 -7 -9 -4 -18 7 -21 14 -7 14 6 0 13 -4 16
-10z m-662 -25 c-7 -21 -12 -19 -10 4 0 11 5 18 9 15 4 -3 5 -11 1 -19z m357
0 c20 -21 21 -25 7 -31 -9 -3 -14 -10 -11 -15 3 -5 -3 -6 -12 -2 -12 4 -15 3
-10 -5 5 -8 0 -12 -13 -12 -27 0 -27 16 -1 32 11 7 20 16 20 21 0 4 -5 5 -10
2 -12 -7 -42 20 -33 29 13 13 41 5 63 -19z m383 -15 c4 -3 -9 -6 -29 -6 -21 0
-32 2 -25 4 9 3 9 7 0 19 -11 12 -8 12 17 2 16 -7 32 -16 37 -19z m-685 0 c13
0 13 -3 4 -12 -10 -10 -15 -10 -22 2 -5 8 -9 20 -9 25 0 6 3 4 6 -2 2 -7 12
-13 21 -13z m469 -2 c-3 -8 -6 -5 -6 6 -1 11 2 17 5 13 3 -3 4 -12 1 -19z
m-231 -24 c-9 -6 -19 -21 -21 -33 -3 -19 -1 -21 18 -15 22 6 22 6 2 -10 -12
-9 -15 -15 -7 -16 7 0 10 -5 6 -11 -8 -14 14 -29 45 -29 17 0 22 -4 17 -16 -3
-9 -6 -22 -6 -30 0 -9 -5 -12 -10 -9 -6 4 -17 1 -25 -5 -17 -14 -35 -5 -35 17
0 19 -28 53 -44 53 -6 0 -3 -5 7 -11 21 -12 23 -33 2 -25 -13 5 -13 2 1 -19
17 -26 16 -27 -23 -25 -5 1 -7 10 -5 21 2 11 0 19 -5 18 -4 -1 -17 -1 -28 0
-16 1 -17 3 -5 10 8 6 17 8 21 5 4 -2 11 0 14 6 4 6 1 9 -7 8 -8 -2 -13 6 -12
22 2 37 3 40 13 40 5 0 7 -10 4 -22 -4 -19 -3 -20 6 -8 6 8 8 23 5 34 -4 13
-2 17 7 14 8 -3 14 -10 14 -15 0 -6 4 -15 9 -20 5 -4 6 -3 2 4 -3 6 -1 15 5
19 9 5 7 11 -5 19 -15 12 -15 15 6 38 18 20 26 23 36 14 12 -9 11 -13 -2 -23z
m796 -5 c6 -37 2 -37 -17 1 -19 36 -19 41 -1 34 8 -3 16 -19 18 -35z m-1104 6
c-3 -3 -9 2 -12 12 -6 14 -5 15 5 6 7 -7 10 -15 7 -18z m32 15 c0 -5 -5 -10
-11 -10 -5 0 -7 5 -4 10 3 6 8 10 11 10 2 0 4 -4 4 -10z m390 -30 c0 -5 -4
-10 -10 -10 -5 0 -10 5 -10 10 0 6 5 10 10 10 6 0 10 -4 10 -10z m-15 -38 c-6
-7 -34 11 -29 19 3 5 11 3 19 -4 7 -6 12 -13 10 -15z m284 18 c-6 -5 -18 -6
-26 -3 -19 8 -16 11 13 11 17 0 22 -3 13 -8z m-343 -44 c-7 -27 -33 -27 -33 0
0 8 6 13 14 10 7 -3 12 -2 12 2 -3 15 1 25 7 19 4 -3 4 -17 0 -31z m145 24
c11 0 17 -4 14 -10 -3 -5 -2 -10 4 -10 5 0 14 6 18 13 12 18 85 17 100 -2 21
-27 14 -36 -9 -14 -13 11 -31 20 -40 20 -20 0 -33 -31 -22 -49 6 -9 3 -9 -9 1
-9 7 -15 17 -12 21 3 4 -7 8 -23 9 -54 1 -62 2 -57 11 3 4 2 10 -2 13 -5 2 -2
2 5 0 8 -1 23 -3 33 -3z m327 -26 c1 -20 7 -43 13 -50 16 -19 0 -18 -22 2 -13
12 -19 12 -25 3 -4 -8 -3 -10 4 -5 8 5 12 0 12 -13 0 -12 -7 -21 -15 -21 -10
0 -14 7 -11 23 3 12 5 25 5 30 1 4 8 7 17 7 8 0 12 5 9 10 -6 9 2 50 9 50 2 0
3 -16 4 -36z m119 6 c-3 -11 0 -18 6 -17 7 1 16 -19 21 -45 6 -29 15 -49 25
-51 11 -3 10 -5 -4 -6 -15 0 -27 15 -47 60 -27 59 -28 79 -6 79 6 0 8 -9 5
-20z m-473 -11 c4 5 25 -1 52 -15 25 -13 53 -25 62 -25 9 -1 4 -4 -13 -8 -21
-4 -31 -13 -33 -29 -2 -13 -14 -27 -28 -32 -14 -6 -24 -18 -24 -29 0 -12 5
-18 13 -16 18 7 41 -11 32 -25 -6 -9 -9 -9 -16 1 -4 8 -16 14 -26 14 -10 0
-17 5 -16 11 1 7 -8 14 -22 16 l-23 5 25 -40 c13 -21 20 -36 14 -33 -6 4 -21
2 -33 -5 -19 -10 -24 -8 -41 12 -10 13 -17 33 -14 46 3 16 -2 24 -14 28 -11 4
-19 11 -19 17 0 7 4 7 13 0 8 -7 18 -6 32 5 13 10 16 17 8 20 -8 3 -4 20 14
55 23 46 27 50 38 34 8 -10 16 -13 19 -7z m226 17 c0 -2 -9 -6 -20 -9 -11 -3
-18 -1 -14 4 5 9 34 13 34 5z m90 -16 c0 -5 -2 -10 -4 -10 -3 0 -8 5 -11 10
-3 6 -1 10 4 10 6 0 11 -4 11 -10z m-104 -32 c4 -6 3 -8 -3 -5 -13 8 -26 -20
-17 -36 5 -8 4 -9 -4 -2 -12 11 -5 55 9 55 4 0 11 -5 15 -12z m-52 -38 c-6 -6
-10 -3 -10 10 0 13 4 16 10 10 7 -7 7 -13 0 -20z m71 0 c3 -6 -1 -7 -9 -4 -18
7 -21 14 -7 14 6 0 13 -4 16 -10z m-487 -18 c2 -7 -2 -10 -12 -6 -9 3 -16 11
-16 16 0 13 23 5 28 -10z m-318 -7 c0 -3 -25 -31 -55 -61 -31 -30 -53 -59 -50
-64 3 -5 -1 -7 -9 -4 -9 3 -19 -3 -26 -18 -7 -13 -22 -32 -34 -43 -11 -11 -26
-29 -33 -40 -6 -11 -16 -19 -23 -17 -6 1 -9 -1 -6 -6 3 -5 -6 -30 -20 -56 -14
-26 -23 -51 -19 -54 3 -4 9 -1 13 5 4 6 16 11 27 10 11 -1 19 3 18 11 -4 18
34 15 45 -4 8 -15 11 -15 31 2 l22 19 -33 6 -33 6 37 16 c40 18 93 22 102 8 3
-5 -8 -14 -24 -21 -17 -7 -30 -16 -30 -20 0 -4 -9 -10 -20 -13 -11 -3 -20 -11
-20 -17 0 -9 4 -9 13 -2 6 6 29 13 50 17 24 5 36 12 34 20 -3 6 1 12 9 12 21
0 17 -14 -8 -31 l-22 -16 21 0 c13 0 24 8 28 19 3 11 13 25 22 33 15 12 15 11
4 -10 -6 -12 -9 -26 -7 -31 3 -5 -7 -23 -23 -40 -29 -31 -54 -44 -31 -16 7 9
10 18 7 21 -3 3 -13 -8 -23 -25 -10 -16 -21 -28 -26 -25 -4 3 -8 0 -8 -6 0 -7
-7 -9 -17 -6 -10 4 -14 4 -10 0 10 -10 -41 -34 -58 -27 -8 3 -15 10 -15 15 0
6 -7 8 -15 4 -8 -3 -15 -1 -15 3 0 5 -10 7 -22 3 -19 -5 -16 -8 20 -20 23 -7
42 -18 42 -23 0 -6 -4 -8 -9 -5 -5 4 -11 2 -13 -3 -6 -19 -102 -60 -115 -50
-15 13 -6 39 13 39 8 0 14 4 14 10 0 5 -8 7 -17 4 -16 -5 -16 -4 0 6 14 9 16
15 6 26 -9 11 -8 14 9 14 12 0 24 5 28 12 4 7 3 8 -5 4 -6 -4 -14 0 -18 10 -4
10 -2 19 5 22 14 4 -20 73 -51 104 -13 14 -15 23 -7 38 6 11 6 21 1 24 -5 3
-12 -1 -15 -10 -9 -24 -35 1 -29 26 7 26 8 25 53 -10 l37 -30 50 58 c28 31 61
69 74 84 36 41 121 108 131 102 4 -3 8 0 8 5 0 6 9 11 20 11 11 0 20 -2 20 -5z
m812 -9 c7 4 8 2 4 -5 -9 -13 -26 -5 -25 12 0 9 2 8 6 -1 2 -6 10 -9 15 -6z
m-162 -15 c0 -15 -32 -23 -44 -11 -8 8 -6 9 5 5 10 -4 20 -2 24 4 8 13 15 14
15 2z m-375 -11 c3 -5 -1 -10 -10 -10 -9 0 -13 5 -10 10 3 6 8 10 10 10 2 0 7
-4 10 -10z m843 -37 c6 -20 9 -39 7 -42 -8 -8 -18 7 -20 33 -2 14 -6 30 -10
35 -3 6 -2 11 3 11 5 0 14 -17 20 -37z m-1619 3 c8 -10 8 -16 -3 -25 -11 -10
-14 -7 -12 14 1 29 0 29 15 11z m791 5 c0 -6 -4 -12 -8 -15 -5 -3 -9 1 -9 9 0
8 4 15 9 15 4 0 8 -4 8 -9z m83 -42 c-5 -5 -14 4 -21 23 l-11 31 20 -22 c13
-14 18 -26 12 -32z m297 15 c0 -8 -4 -12 -10 -9 -5 3 -10 10 -10 16 0 5 5 9
10 9 6 0 10 -7 10 -16z m84 1 c-4 -8 -8 -15 -10 -15 -2 0 -4 7 -4 15 0 8 4 15
10 15 5 0 7 -7 4 -15z m146 1 c0 -3 -4 -8 -10 -11 -5 -3 -10 -1 -10 4 0 6 5
11 10 11 6 0 10 -2 10 -4z m-46 -43 c-11 -4 -84 24 -84 32 0 2 21 -3 47 -12
26 -9 43 -18 37 -20z m-579 8 c-3 -6 -14 -10 -23 -10 -15 1 -15 2 1 6 9 2 17
9 17 15 0 6 3 9 6 5 3 -3 3 -10 -1 -16z m78 5 c3 -8 1 -17 -6 -19 -8 -3 -5
-10 8 -20 14 -11 22 -12 27 -4 5 8 13 5 27 -8 12 -10 19 -21 16 -24 -4 -3 -10
1 -15 9 -7 11 -13 12 -36 1 -23 -10 -30 -10 -43 5 -15 15 -14 16 3 10 16 -5
17 -4 7 8 -7 8 -10 20 -6 27 4 6 1 15 -6 20 -11 7 -11 9 2 9 9 0 19 -6 22 -14z
m-424 -41 c-8 -7 -27 -15 -42 -19 -25 -6 -27 -5 -18 11 5 10 18 18 28 18 10 0
19 6 19 13 3 25 5 27 15 8 8 -13 8 -21 -2 -31z m792 7 c-7 -2 -18 1 -23 6 -8
8 -4 9 13 5 13 -4 18 -8 10 -11z m419 3 c0 -8 -2 -15 -4 -15 -2 0 -6 7 -10 15
-3 8 -1 15 4 15 6 0 10 -7 10 -15z m-300 -15 c0 -5 -2 -10 -4 -10 -3 0 -8 5
-11 10 -3 6 -1 10 4 10 6 0 11 -4 11 -10z m41 -29 c-6 -4 -9 -21 -7 -39 2 -23
-3 -37 -24 -57 -25 -24 -40 -25 -40 -1 0 6 4 5 9 -3 7 -11 12 -7 24 16 16 30
13 73 -5 73 -5 0 -7 4 -3 10 3 5 12 7 19 4 9 -3 17 4 22 18 7 20 8 21 12 4 2
-10 -1 -22 -7 -25z m-918 10 c-2 -6 4 -11 12 -11 8 0 15 -2 15 -4 0 -2 2 -10
5 -18 4 -10 -9 -12 -61 -11 -55 2 -65 0 -60 -12 7 -20 -4 -19 -20 3 -11 15 -7
20 39 44 52 27 74 30 70 9z m336 -35 c0 -7 -2 -7 -6 2 -2 6 -10 12 -17 12 -6
0 -12 10 -13 23 l-2 22 20 -24 c10 -13 19 -28 18 -35z m864 2 c3 -24 8 -52 10
-64 3 -11 2 -26 -2 -33 -5 -7 -13 13 -20 49 -7 34 -15 68 -18 76 -3 8 1 14 10
14 9 0 16 -14 20 -42z m-764 19 c-2 -1 -13 -9 -24 -17 -19 -14 -19 -14 -6 3 7
9 18 17 24 17 6 0 8 -1 6 -3z m71 -27 c0 -5 -2 -10 -4 -10 -3 0 -8 5 -11 10
-3 6 -1 10 4 10 6 0 11 -4 11 -10z m350 -26 c0 -2 -7 -4 -15 -4 -8 0 -15 4
-15 10 0 5 7 7 15 4 8 -4 15 -8 15 -10z m-1210 -60 c12 -12 8 -14 -35 -14 -59
0 -89 14 -65 30 19 13 80 3 100 -16z m1330 6 c0 -5 -4 -10 -10 -10 -5 0 -10 5
-10 10 0 6 5 10 10 10 6 0 10 -4 10 -10z m80 -63 c0 -11 -46 24 -60 46 -7 12
1 9 24 -10 20 -15 36 -32 36 -36z m-320 26 c0 4 8 -1 18 -10 23 -22 18 -33
-11 -32 -19 1 -19 2 -3 6 17 5 17 6 -5 21 -13 10 -25 24 -27 32 -1 10 2 9 13
-4 8 -11 15 -17 15 -13z m-2290 13 c0 -2 -7 -7 -16 -10 -8 -3 -12 -2 -9 4 6
10 25 14 25 6z m84 -4 c3 -5 -1 -9 -9 -9 -8 0 -15 4 -15 9 0 4 4 8 9 8 6 0 12
-4 15 -8z m1541 -2 c-3 -5 -10 -10 -16 -10 -5 0 -9 5 -9 10 0 6 7 10 16 10 8
0 12 -4 9 -10z m622 -6 c-3 -3 -12 -4 -19 -1 -8 3 -5 6 6 6 11 1 17 -2 13 -5z
m122 -8 c9 -10 8 -15 -3 -19 -9 -4 -18 -1 -22 5 -4 7 -3 8 4 4 7 -4 12 -3 12
3 0 5 -6 12 -12 14 -8 4 -9 6 -2 6 6 1 17 -5 23 -13z m101 -9 c11 -5 9 -6 -4
-4 -11 1 -21 9 -23 17 -3 10 -2 11 4 4 4 -6 15 -14 23 -17z m-2460 3 c0 -5 -7
-10 -16 -10 -8 0 -12 5 -9 10 3 6 10 10 16 10 5 0 9 -4 9 -10z m65 -9 c5 -1 4
-6 -3 -13 -9 -9 -16 -9 -29 4 -15 15 -15 16 3 13 10 -2 23 -4 29 -4z m2193 -4
c-8 -10 25 -35 39 -30 11 4 14 2 9 -5 -4 -7 -17 -10 -32 -6 -14 4 -24 2 -24
-5 0 -6 -7 -8 -15 -5 -8 4 -15 14 -15 23 0 14 2 14 10 1 5 -8 10 -12 11 -7 1
4 3 12 4 17 1 6 3 15 4 22 0 6 4 9 7 6 3 -4 4 -8 2 -11z m307 3 c3 -5 1 -10
-4 -10 -6 0 -11 5 -11 10 0 6 2 10 4 10 3 0 8 -4 11 -10z m-1500 -10 c3 -5 -1
-10 -9 -10 -9 0 -16 5 -16 10 0 6 4 10 9 10 6 0 13 -4 16 -10z m1003 -5 c2 -1
-3 -5 -10 -8 -8 -2 -23 2 -33 10 -19 13 -18 14 10 7 17 -4 31 -8 33 -9z m704
-20 c2 -19 0 -35 -4 -35 -4 0 -8 16 -8 35 0 19 2 35 4 35 2 0 6 -16 8 -35z
m-1182 0 c-19 -20 -20 -25 -7 -25 9 0 19 5 22 10 3 6 12 10 18 10 7 0 -1 -12
-17 -26 -25 -22 -31 -24 -40 -12 -16 20 -59 -3 -63 -34 -2 -13 -12 -30 -23
-38 -67 -49 -64 -46 -46 -53 10 -4 15 -3 11 3 -3 5 7 8 25 5 22 -3 34 2 49 21
22 28 34 30 51 9 9 -10 9 -15 1 -15 -6 0 -11 4 -11 10 0 5 -6 7 -13 4 -8 -3
-14 -11 -14 -19 0 -17 40 -14 62 5 12 10 10 3 -5 -23 -14 -23 -29 -36 -39 -35
-9 2 -16 -4 -16 -14 0 -17 -33 -58 -47 -58 -17 0 -7 23 24 56 18 19 38 32 44
30 6 -2 11 2 11 10 0 17 -9 18 -25 2 -10 -10 -15 -10 -20 -1 -6 9 -11 6 -21
-8 -9 -16 -9 -19 0 -14 8 5 10 4 5 -3 -9 -16 -36 -3 -29 14 3 8 0 14 -5 14
-19 0 -22 -17 -7 -30 19 -15 10 -31 -13 -24 -12 4 -14 3 -4 -3 10 -8 10 -12
-1 -22 -12 -9 -16 -8 -20 8 -2 11 0 24 6 30 17 17 1 24 -24 10 -21 -11 -21
-13 -5 -24 11 -8 13 -15 7 -20 -6 -3 -11 -2 -11 3 0 6 -6 12 -14 15 -9 4 -12
0 -9 -13 3 -10 -1 -21 -8 -25 -8 -5 -10 -4 -5 3 4 7 2 12 -3 12 -13 0 -13 -3
-5 -24 5 -12 10 -14 19 -6 9 7 16 5 26 -7 7 -10 9 -15 5 -11 -5 4 -22 -2 -39
-14 -27 -19 -30 -20 -39 -4 -5 9 -13 14 -19 11 -5 -4 -9 2 -10 12 0 10 -3 13
-6 6 -2 -7 -12 -13 -20 -13 -12 0 -13 3 -4 14 9 11 9 15 -1 19 -7 2 -1 8 15
12 32 8 33 12 10 37 -9 11 -11 18 -5 18 7 0 12 -4 12 -9 0 -18 32 -21 61 -6
34 18 37 25 8 25 -11 0 -18 -4 -15 -9 11 -18 -27 -21 -39 -4 -13 18 -1 38 17
27 4 -3 8 1 8 9 0 8 12 23 27 32 21 14 25 15 20 2 -4 -11 0 -13 14 -10 11 3
22 9 25 14 3 5 -3 6 -12 2 -12 -4 -15 -3 -10 5 12 19 -12 14 -54 -13 -22 -14
-42 -25 -46 -25 -14 0 56 50 111 79 86 44 145 80 162 97 25 25 37 15 13 -11z
m537 5 c-1 -11 -7 -20 -14 -20 -16 0 -16 7 0 25 16 19 16 18 14 -5z m295 -12
c-8 -8 -9 -4 -5 13 4 13 8 18 11 10 2 -7 -1 -18 -6 -23z m-2427 4 c27 -5 31
-10 17 -24 -9 -9 -12 -9 -12 0 0 7 -7 12 -16 12 -10 0 -13 -6 -9 -19 3 -10 -1
-23 -9 -30 -12 -10 -14 -8 -12 13 1 14 5 29 9 32 3 3 3 13 0 22 -3 10 -1 13 4
7 4 -5 17 -12 28 -13z m2205 10 c0 -13 -12 -22 -22 -16 -10 6 -1 24 13 24 5 0
9 -4 9 -8z m146 -7 c4 -8 11 -12 18 -8 8 5 8 3 0 -8 -7 -8 -13 -23 -15 -33 -3
-13 -8 -5 -15 22 -10 39 0 60 12 27z m-199 -15 c-3 -11 -1 -20 4 -20 5 0 9 4
9 10 0 11 36 8 47 -5 5 -4 -2 -5 -14 -2 -13 3 -26 1 -29 -4 -3 -6 -11 -8 -17
-6 -7 2 -17 -3 -24 -12 -6 -9 -14 -13 -18 -9 -4 4 3 15 14 25 12 9 21 23 21
30 0 7 3 13 6 13 4 0 4 -9 1 -20z m356 7 c3 -8 1 -20 -5 -28 -8 -11 -9 -11 -5
2 3 9 0 22 -6 28 -8 8 -8 11 0 11 6 0 13 -6 16 -13z m76 -23 c-7 -9 -5 -16 8
-24 17 -10 17 -11 -2 -7 -14 2 -19 9 -18 25 2 13 -1 21 -6 17 -5 -3 -13 0 -17
6 -4 7 -3 9 4 5 6 -3 14 -1 18 5 5 8 9 7 15 -2 4 -7 3 -19 -2 -25z m-514 -2
c-3 -3 -11 0 -18 7 -9 10 -8 11 6 5 10 -3 15 -9 12 -12z m-45 -2 c0 -5 -5 -10
-11 -10 -5 0 -7 5 -4 10 3 6 8 10 11 10 2 0 4 -4 4 -10z m526 -2 c4 -7 3 -8
-4 -4 -7 4 -12 1 -12 -7 0 -18 -33 -28 -51 -15 -11 8 -10 9 4 4 11 -3 24 2 34
14 20 23 20 23 29 8z m-2534 -54 c-2 -13 -9 -27 -15 -31 -6 -3 -7 -1 -3 5 3 6
-2 15 -11 21 -11 6 -13 11 -5 11 7 0 10 5 6 11 -3 6 0 15 7 20 18 11 27 -6 21
-37z m2048 21 c0 -20 -20 -29 -33 -16 -8 8 -6 11 6 11 9 0 17 4 17 10 0 5 -8
7 -17 4 -15 -5 -15 -4 -3 4 17 12 30 7 30 -13z m400 0 c0 -2 -10 -9 -22 -15
-22 -11 -22 -10 -4 4 21 17 26 19 26 11z m177 -2 c-4 -3 -1 -13 6 -22 10 -14
10 -14 -5 -3 -10 8 -23 10 -30 6 -10 -6 -9 -3 1 9 7 9 18 17 24 17 6 0 7 -3 4
-7z m-532 -13 c-3 -5 -1 -10 4 -10 6 0 11 -7 11 -15 0 -8 5 -15 12 -15 6 0 8
-3 5 -6 -11 -12 -57 25 -51 41 4 8 10 15 16 15 5 0 6 -4 3 -10z m242 -22 c0
-18 3 -42 8 -53 8 -18 7 -19 -8 -6 -18 14 -24 91 -8 91 5 0 9 -15 8 -32z
m-797 18 c0 -2 -7 -6 -15 -10 -8 -3 -15 -1 -15 4 0 6 7 10 15 10 8 0 15 -2 15
-4z m612 -18 c-7 -7 -12 -8 -12 -2 0 6 3 14 7 17 3 4 9 5 12 2 2 -3 -1 -11 -7
-17z m390 -10 c-7 -7 -12 -8 -12 -2 0 6 3 14 7 17 3 4 9 5 12 2 2 -3 -1 -11
-7 -17z m132 7 c-4 -8 -11 -15 -16 -15 -6 0 -5 6 2 15 7 8 14 15 16 15 2 0 1
-7 -2 -15z m96 -11 c0 -8 -6 -14 -14 -14 -9 0 -12 7 -9 20 6 22 23 18 23 -6z
m-53 1 c0 -8 -4 -12 -9 -9 -5 3 -6 10 -3 15 9 13 12 11 12 -6z m-1217 1 c0 -2
-11 -11 -25 -20 -14 -9 -25 -13 -25 -8 0 5 10 14 23 20 27 13 27 13 27 8z
m-1519 -23 c13 -16 12 -17 -3 -4 -10 7 -18 15 -18 17 0 8 8 3 21 -13z m2789
-7 c0 -3 -4 -8 -10 -11 -5 -3 -10 -1 -10 4 0 6 5 11 10 11 6 0 10 -2 10 -4z
m-2785 -26 c-3 -4 4 -10 15 -13 11 -3 20 -1 20 4 0 5 11 9 25 9 24 0 25 -2 13
-22 -7 -13 -12 -27 -13 -33 0 -16 -40 -12 -40 4 0 8 -6 16 -14 19 -8 3 -11 0
-7 -6 3 -5 -1 -13 -10 -16 -8 -3 -12 -2 -9 4 3 6 1 10 -4 10 -6 0 -11 -9 -11
-20 0 -14 5 -18 18 -13 15 6 15 5 3 -10 -11 -14 -11 -20 0 -34 12 -14 12 -15
0 -9 -10 7 -12 -1 -8 -40 2 -27 7 -58 9 -69 3 -11 8 -36 12 -55 11 -60 14 -73
36 -134 12 -33 19 -68 17 -78 -3 -10 0 -18 7 -18 7 0 27 -31 46 -70 19 -38 38
-70 43 -70 5 0 7 -7 3 -15 -3 -8 -1 -15 3 -15 5 0 18 -16 30 -35 l20 -35 -23
2 c-23 2 -56 41 -72 82 -5 13 -4 17 4 12 16 -10 14 5 -3 28 -15 20 -15 20 -15
0 0 -15 -3 -13 -15 10 -8 15 -15 37 -15 47 0 11 -4 19 -9 19 -14 0 -64 127
-57 145 3 9 2 14 -3 10 -8 -5 -29 71 -62 225 -11 54 -12 54 -29 32 -22 -27
-26 -27 -33 -1 -4 14 -2 19 8 15 7 -2 21 4 31 15 12 13 13 19 4 19 -9 0 -10 3
-1 14 6 7 10 28 9 46 -2 26 1 34 16 36 10 1 23 7 29 13 11 11 40 3 32 -9z
m2725 16 c0 -2 -7 -7 -16 -10 -8 -3 -12 -2 -9 4 6 10 25 14 25 6z m-150 -16
c0 -5 -2 -10 -4 -10 -3 0 -8 5 -11 10 -3 6 -1 10 4 10 6 0 11 -4 11 -10z
m-2708 -28 c-7 -2 -10 -8 -7 -12 3 -5 1 -11 -5 -15 -5 -3 -10 2 -10 13 0 23 9
33 23 25 8 -5 7 -8 -1 -11z m2572 -7 c11 -8 15 -15 10 -15 -6 0 -19 7 -30 15
-10 8 -14 14 -9 14 6 0 19 -6 29 -14z m-1009 -5 c-3 -5 -12 -10 -18 -10 -7 0
-6 4 3 10 19 12 23 12 15 0z m1358 -3 c-2 -4 1 -14 7 -22 20 -24 -1 -17 -21 7
-23 26 -23 27 0 25 11 0 17 -5 14 -10z m-2899 -23 c-7 -3 -10 -14 -7 -24 3
-11 1 -20 -4 -20 -5 0 -9 10 -7 23 3 29 2 27 17 26 8 0 8 -2 1 -5z m2966 -12
c-8 -3 -20 -9 -27 -14 -8 -7 -11 -4 -10 9 1 15 7 18 26 15 17 -4 21 -7 11 -10z
m-2820 -18 c0 -2 -12 -4 -27 -4 -21 0 -24 3 -14 9 13 8 41 5 41 -5z m1432 4
c-17 -17 -15 -31 3 -24 8 3 15 0 15 -6 0 -6 10 -2 23 10 31 30 41 28 14 -2
-12 -14 -32 -38 -45 -55 -13 -17 -28 -29 -32 -26 -5 3 -13 -3 -19 -12 -5 -10
-13 -15 -16 -11 -4 4 12 25 36 47 51 47 40 55 -15 12 -22 -18 -45 -28 -58 -26
-33 7 -33 13 3 28 19 8 36 10 37 5 2 -4 8 -6 12 -3 5 3 7 12 3 20 -4 11 0 14
13 9 15 -6 17 -4 7 6 -10 11 -9 16 5 26 22 17 30 18 14 2z m1302 -5 c4 -9 1
-21 -6 -27 -7 -6 -10 -7 -6 -2 4 5 3 17 -3 27 -6 11 -6 19 0 19 5 0 12 -8 15
-17z m-294 -3 c0 -5 -2 -10 -4 -10 -3 0 -8 5 -11 10 -3 6 -1 10 4 10 6 0 11
-4 11 -10z m120 -15 c0 -12 -19 -12 -23 0 -4 9 -1 12 9 8 7 -3 14 -7 14 -8z
m-2550 -9 c0 -8 2 -20 3 -28 2 -7 2 -10 0 -6 -2 4 -11 4 -19 1 -14 -5 -21 27
-7 40 11 12 23 8 23 -7z m2355 -26 c3 -5 1 -10 -4 -10 -6 0 -11 5 -11 10 0 6
2 10 4 10 3 0 8 -4 11 -10z m463 -4 c-7 -8 -15 -12 -17 -11 -5 6 10 25 20 25
5 0 4 -6 -3 -14z m-818 -6 c0 -5 -5 -10 -11 -10 -5 0 -7 5 -4 10 3 6 8 10 11
10 2 0 4 -4 4 -10z m440 0 c0 -5 -8 -10 -17 -10 -15 0 -16 2 -3 10 19 12 20
12 20 0z m-500 -42 c-11 -10 -28 -18 -40 -18 -11 0 -20 -5 -20 -11 0 -5 -4 -7
-10 -4 -20 12 -9 25 20 25 20 0 30 5 30 15 0 9 6 12 15 9 11 -5 14 -1 9 12 -5
15 -4 16 5 4 7 -11 5 -19 -9 -32z m147 36 c-3 -3 -12 -4 -19 -1 -8 3 -5 6 6 6
11 1 17 -2 13 -5z m-2097 -24 c6 -11 7 -20 2 -20 -6 0 -12 9 -15 20 -3 11 -3
20 -1 20 2 0 8 -9 14 -20z m1920 10 c0 -5 -4 -10 -10 -10 -5 0 -10 5 -10 10 0
6 5 10 10 10 6 0 10 -4 10 -10z m450 -10 c0 -5 -2 -10 -4 -10 -3 0 -8 5 -11
10 -3 6 -1 10 4 10 6 0 11 -4 11 -10z m54 -5 c-6 -16 -24 -21 -24 -7 0 11 11
22 21 22 5 0 6 -7 3 -15z m-2397 -17 c-3 -8 -6 -5 -6 6 -1 11 2 17 5 13 3 -3
4 -12 1 -19z m2303 -7 c0 -5 3 -18 6 -28 4 -14 4 -15 -4 -4 -5 7 -14 11 -20 7
-6 -4 -8 2 -5 14 5 20 23 28 23 11z m-1461 -68 c12 9 13 9 7 0 -7 -12 5 -18
28 -14 5 1 6 -5 3 -13 -4 -10 -1 -13 9 -9 21 8 71 -6 55 -16 -9 -6 -10 -11 -2
-15 17 -11 13 -29 -5 -22 -10 4 -13 2 -8 -6 5 -8 2 -9 -9 -5 -10 3 -17 2 -17
-4 0 -6 -9 -8 -22 -4 -16 5 -20 4 -13 -3 6 -6 23 -13 39 -16 16 -3 34 -11 40
-17 13 -14 -27 -6 -92 18 -30 11 -40 19 -32 27 13 13 13 27 -1 24 -6 -2 -14 3
-16 10 -3 8 1 10 11 6 9 -3 16 -1 16 6 0 6 -4 9 -10 5 -12 -8 -53 33 -45 45 4
6 1 10 -5 10 -7 0 -8 6 -2 18 5 9 7 24 5 32 -3 8 7 -4 23 -27 23 -35 30 -40
43 -30z m-179 38 c0 -5 -11 -8 -25 -8 -13 0 -22 3 -19 8 3 5 14 9 25 9 10 0
19 -4 19 -9z m2127 -13 c-3 -8 -6 -5 -6 6 -1 11 2 17 5 13 3 -3 4 -12 1 -19z
m-917 -3 c-7 -8 -22 -15 -34 -15 -21 1 -21 1 -2 15 27 21 53 20 36 0z m335 5
c3 -5 1 -10 -4 -10 -6 0 -11 5 -11 10 0 6 2 10 4 10 3 0 8 -4 11 -10z m-1521
-26 c5 -12 2 -15 -10 -10 -8 3 -18 6 -20 6 -3 0 -2 5 1 10 9 15 22 12 29 -6z
m2086 6 c0 -14 -25 -18 -37 -5 -9 10 -6 13 13 13 13 0 24 -4 24 -8z m-553 -6
c-3 -3 -12 -4 -19 -1 -8 3 -5 6 6 6 11 1 17 -2 13 -5z m-2347 -8 c0 -3 -4 -8
-10 -11 -5 -3 -10 -1 -10 4 0 6 5 11 10 11 6 0 10 -2 10 -4z m2435 -16 c3 -5
1 -10 -4 -10 -6 0 -11 5 -11 10 0 6 2 10 4 10 3 0 8 -4 11 -10z m456 -13 c-10
-9 -11 -8 -5 6 3 10 9 15 12 12 3 -3 0 -11 -7 -18z m-1723 -79 c-2 -7 5 -12
16 -13 20 0 27 -10 44 -63 9 -29 9 -33 -4 -28 -9 3 -24 6 -33 6 -10 0 -28 9
-40 19 l-22 19 21 15 c18 13 19 15 4 21 -13 5 -14 9 -4 21 15 18 21 19 18 3z
m267 2 c-8 -13 1 -13 26 0 10 6 19 9 19 6 0 -6 -93 -64 -110 -68 -8 -2 -18 -7
-22 -13 -4 -5 -18 -11 -32 -12 -30 -2 -26 16 7 36 17 11 19 11 10 0 -20 -20
-15 -34 5 -16 10 10 27 17 38 18 12 0 14 2 5 6 -9 4 -5 12 15 29 30 24 50 31
39 14z m495 -4 c0 -18 -23 -27 -41 -15 -11 7 -11 9 4 9 9 0 17 5 17 10 0 6 5
10 10 10 6 0 10 -6 10 -14z m-403 -14 c-9 -2 -15 -7 -12 -12 3 -5 12 -7 19 -4
8 3 17 1 21 -5 3 -6 0 -11 -7 -11 -10 0 -10 -2 0 -9 11 -6 8 -10 -10 -14 -25
-6 -43 -4 -70 8 -21 8 -14 25 10 25 10 0 23 9 30 20 8 13 17 18 25 13 8 -5 7
-9 -6 -11z m-217 -13 c0 -6 -4 -7 -10 -4 -5 3 -10 11 -10 16 0 6 5 7 10 4 6
-3 10 -11 10 -16z m1663 15 c3 -3 2 -14 -3 -23 -5 -9 -11 -24 -14 -33 -3 -10
-10 -18 -16 -18 -6 0 -5 13 4 34 8 19 12 37 8 40 -3 3 -1 6 5 6 5 0 12 -3 16
-6z m-1388 -34 c3 -5 1 -10 -4 -10 -6 0 -11 5 -11 10 0 6 2 10 4 10 3 0 8 -4
11 -10z m125 -5 c-44 -17 -50 -17 -50 -4 0 5 3 8 8 6 4 -3 16 -1 27 4 11 4 27
8 35 8 8 0 -1 -7 -20 -14z m-280 -5 c-8 -5 -11 -10 -5 -10 5 0 1 -6 -10 -14
-18 -12 -61 -19 -50 -8 11 12 61 41 70 41 6 0 3 -4 -5 -9z m210 -7 c0 -9 -49
-33 -64 -33 -6 1 5 9 24 20 41 22 40 22 40 13z m-835 -12 c3 -5 1 -12 -5 -16
-5 -3 -10 1 -10 9 0 18 6 21 15 7z m145 -6 c-7 -9 -15 -13 -17 -11 -7 7 7 26
19 26 6 0 6 -6 -2 -15z m-27 -10 c5 -12 56 -16 92 -5 6 1 18 2 29 1 15 -1 16
-4 6 -16 -10 -12 -10 -15 1 -16 8 0 5 -4 -6 -10 -17 -8 -16 -9 5 -3 37 8 186
17 179 11 -3 -4 -37 -13 -76 -21 -83 -18 -195 -69 -235 -108 -16 -15 -34 -28
-41 -28 -7 0 2 12 18 26 27 22 27 24 5 13 -22 -11 -23 -10 -13 3 7 8 11 17 8
20 -9 8 23 31 45 32 11 0 20 6 19 11 -1 14 -28 7 -77 -21 -35 -21 -42 -29 -36
-46 4 -14 2 -18 -5 -14 -6 4 -11 1 -11 -8 0 -8 -5 -18 -11 -21 -6 -4 -9 0 -7
11 2 12 -3 19 -14 19 -9 0 -20 4 -25 8 -4 5 -3 8 2 7 23 -5 55 1 55 10 0 5 -8
7 -17 4 -15 -5 -16 -4 -3 5 12 9 9 11 -16 11 -39 0 -46 -7 -31 -34 17 -31 17
-55 -1 -48 -9 3 -13 1 -9 -5 4 -6 1 -14 -5 -17 -7 -3 -1 -3 15 0 36 8 35 -4
-3 -17 -16 -6 -27 -15 -24 -20 3 -5 11 -6 17 -3 7 4 8 3 4 -2 -4 -4 -25 -7
-45 -5 -35 2 -36 2 -17 -12 11 -9 23 -13 27 -11 4 3 5 -2 1 -12 -5 -15 -7 -15
-15 0 -5 9 -14 14 -19 11 -5 -4 -6 -11 -3 -17 4 -7 2 -8 -5 -4 -6 4 -9 11 -6
15 7 12 -27 7 -52 -7 -16 -9 -29 -10 -42 -3 -10 6 -22 7 -27 3 -5 -4 -3 0 2 8
6 8 11 22 11 32 0 14 -3 15 -22 2 -13 -8 -33 -17 -45 -19 -12 -2 -28 -12 -35
-21 -11 -16 -12 -15 -18 5 -3 11 -1 19 4 15 5 -3 19 6 31 20 27 30 175 107
192 100 7 -3 13 2 13 11 0 9 -5 14 -11 11 -49 -20 -51 -20 -39 -5 10 12 8 17
-9 28 -11 7 -17 8 -13 2 4 -7 -4 -11 -19 -11 -41 0 -38 15 7 35 53 24 171 66
164 58 -4 -3 3 -13 14 -22 21 -17 21 -17 -7 -30 -23 -10 -27 -10 -16 0 18 19
15 32 -8 26 -13 -3 -18 -1 -13 5 3 7 1 8 -6 4 -9 -6 -9 -11 0 -22 9 -11 8 -14
-5 -14 -9 0 -16 -5 -16 -11 0 -6 7 -8 16 -5 8 3 12 2 9 -4 -3 -6 -13 -10 -21
-10 -8 0 -14 -4 -14 -10 0 -13 6 -13 33 2 34 18 86 27 90 15 6 -18 48 16 43
36 -2 9 0 17 5 17 5 0 8 3 8 8 -4 22 3 24 16 5 17 -24 50 -21 41 4 -3 8 -2 12
2 9 4 -2 14 0 22 5 11 8 6 9 -18 6 -23 -2 -31 0 -28 9 3 7 -6 14 -19 17 -14 2
-22 1 -20 -3 2 -4 -8 -18 -23 -31 -15 -13 -24 -20 -20 -15 4 5 2 16 -5 24 -6
9 -7 13 -1 9 6 -3 17 2 25 11 19 22 65 26 72 7z m775 -10 c-13 -6 -27 -9 -33
-6 -5 3 -2 7 8 9 9 2 17 7 17 12 0 5 7 7 16 3 12 -4 11 -8 -8 -18z m292 15 c0
-5 -10 -10 -22 -10 -19 0 -20 2 -8 10 19 13 30 13 30 0z m-490 -12 c0 -6 6 -8
14 -5 13 5 56 -18 46 -25 -3 -2 -48 0 -100 3 -83 4 -87 7 -20 13 8 1 14 7 13
13 -1 6 9 11 22 11 14 0 25 -5 25 -10z m-190 -2 c0 -2 -8 -10 -17 -17 -16 -13
-17 -12 -4 4 13 16 21 21 21 13z m-503 -19 c0 -8 -6 -14 -14 -14 -17 0 -17 14
0 20 6 3 12 6 13 6 0 1 1 -5 1 -12z m1223 9 c0 -3 -4 -8 -10 -11 -5 -3 -10 -1
-10 4 0 6 5 11 10 11 6 0 10 -2 10 -4z m910 -14 c0 -5 -7 -17 -15 -28 -15 -19
-20 -8 -9 20 6 17 24 22 24 8z m-1587 -9 c-7 -2 -19 -2 -25 0 -7 3 -2 5 12 5
14 0 19 -2 13 -5z m157 -45 c0 -6 -6 -5 -15 2 -8 7 -15 14 -15 16 0 2 7 1 15
-2 8 -4 15 -11 15 -16z m-260 -20 c0 -18 -2 -20 -9 -8 -6 8 -7 18 -5 22 9 14
14 9 14 -14z m56 10 c5 -7 3 -8 -6 -3 -10 6 -12 4 -7 -7 4 -11 0 -15 -11 -14
-9 2 -16 6 -14 9 1 4 2 12 2 17 0 14 27 13 36 -2z m1597 -13 c-8 -22 -22 -18
-16 5 3 11 9 17 14 15 4 -3 6 -12 2 -20z m-108 5 c3 -6 -1 -7 -9 -4 -10 4 -16
1 -16 -7 0 -7 -3 -10 -6 -6 -7 7 4 27 16 27 5 0 12 -4 15 -10z m-1591 -12 c-3
-4 -9 -8 -15 -8 -5 0 -9 4 -9 8 0 5 7 9 15 9 8 0 12 -4 9 -9z m212 -58 c4 0 1
7 -6 15 -21 26 5 16 28 -10 12 -13 19 -31 16 -39 -7 -18 -57 -32 -62 -17 -5
14 -32 14 -32 0 0 -5 -4 -7 -10 -4 -5 3 -10 11 -10 16 0 6 4 8 9 5 5 -3 15 2
22 11 12 14 11 15 -9 9 -28 -9 -30 14 -5 48 l18 23 17 -28 c10 -16 21 -29 24
-29z m-309 38 c-2 -7 2 -21 11 -30 19 -22 9 -24 -12 -3 -8 9 -13 22 -10 30 7
18 18 20 11 3z m47 -14 c9 -24 4 -24 -18 -3 -16 16 -17 19 -4 19 9 0 19 -7 22
-16z m57 -11 c-12 -20 -14 -14 -5 12 4 9 9 14 11 11 3 -2 0 -13 -6 -23z m25 1
c-4 -9 -9 -15 -11 -12 -3 3 -3 13 1 22 4 9 9 15 11 12 3 -3 3 -13 -1 -22z m90
7 c-11 -12 -15 -25 -11 -33 6 -10 5 -10 -5 -1 -11 10 -10 16 5 33 10 11 20 20
23 20 3 0 -3 -9 -12 -19z m1560 4 c-3 -8 -9 -22 -13 -32 -4 -11 -3 -14 5 -9 9
6 9 1 1 -18 -7 -14 -16 -23 -21 -20 -5 3 -8 0 -7 -7 4 -19 -11 -61 -28 -81
-13 -15 -12 -18 9 -29 38 -20 96 -69 118 -99 17 -24 18 -29 4 -34 -8 -3 -12
-2 -9 4 14 23 -42 56 -111 65 -30 4 -21 -26 12 -42 28 -13 32 -6 7 13 -17 12
-17 12 2 9 11 -2 26 -4 32 -4 8 -1 10 -8 5 -23 -13 -39 -3 -74 30 -110 26 -27
43 -52 30 -44 -7 4 -37 39 -68 77 -32 40 -72 78 -94 89 -46 23 -50 29 -16 23
23 -5 24 -2 30 54 9 92 12 104 25 113 10 5 10 9 2 15 -9 5 -9 10 0 21 6 7 15
12 19 9 5 -3 12 0 16 6 5 8 3 9 -6 4 -10 -6 -11 -4 -6 11 5 10 11 27 13 37 3
9 10 17 15 17 6 0 7 -7 4 -15z m-1362 -21 c9 -3 14 -10 11 -15 -3 -4 7 -6 23
-5 19 3 29 0 29 -9 0 -8 -5 -12 -11 -9 -6 3 -2 -2 9 -11 11 -9 19 -21 18 -26
-2 -5 7 -9 20 -10 67 -2 150 -26 144 -42 -2 -8 -43 -13 -131 -15 -101 -2 -127
0 -123 10 2 7 -1 27 -8 45 -15 36 -11 43 23 43 33 0 22 10 -14 14 -17 2 -30
10 -32 20 -4 16 14 21 42 10z m-1539 -15 c11 -17 -1 -21 -15 -4 -8 9 -8 15 -2
15 6 0 14 -5 17 -11z m812 -21 c-3 -8 -6 -5 -6 6 -1 11 2 17 5 13 3 -3 4 -12
1 -19z m278 12 c-3 -5 3 -10 15 -10 20 0 20 -1 -5 -25 -26 -27 -31 -36 -17
-34 20 3 24 -3 10 -18 -26 -31 -36 -76 -28 -129 11 -68 16 -76 55 -102 37 -23
48 -46 18 -35 -10 3 -23 10 -29 14 -6 5 -14 5 -18 1 -4 -4 -6 -2 -5 3 2 6 -7
29 -19 52 -12 23 -22 58 -22 77 0 19 -6 37 -12 39 -10 4 -10 8 1 15 7 5 10 15
6 21 -4 7 -1 18 5 26 6 8 8 20 4 27 -5 10 -4 11 7 1 20 -19 31 -15 17 6 -9 15
-9 23 1 35 14 17 7 21 -29 16 -10 -1 -9 3 5 14 22 17 50 21 40 6z m67 -22 c-7
-7 -12 -8 -12 -2 0 14 12 26 19 19 2 -3 -1 -11 -7 -17z m173 -10 c6 -6 4 -7
-6 -3 -10 4 -20 1 -24 -4 -3 -6 -12 -8 -18 -5 -7 4 -8 3 -4 -2 9 -9 13 -10 43
-13 9 0 12 -6 8 -13 -5 -7 -2 -9 7 -6 10 4 15 -1 16 -12 1 -10 -5 -21 -13 -24
-7 -3 -11 -12 -8 -19 3 -8 -2 -17 -12 -21 -14 -5 -15 -4 -4 9 10 12 10 15 -4
15 -9 0 -21 -12 -27 -26 -11 -30 -3 -47 11 -24 11 18 24 6 16 -15 -3 -9 -11
-13 -17 -9 -8 4 -8 0 0 -15 12 -22 31 -29 31 -10 0 5 -6 7 -12 3 -8 -4 -10 -3
-5 2 5 5 14 9 20 9 7 0 11 8 9 18 -2 9 2 17 8 17 5 0 10 -5 10 -11 0 -5 6 -7
13 -4 6 4 3 -1 -7 -9 -18 -14 -15 -21 7 -17 5 1 6 -3 3 -8 -4 -5 -21 -13 -39
-17 -25 -5 -28 -8 -14 -13 18 -6 17 -8 -3 -31 -12 -14 -18 -18 -14 -10 7 13 5
13 -8 2 -10 -8 -17 -9 -20 -3 -1 5 -15 12 -30 15 -23 4 -28 1 -28 -15 0 -10
-5 -19 -11 -19 -5 0 -7 5 -4 10 3 6 1 10 -5 10 -6 0 -8 5 -4 12 4 6 0 16 -8
22 -8 6 -23 24 -34 41 -17 26 -17 28 -1 22 9 -3 17 -2 17 3 0 6 -4 10 -10 10
-5 0 -7 7 -4 15 4 9 0 15 -8 15 -8 0 -23 6 -33 14 -19 13 -18 15 9 55 16 23
31 39 34 36 3 -3 -3 -14 -13 -25 -16 -18 -16 -20 -1 -26 23 -9 20 -27 -4 -21
-11 3 -22 2 -25 -3 -7 -12 38 -21 49 -10 13 13 29 13 21 0 -3 -5 -2 -10 3 -10
6 0 12 7 16 15 8 23 25 18 32 -10 3 -14 12 -25 19 -25 8 0 11 8 8 20 -3 11 -9
20 -13 20 -5 0 -7 17 -5 38 3 38 -10 66 -26 56 -16 -10 -9 -26 9 -20 14 5 14
4 -2 -9 -11 -8 -24 -15 -29 -15 -4 0 -6 -4 -2 -10 3 -5 13 -7 23 -4 14 5 15 4
2 -5 -19 -14 -43 -14 -35 -1 3 6 0 10 -7 11 -10 0 -10 2 0 6 6 2 12 11 12 19
0 8 -6 14 -12 14 -15 0 33 27 59 32 25 6 86 -3 98 -14z m1472 -81 c2 -90 0
-97 -18 -97 -18 0 -19 8 -19 101 0 90 2 100 18 97 15 -3 17 -17 19 -101z
m-2787 83 c0 -5 -4 -10 -10 -10 -5 0 -10 5 -10 10 0 6 5 10 10 10 6 0 10 -4
10 -10z m1467 -10 c-3 -11 -1 -18 4 -14 14 8 29 -5 22 -21 -3 -8 -12 -15 -20
-15 -8 0 -12 4 -8 9 9 15 -35 24 -51 10 -11 -9 -18 -9 -26 -1 -7 7 -10 12 -7
13 41 7 56 12 69 24 19 20 23 19 17 -5z m-1432 -40 c3 -5 1 -10 -4 -10 -6 0
-11 5 -11 10 0 6 2 10 4 10 3 0 8 -4 11 -10z m208 -12 c14 -11 17 -39 19 -195
2 -129 0 -179 -8 -172 -6 5 -9 22 -6 39 4 27 0 32 -32 45 -24 10 -34 20 -29
27 4 7 8 44 8 83 2 86 15 185 24 185 4 0 15 -6 24 -12z m180 -2 c9 -10 15 -38
16 -82 1 -57 -2 -69 -19 -81 -11 -8 -19 -24 -19 -36 1 -17 2 -18 6 -4 2 9 11
17 20 17 12 0 14 -9 9 -46 -3 -26 -7 -48 -9 -50 -2 -2 -20 1 -41 7 -27 8 -36
14 -32 27 8 28 15 74 21 127 16 145 18 151 48 121z m1031 -1 c10 -8 23 -12 27
-9 5 3 9 -1 9 -9 0 -22 26 -41 36 -26 5 9 48 10 159 6 142 -5 155 -7 194 -31
22 -15 41 -30 41 -35 0 -5 14 -14 30 -20 55 -19 35 -32 -42 -28 -51 4 -67 2
-54 -5 10 -6 36 -11 57 -12 24 0 39 -6 39 -13 0 -7 5 -13 11 -13 5 0 7 -5 3
-11 -7 -12 -145 -7 -229 7 -36 7 -39 6 -27 -9 8 -9 24 -19 35 -22 36 -11 190
-66 225 -82 17 -8 32 -20 32 -28 0 -8 3 -15 8 -15 4 0 13 -14 21 -31 11 -26
11 -32 -3 -47 -14 -16 -12 -20 20 -46 20 -15 33 -31 30 -34 -4 -3 -22 10 -42
29 -29 28 -36 31 -44 19 -9 -13 -14 -8 -12 11 1 4 -6 6 -16 5 -11 -1 -16 6
-16 17 2 13 -1 15 -11 7 -14 -12 -31 3 -21 18 3 5 -3 8 -12 8 -9 -1 -18 3 -19
8 -1 5 -7 13 -15 17 -8 5 -9 9 -2 9 7 0 15 7 18 16 4 12 2 15 -9 11 -12 -5
-269 189 -356 270 -15 13 -34 25 -42 27 -9 1 -25 10 -37 21 -14 13 -24 15 -31
8 -7 -7 -5 -14 5 -22 16 -13 11 -41 -6 -41 -7 0 -6 5 1 13 8 10 7 17 -1 25
-14 14 -20 45 -8 37 5 -3 11 -1 15 5 8 13 16 12 39 -5z m-579 -5 c3 -5 -1 -10
-11 -10 -13 0 -14 -3 -4 -14 10 -13 8 -13 -13 -3 -13 6 -24 17 -24 24 0 15 43
18 52 3z m489 -16 c3 -8 2 -12 -4 -9 -6 3 -10 10 -10 16 0 14 7 11 14 -7z
m-1294 -12 c0 -13 -12 -22 -22 -16 -10 6 -1 24 13 24 5 0 9 -4 9 -8z m459 -18
c-14 -18 -24 -11 -15 11 3 9 11 13 16 10 8 -5 7 -11 -1 -21z m53 4 c-17 -17
-15 -33 3 -18 13 11 14 10 9 -4 -5 -12 -2 -15 12 -10 15 5 16 4 4 -4 -8 -6
-18 -9 -22 -6 -4 3 -18 -1 -30 -7 -21 -11 -22 -11 -9 5 8 9 11 19 8 23 -8 8
12 33 26 33 7 0 7 -4 -1 -12z m58 8 c0 -3 -4 -8 -10 -11 -5 -3 -10 -1 -10 4 0
6 5 11 10 11 6 0 10 -2 10 -4z m722 -24 c3 -12 0 -19 -9 -19 -8 0 -12 6 -9 13
3 7 0 15 -7 18 -7 2 -5 5 4 5 9 1 19 -7 21 -17z m-285 -14 c-3 -8 -6 -5 -6 6
-1 11 2 17 5 13 3 -3 4 -12 1 -19z m378 12 c3 -5 1 -10 -4 -10 -6 0 -11 5 -11
10 0 6 2 10 4 10 3 0 8 -4 11 -10z m-960 -18 c-3 -3 -11 0 -18 7 -9 10 -8 11
6 5 10 -3 15 -9 12 -12z m45 8 c0 -5 -8 -10 -17 -10 -15 0 -16 2 -3 10 19 12
20 12 20 0z m570 -10 c0 -11 -4 -20 -10 -20 -5 0 -10 9 -10 20 0 11 5 20 10
20 6 0 10 -9 10 -20z m-757 -4 c3 3 4 -2 2 -13 -1 -10 -7 -17 -13 -16 -5 1
-15 -11 -22 -27 -6 -16 -20 -36 -31 -46 -18 -17 -19 -16 -19 21 0 45 44 102
65 85 7 -5 14 -7 18 -4z m1083 -13 c-10 -11 -37 -12 -30 -2 3 5 12 9 21 9 9 0
13 -3 9 -7z m64 3 c0 -3 -4 -8 -10 -11 -5 -3 -10 -1 -10 4 0 6 5 11 10 11 6 0
10 -2 10 -4z m-935 -23 c-2 -10 -4 -19 -4 -21 -1 -2 -6 0 -11 3 -8 5 -7 11 1
21 15 18 18 18 14 -3z m-385 3 c0 -2 -7 -9 -15 -16 -13 -11 -14 -10 -9 4 5 14
24 23 24 12z m347 -3 c-4 -3 -2 -11 3 -18 6 -8 5 -18 -4 -30 -12 -17 -14 -17
-14 11 0 30 5 44 15 44 4 0 3 -3 0 -7z m594 -6 c1 -6 2 -16 4 -22 1 -5 3 -16
3 -22 1 -7 5 -12 10 -12 4 1 12 1 19 0 17 -1 4 -31 -13 -31 -8 0 -17 7 -20 15
-4 8 -12 15 -19 15 -8 0 -16 4 -19 9 -4 5 4 7 16 4 22 -4 22 -4 3 8 -20 12
-35 29 -35 39 0 12 50 9 51 -3z m434 -17 c4 -6 -5 -5 -19 2 -14 6 -26 15 -26
20 0 10 36 -7 45 -22z m-144 11 c-11 -7 -10 -10 5 -14 16 -4 16 -5 -3 -6 -23
-1 -30 9 -16 22 3 4 11 7 17 7 6 0 5 -4 -3 -9z m1324 -11 c3 -6 -1 -7 -9 -4
-18 7 -21 14 -7 14 6 0 13 -4 16 -10z m-1088 -72 c35 -28 60 -55 56 -60 -3 -6
-1 -8 4 -5 10 6 108 -63 125 -87 4 -6 2 -16 -4 -23 -7 -9 -7 -13 1 -13 7 0 9
-4 6 -10 -3 -5 0 -7 8 -5 16 7 51 -30 42 -44 -9 -16 -25 -13 -25 3 0 17 -30
30 -30 13 0 -7 -5 -4 -11 6 -6 10 -8 30 -5 45 l6 27 -16 -22 c-9 -13 -21 -23
-26 -23 -6 0 -5 7 2 15 7 9 10 18 6 22 -3 3 -6 1 -6 -7 0 -10 -3 -10 -15 0
-13 10 -15 9 -15 -12 0 -13 4 -28 9 -33 5 -6 12 -20 16 -32 4 -17 2 -23 -8
-23 -9 0 -18 6 -20 13 -3 7 -6 4 -6 -6 -1 -11 -6 -16 -13 -12 -7 4 -4 -1 6 -9
11 -9 14 -16 8 -16 -8 0 -12 -20 -12 -60 0 -64 4 -71 26 -42 13 16 15 16 28 0
7 -10 18 -18 25 -18 6 0 11 -5 11 -10 0 -7 6 -7 18 -1 12 7 31 2 71 -19 l54
-29 -46 -22 c-51 -25 -67 -51 -67 -112 0 -48 -18 -90 -41 -95 -8 -1 -27 6 -41
18 -20 15 -28 35 -38 87 -11 66 -43 149 -72 187 -14 18 -15 18 -20 -8 -4 -21
-2 -26 9 -22 8 3 11 2 8 -3 -3 -6 1 -13 9 -18 39 -22 61 -203 34 -282 -7 -20
-25 -56 -41 -80 -15 -24 -26 -50 -23 -58 4 -9 -9 -30 -30 -51 -20 -20 -43 -47
-51 -59 -9 -13 -22 -23 -31 -23 -12 0 -13 3 -4 12 7 7 12 30 12 51 0 32 -3 37
-13 28 -8 -6 -16 -9 -18 -6 -3 2 -18 -23 -33 -55 -16 -33 -31 -60 -35 -60 -3
0 -4 25 -3 56 3 38 1 54 -7 50 -5 -4 -7 -14 -4 -23 4 -11 3 -14 -5 -9 -7 4
-12 2 -12 -4 0 -6 -11 -3 -25 7 -13 10 -22 24 -20 30 2 7 -1 12 -7 10 -6 -1
-15 9 -19 23 -4 14 -7 21 -8 17 -2 -15 -31 21 -31 37 0 9 7 16 16 16 10 0 -13
31 -59 83 l-74 82 25 23 c19 17 28 19 34 10 4 -7 8 -9 8 -4 0 13 28 -19 65
-73 16 -24 35 -45 42 -48 7 -3 13 -11 13 -18 0 -7 7 -18 15 -25 20 -17 19 -7
-5 41 -15 28 -19 49 -14 74 6 31 4 33 -18 28 -19 -4 -18 -2 6 11 20 11 33 13
40 6 6 -6 6 -10 0 -10 -15 0 -15 -47 0 -53 17 -7 30 19 15 29 -5 3 -7 15 -4
25 4 11 1 27 -7 36 -9 12 -9 15 -1 9 7 -4 24 -27 39 -52 22 -37 31 -44 57 -44
28 1 29 2 14 11 -18 10 -18 12 -1 30 9 10 22 19 27 19 6 0 19 7 29 17 16 14
18 14 18 1 0 -9 7 -22 17 -29 15 -13 15 -11 -1 18 -15 29 -20 32 -51 28 -19
-2 -35 0 -35 5 0 6 4 10 10 10 5 0 7 13 4 30 -5 25 -3 30 12 31 11 1 6 4 -11
8 -28 6 -30 9 -30 51 0 42 2 45 28 48 19 2 27 8 23 17 -5 15 14 25 50 25 13 0
24 5 24 10 0 13 -36 13 -62 -1 -46 -25 -97 -16 -52 9 11 6 13 11 5 16 -6 4
-11 3 -11 -3 0 -18 -49 10 -57 33 -4 12 -6 24 -5 29 1 4 -6 8 -16 9 -9 0 -22
2 -27 2 -6 1 -22 12 -35 25 -18 17 -20 22 -7 18 9 -4 17 -2 17 3 0 6 -7 10
-15 10 -14 0 -17 13 -18 60 0 9 -6 21 -13 28 -8 8 -14 8 -14 2 0 -5 -6 -10
-12 -10 -7 1 1 13 18 28 24 20 31 34 28 55 -3 31 2 33 27 11 14 -13 21 -13 36
-4 16 10 16 11 1 6 -10 -3 -18 -1 -18 4 0 16 17 20 29 6 10 -12 42 -12 81 0
18 6 20 6 19 -2 -1 -12 26 -24 44 -18 11 3 17 0 17 -10 0 -10 6 -13 15 -10 16
6 125 -42 125 -55 0 -14 -45 -7 -63 10 -25 23 -57 31 -50 13 3 -8 9 -11 14 -8
5 3 9 -6 9 -20 0 -13 7 -31 15 -40 17 -17 49 -11 38 8 -3 6 -2 8 2 3 5 -4 19
3 32 15 13 12 23 19 23 15 0 -3 14 -1 31 5 26 9 29 12 15 20 -8 5 -19 8 -22 8
-4 -1 -10 4 -15 11 -4 7 -25 13 -46 12 -27 0 -32 2 -18 7 19 7 19 7 -2 14 -14
4 -20 12 -16 22 4 10 0 12 -11 8 -9 -3 -23 -1 -30 5 -9 8 -17 8 -20 2 -3 -5
-1 -11 6 -13 7 -3 5 -7 -6 -11 -10 -4 -15 -3 -11 3 3 6 0 10 -7 11 -11 0 -11
2 0 6 10 4 9 9 -4 24 -17 19 -50 27 -40 10 3 -4 -5 -6 -18 -4 -21 4 -34 33
-14 33 4 0 8 7 8 15 0 30 70 5 137 -47z m-1474 29 c-5 -8 -8 -7 -11 1 -2 7 -9
9 -14 6 -7 -4 -8 -2 -4 4 4 6 13 9 21 6 8 -4 12 -11 8 -17z m1248 -20 c-10 -9
-11 -8 -5 6 3 10 9 15 12 12 3 -3 0 -11 -7 -18z m1599 13 c0 -5 -6 -10 -14
-10 -8 0 -18 5 -21 10 -3 6 3 10 14 10 12 0 21 -4 21 -10z m-2937 -15 c-3 -9
-8 -14 -10 -11 -3 3 -2 9 2 15 9 16 15 13 8 -4z m1303 -7 c5 -7 3 -8 -5 -4 -7
5 -19 0 -27 -10 -14 -18 -14 -18 -4 4 12 24 25 28 36 10z m1569 -6 c-3 -3 -11
0 -18 7 -9 10 -8 11 6 5 10 -3 15 -9 12 -12z m-95 -2 c0 -5 -2 -10 -4 -10 -3
0 -8 5 -11 10 -3 6 -1 10 4 10 6 0 11 -4 11 -10z m42 -66 c6 -13 9 -27 5 -30
-8 -9 -52 38 -53 58 -2 25 33 4 48 -28z m-2867 26 c-3 -5 -12 -10 -18 -10 -7
0 -6 4 3 10 19 12 23 12 15 0z m1175 -10 c0 -5 -5 -10 -11 -10 -5 0 -7 5 -4
10 3 6 8 10 11 10 2 0 4 -4 4 -10z m-1200 -14 c0 -2 -7 -7 -16 -10 -8 -3 -12
-2 -9 4 6 10 25 14 25 6z m1298 -24 c6 -18 -15 -14 -22 4 -4 10 -1 14 6 12 6
-2 14 -10 16 -16z m-1343 -2 c-3 -5 -12 -10 -18 -10 -7 0 -6 4 3 10 19 12 23
12 15 0z m471 -47 c-10 -26 -18 -8 -9 23 5 21 8 24 11 11 2 -10 1 -25 -2 -34z
m2564 -4 c0 -4 -11 -2 -24 4 -13 7 -22 15 -20 19 5 8 44 -13 44 -23z m-1686
-188 c5 -15 5 -21 -2 -17 -6 3 -12 2 -14 -3 -1 -5 -19 4 -38 21 l-35 30 32
-16 c18 -9 34 -16 37 -16 2 0 3 37 1 83 l-4 82 8 -70 c4 -38 11 -81 15 -94z
m-1087 30 c9 9 16 9 26 1 10 -9 17 -8 26 1 9 9 14 9 21 -3 8 -13 11 -12 23 4
13 18 14 18 21 1 5 -14 9 -15 22 -4 13 10 17 10 24 -2 8 -12 11 -11 23 5 13
18 14 18 21 1 5 -14 9 -15 22 -4 13 10 19 8 42 -15 23 -25 24 -27 5 -17 -12 6
-25 16 -28 22 -4 6 -12 3 -20 -8 -13 -17 -14 -17 -20 0 -6 14 -10 15 -21 6
-11 -9 -17 -9 -28 0 -11 9 -15 8 -21 -6 -6 -17 -7 -17 -19 0 -12 16 -15 16
-26 1 -12 -14 -14 -14 -23 2 -9 15 -11 15 -23 -7 l-14 -24 -6 24 c-7 23 -8 23
-21 6 -13 -18 -13 -18 -27 0 -13 18 -14 18 -25 -3 -7 -13 -16 -20 -22 -17 -5
4 1 19 13 34 22 26 24 27 33 9 8 -14 14 -15 22 -7z m1787 -2 c-3 -5 -11 -9
-17 -8 -8 0 -8 2 1 6 10 4 10 8 0 21 -12 15 -11 16 4 3 10 -7 15 -17 12 -22z
m596 -45 c0 -32 -1 -32 -31 -24 -39 12 -48 20 -23 21 11 0 13 3 6 6 -6 2 -10
9 -7 13 3 5 -4 14 -15 20 -36 19 -12 29 30 13 35 -14 40 -20 40 -49z m-639 25
c14 -10 29 -16 33 -14 3 3 5 3 4 1 -2 -2 -6 -4 -9 -3 -4 1 -17 -7 -30 -18 -19
-17 -21 -18 -16 -3 7 19 -22 42 -39 30 -11 -8 -12 -37 -1 -48 4 -4 7 -1 7 6 0
16 13 5 16 -14 3 -19 -28 -15 -47 6 -9 10 -19 15 -23 11 -3 -3 -6 -1 -6 5 0 6
-9 14 -21 17 -22 7 -21 29 2 31 8 0 21 4 29 7 46 17 58 16 101 -14z m-731 -23
c0 13 20 -19 20 -32 0 -7 -8 -11 -17 -10 -18 1 -31 19 -32 45 -1 11 2 11 14 1
8 -7 15 -9 15 -4z m570 -4 c0 -4 18 -18 40 -32 21 -13 37 -26 35 -28 -4 -4
-95 56 -95 63 0 3 5 5 10 5 6 0 10 -3 10 -8z m-467 -97 c22 -44 46 -88 55 -97
8 -10 11 -18 6 -18 -12 0 -49 56 -69 103 -16 38 -32 47 -41 23 -3 -8 -11 -12
-19 -10 -7 3 -22 -10 -34 -29 -12 -19 -38 -47 -58 -63 -31 -23 -34 -29 -18
-34 13 -5 7 -9 -25 -19 -64 -19 -126 -81 -133 -133 -7 -49 -1 -64 19 -47 22
18 16 -6 -6 -26 -21 -19 -28 -41 -8 -29 7 4 8 3 4 -5 -4 -6 -11 -9 -15 -6 -5
2 -6 -6 -4 -18 3 -15 -5 -31 -26 -51 -17 -17 -31 -35 -31 -42 0 -7 -5 -16 -12
-20 -7 -5 -9 -2 -6 8 4 10 -12 38 -42 74 -27 32 -47 60 -45 62 10 10 48 -24
71 -63 l26 -45 22 28 c25 29 33 62 40 155 5 62 32 110 83 144 14 10 47 38 74
62 40 36 47 46 37 58 -14 17 -18 53 -7 53 14 0 20 -18 9 -25 -8 -5 -7 -11 1
-21 10 -13 14 -12 30 2 19 17 20 38 5 62 -6 10 -3 13 10 10 11 -2 18 -10 17
-16 -2 -7 0 -12 4 -12 11 0 43 33 43 44 0 6 -4 5 -9 -2 -6 -10 -10 -9 -14 7
-4 16 -1 21 11 19 8 -2 33 -39 55 -83z m112 74 c4 -6 5 -13 1 -16 -8 -8 -56 6
-56 17 0 13 47 13 55 -1z m1546 -16 c13 -16 12 -17 -3 -4 -17 13 -22 21 -14
21 2 0 10 -8 17 -17z m-1810 -20 c13 -17 13 -17 -6 -3 -11 8 -22 16 -24 17 -2
2 0 3 6 3 6 0 17 -8 24 -17z m1484 2 c11 -2 48 -10 83 -16 39 -8 66 -9 70 -3
10 13 35 17 27 4 -4 -6 4 -10 19 -10 14 0 28 -5 31 -10 4 -6 10 -8 14 -6 7 5
12 -21 11 -72 0 -18 4 -31 9 -27 5 3 13 0 16 -6 5 -7 -15 -9 -66 -5 -41 4 -75
11 -77 16 -2 6 -12 10 -22 10 -14 0 -17 -5 -12 -22 3 -13 11 -27 19 -31 15 -9
18 -43 4 -51 -5 -4 -11 -1 -13 5 -3 8 -47 11 -148 8 -232 -5 -228 -5 -247 14
-9 9 -14 20 -10 24 4 3 13 1 19 -5 16 -16 28 -15 28 3 0 12 8 14 31 10 17 -3
34 -6 37 -6 4 -1 40 -1 80 0 72 1 72 1 66 26 -5 19 -2 25 9 25 28 0 67 -23 67
-38 0 -20 10 -10 15 16 3 18 -5 22 -64 37 -36 9 -73 21 -81 26 -13 9 -13 10 0
6 9 -3 25 2 35 10 19 15 19 15 -3 10 -12 -3 -20 -1 -17 3 3 5 2 10 -2 13 -5 2
-3 2 4 1 7 -2 15 1 18 6 4 6 -2 10 -12 10 -20 1 -53 22 -53 35 0 7 40 3 115
-10z m-1241 -4 c7 -11 -22 -23 -35 -15 -5 3 -9 9 -9 15 0 12 37 12 44 0z
m-1114 -106 c3 -11 27 -49 53 -85 46 -62 153 -290 137 -290 -5 0 -57 48 -116
108 -59 59 -97 94 -83 77 13 -16 34 -38 47 -48 28 -23 31 -61 4 -53 -13 5 -22
-1 -30 -16 l-11 -23 0 23 c-1 22 -28 79 -77 157 -20 33 -23 48 -18 88 l6 47
-43 0 c-30 0 -40 3 -33 10 17 17 64 22 64 8 0 -7 5 -5 11 5 15 26 81 20 89 -8z
m2687 -37 c-3 -8 -6 -5 -6 6 -1 11 2 17 5 13 3 -3 4 -12 1 -19z m-87 -50 c0
-5 -5 -6 -12 -2 -7 4 -8 3 -4 -4 4 -7 14 -12 23 -12 9 0 14 -3 10 -6 -3 -3
-19 -3 -36 1 -26 6 -29 9 -21 25 10 19 40 17 40 -2z m-73 -40 c-3 -7 -5 -2 -5
12 0 14 2 19 5 13 2 -7 2 -19 0 -25z m-125 -10 c-7 -7 -12 -8 -12 -2 0 14 12
26 19 19 2 -3 -1 -11 -7 -17z m-480 -5 c21 -24 32 -63 19 -63 -6 0 -18 11 -26
24 l-16 24 -82 -45 c-45 -25 -86 -49 -91 -54 -6 -5 -18 -9 -28 -9 -10 0 -18
-4 -18 -10 0 -5 -7 -7 -15 -3 -10 3 -15 0 -13 -8 2 -8 -4 -13 -14 -13 -10 1
-18 -2 -18 -6 0 -4 -17 -17 -37 -27 -95 -49 -128 -68 -134 -76 -4 -6 -14 -7
-23 -4 -11 4 -16 1 -16 -10 0 -9 -3 -13 -7 -10 -3 4 -11 1 -17 -7 -18 -21
-220 -123 -235 -118 -8 3 -11 0 -7 -6 3 -6 -19 -24 -51 -41 -37 -21 -59 -27
-63 -20 -4 6 -9 2 -13 -10 -3 -12 -11 -21 -17 -21 -9 0 -9 4 1 17 10 11 10 14
2 9 -8 -4 -13 -2 -13 6 0 8 -5 7 -16 -4 -14 -14 -14 -23 -5 -68 10 -46 9 -55
-5 -71 -31 -34 -76 -18 -90 31 -10 36 -28 67 -39 67 -20 0 -19 -9 6 -62 12
-26 18 -52 14 -62 -5 -15 -10 -13 -35 17 -16 19 -30 39 -30 43 0 11 -43 71
-57 80 -22 14 -15 56 10 68 13 6 29 19 35 30 12 18 10 19 -15 13 -16 -3 -52
-17 -81 -30 -29 -13 -51 -20 -48 -16 3 4 7 27 10 50 2 24 10 51 18 60 12 15
10 15 -14 -1 -35 -22 -35 -15 -2 29 15 19 35 34 45 34 11 0 19 4 19 9 0 6 -12
6 -30 1 -44 -13 -29 3 45 46 66 39 72 57 22 67 -13 3 -7 5 15 6 20 0 40 -3 43
-9 3 -5 13 -10 21 -10 8 0 33 -12 57 -27 27 -17 37 -20 28 -9 -18 21 -124 76
-148 76 -15 0 -15 2 3 15 25 19 53 19 74 0 16 -14 18 -14 23 -1 4 10 -5 24
-23 38 -16 13 -44 35 -62 50 l-33 28 28 0 c53 0 111 -44 156 -120 25 -42 26
-50 5 -50 -15 0 -15 -2 0 -25 10 -15 12 -25 6 -25 -6 0 -9 -4 -6 -9 3 -5 -1
-14 -9 -21 -8 -7 -12 -16 -9 -22 10 -16 -39 -79 -59 -74 -9 2 -15 0 -11 -5 3
-5 11 -9 18 -9 7 0 33 -16 57 -35 24 -19 49 -35 55 -35 5 0 20 -9 32 -20 l22
-21 92 52 c51 28 129 70 173 94 101 54 157 85 170 95 6 4 55 31 110 60 55 29
105 56 110 60 37 27 108 59 118 54 7 -4 9 -3 4 1 -6 7 76 64 94 65 3 0 13 -8
21 -17z m712 -8 c6 -18 -14 -95 -26 -95 -5 0 -6 -5 -2 -11 4 -8 1 -8 -14 0
-13 7 -19 17 -16 26 7 18 -7 20 -25 3 -11 -10 -10 -8 0 10 8 12 18 22 24 22 5
0 5 4 -2 8 -7 4 -10 17 -7 29 5 16 13 21 34 21 16 -1 31 -7 34 -13z m-2649
-135 c3 -17 0 -20 -15 -15 -14 5 -20 -1 -25 -25 -4 -16 -10 -30 -15 -30 -4 0
-4 17 1 38 5 20 9 55 9 77 l0 40 21 -32 c11 -17 22 -41 24 -53z m2339 48 c8
-13 7 -26 -1 -48 -6 -17 -7 -32 -2 -36 13 -7 11 -48 -2 -61 -8 -8 -8 -17 -1
-29 7 -13 5 -28 -10 -56 -19 -37 -46 -54 -34 -22 6 15 4 15 -11 3 -9 -8 -14
-9 -10 -2 4 6 3 14 -3 18 -6 4 -7 11 -4 17 4 7 2 8 -4 4 -16 -10 -15 26 1 43
10 11 10 14 0 18 -15 6 -17 59 -3 68 7 4 6 13 -1 27 -12 23 -3 72 11 63 6 -3
10 -1 10 5 0 17 52 7 64 -12z m-1709 -18 c-3 -5 -12 -10 -18 -10 -7 0 -6 4 3
10 19 12 23 12 15 0z m-469 -118 c-24 -5 -53 25 -61 63 -7 30 -6 30 37 -15 36
-38 40 -45 24 -48z m-138 4 c-10 -9 -78 -14 -73 -5 4 5 19 9 36 9 20 0 29 5
30 18 1 15 2 15 6 -1 3 -10 3 -20 1 -21z m-98 0 c0 -9 -50 -12 -62 -5 -8 6 1
9 25 9 20 0 37 -2 37 -4z m153 -3 c-7 -2 -21 -2 -30 0 -10 3 -4 5 12 5 17 0
24 -2 18 -5z m1137 -67 c0 -7 -9 -16 -20 -19 -22 -6 -23 -5 -14 17 8 20 34 21
34 2z m-139 -33 c13 -16 12 -17 -3 -4 -10 7 -18 15 -18 17 0 8 8 3 21 -13z
m-461 -1 c0 -5 -7 -17 -15 -28 -14 -18 -14 -17 -4 9 12 27 19 34 19 19z m-601
-54 c26 -42 33 -63 33 -110 1 -44 5 -58 16 -58 11 0 12 -3 3 -14 -7 -8 -14
-42 -16 -77 -5 -71 -24 -105 -27 -49 -1 19 -2 53 -3 76 -1 22 -5 46 -9 52 -3
6 -2 13 3 16 5 4 9 33 9 66 -1 50 -5 64 -30 90 -29 32 -33 42 -21 53 9 10 7
12 42 -45z m559 -23 c-6 -14 -13 -23 -15 -21 -5 5 15 46 22 46 3 0 -1 -11 -7
-25z m1207 5 c3 -5 -1 -10 -10 -10 -9 0 -13 5 -10 10 3 6 8 10 10 10 2 0 7 -4
10 -10z m35 -5 c0 -8 -4 -15 -8 -15 -5 0 -9 7 -9 15 0 8 4 15 9 15 4 0 8 -7 8
-15z m125 5 c3 -6 -1 -7 -9 -4 -18 7 -21 14 -7 14 6 0 13 -4 16 -10z m-607
-60 c2 -14 13 -35 23 -49 10 -13 19 -29 19 -36 0 -6 7 -26 16 -44 27 -54 44
-131 50 -232 l7 -96 -32 -11 c-23 -8 -31 -8 -31 0 0 6 -3 8 -7 5 -3 -4 -12 1
-18 10 -12 16 -14 16 -29 0 -10 -9 -22 -17 -27 -17 -6 0 -7 -5 -3 -11 3 -6 17
-8 33 -4 21 5 23 4 14 -6 -10 -10 -21 -10 -55 1 -24 8 -48 21 -55 30 -9 10
-12 11 -13 3 0 -24 -25 -13 -47 20 -26 38 -29 53 -10 60 9 3 7 9 -5 24 -24 26
-23 36 2 28 11 -4 20 -2 20 4 0 6 -6 11 -14 11 -7 0 -19 7 -26 15 -10 12 -7
13 21 5 18 -5 34 -8 36 -6 8 7 -11 37 -29 47 -13 7 -16 14 -10 22 5 7 12 22
15 35 5 21 -7 29 -38 22 -5 -1 -6 2 -2 7 5 4 14 8 20 8 7 1 11 6 10 13 -2 7 3
12 10 12 7 0 18 14 24 30 8 21 8 30 0 30 -15 0 31 48 73 76 41 27 54 26 58 -6z
m529 24 c-3 -3 -12 -4 -19 -1 -8 3 -5 6 6 6 11 1 17 -2 13 -5z m118 -4 c3 -5
-1 -10 -10 -10 -9 0 -13 5 -10 10 3 6 8 10 10 10 2 0 7 -4 10 -10z m-1418 -32
c-3 -8 -6 -5 -6 6 -1 11 2 17 5 13 3 -3 4 -12 1 -19z m155 -5 c-3 -16 -7 -22
-10 -15 -4 13 4 42 11 42 2 0 2 -12 -1 -27z m-46 -27 c-21 -33 -20 -43 2 -23
16 14 21 15 38 3 11 -8 26 -30 34 -50 7 -20 17 -36 22 -36 10 0 41 -60 35 -67
-3 -2 -23 18 -44 46 -21 27 -43 50 -49 50 -6 1 -17 8 -24 16 -7 8 -16 15 -21
15 -5 0 -9 -7 -9 -15 0 -8 -4 -15 -10 -15 -18 0 -11 50 12 80 26 35 38 32 14
-4z m1289 15 c-3 -6 -11 -11 -17 -11 -6 0 -6 6 2 15 14 17 26 13 15 -4z m-135
-34 c0 -4 -6 -2 -14 5 -8 7 -12 17 -9 22 5 8 23 -12 23 -27z m-2184 7 c18 6
18 6 1 -8 -18 -14 -17 -15 5 -19 21 -4 21 -4 -3 -6 -26 -1 -39 14 -39 42 0 8
4 7 9 -2 5 -8 16 -11 27 -7z m2219 -4 c3 -5 1 -10 -4 -10 -6 0 -11 5 -11 10 0
6 2 10 4 10 3 0 8 -4 11 -10z m-749 -39 c-8 -12 -46 -15 -46 -5 0 4 8 13 18
20 18 14 39 3 28 -15z m-1129 5 c0 -8 -6 -12 -14 -9 -7 3 -10 9 -7 14 8 14 21
11 21 -5z m633 -13 c0 -19 -3 -24 -10 -17 -6 6 -8 18 -4 27 9 24 14 21 14 -10z
m1670 17 c0 -5 -4 -10 -10 -10 -5 0 -10 5 -10 10 0 6 5 10 10 10 6 0 10 -4 10
-10z m-2073 -24 c-4 -10 -1 -13 7 -10 8 3 17 1 21 -5 4 -7 -5 -11 -24 -11 -17
0 -31 2 -31 4 0 14 14 36 22 36 6 0 8 -7 5 -14z m-427 -27 c15 -28 5 -23 -15
7 -9 15 -12 23 -6 20 6 -4 16 -16 21 -27z m344 21 c7 0 13 -6 13 -12 0 -7 -11
-13 -24 -13 -14 0 -21 5 -19 12 3 6 2 14 -2 16 -4 2 -1 2 6 0 8 -1 19 -3 26
-3z m1829 -11 c-5 -17 -7 -17 -29 -2 -30 19 -30 20 5 20 22 0 27 -4 24 -18z
m257 11 c0 -5 -5 -10 -11 -10 -5 0 -7 5 -4 10 3 6 8 10 11 10 2 0 4 -4 4 -10z
m-2040 -9 c0 -6 -4 -13 -10 -16 -5 -3 -10 1 -10 9 0 9 5 16 10 16 6 0 10 -4
10 -9z m500 -78 l29 -29 -27 2 c-32 2 -84 -25 -75 -39 3 -6 1 -7 -5 -4 -14 9
-43 -3 -36 -14 5 -8 -9 -13 -28 -10 -5 0 -8 -3 -8 -7 0 -5 -7 -9 -17 -9 -12 0
-8 7 12 23 24 19 27 25 16 38 -8 9 -10 16 -6 16 4 0 2 7 -5 15 -19 23 4 18 25
-5 22 -24 36 -25 75 -5 34 17 37 31 15 55 -10 11 -13 24 -8 36 7 16 8 15 11
-8 2 -15 16 -40 32 -55z m1678 44 c49 -6 111 -48 108 -74 0 -10 4 -17 11 -16
6 1 16 -12 22 -29 l11 -31 -22 19 c-12 10 -29 25 -37 33 -27 24 -101 51 -149
52 -56 2 -127 -29 -173 -75 -30 -30 -31 -30 -24 -6 22 75 61 110 125 113 21 0
36 5 34 9 -3 4 4 8 15 8 12 0 21 6 21 13 0 8 3 9 8 1 4 -6 26 -14 50 -17z
m-885 -22 c-3 -9 -8 -14 -10 -11 -3 3 -2 9 2 15 9 16 15 13 8 -4z m462 -15
c-3 -5 -12 -10 -18 -10 -7 0 -6 4 3 10 19 12 23 12 15 0z m-1429 -27 c-3 -8
-1 -11 4 -8 6 3 10 -1 10 -9 0 -17 -17 -21 -39 -7 -10 7 -11 13 -2 30 13 23
36 18 27 -6z m393 -148 c0 -5 -4 -3 -9 5 -5 8 -9 22 -9 30 0 16 17 -16 18 -35z
m461 -85 c0 -5 -5 -10 -11 -10 -5 0 -7 5 -4 10 3 6 8 10 11 10 2 0 4 -4 4 -10z
m-509 -347 c1 -17 2 -17 6 0 2 9 12 17 22 17 14 0 17 -7 15 -32 l-3 -33 11 33
c12 34 37 44 39 15 1 -17 2 -17 6 0 3 12 15 17 44 17 33 0 39 -3 40 -22 l2
-23 4 23 c4 19 11 22 49 22 l44 0 0 -45 c0 -25 5 -45 10 -45 6 0 10 -7 10 -16
0 -12 -9 -14 -42 -12 -41 3 -43 4 -41 33 l2 30 -11 -32 c-13 -39 -38 -44 -38
-9 0 14 -5 28 -11 32 -8 4 -9 -3 -4 -25 4 -20 3 -31 -4 -31 -6 0 -11 8 -11 17
0 15 -2 14 -14 -3 -13 -16 -18 -17 -35 -7 -14 9 -22 9 -26 2 -8 -12 -57 -8
-67 6 -5 6 -8 5 -8 -2 0 -7 -4 -13 -10 -13 -6 0 -10 27 -10 60 0 47 3 60 15
60 8 0 16 -8 16 -17z m449 -33 c0 -27 5 -50 10 -50 6 0 10 23 10 50 l0 50 35
0 35 0 0 -55 c0 -57 -18 -81 -42 -57 -8 8 -15 8 -24 1 -22 -18 -34 0 -34 52 0
27 -4 49 -10 49 -5 0 -10 -22 -10 -49 0 -28 -4 -53 -10 -56 -6 -4 -10 15 -10
49 0 31 -4 56 -10 56 -5 0 -10 -5 -10 -11 0 -8 -5 -8 -15 1 -12 10 -15 9 -15
-8 0 -11 7 -23 16 -26 24 -9 15 -61 -11 -61 -11 0 -21 8 -23 18 -2 9 1 17 7
17 6 0 11 -4 11 -10 0 -5 5 -10 10 -10 18 0 11 29 -10 40 -19 10 -27 40 -13
53 3 4 30 7 60 7 l53 0 0 -50z m170 -6 c0 -42 -4 -56 -17 -61 -10 -4 -19 -1
-21 6 -3 9 -7 9 -18 0 -12 -10 -14 -2 -14 48 l0 60 35 1 35 1 0 -55z m55 45
c4 -6 4 -13 0 -17 -4 -4 -10 -1 -12 6 -3 6 -9 12 -14 12 -16 0 -10 -25 11 -43
24 -20 26 -53 4 -61 -21 -8 -34 1 -33 22 0 11 3 12 6 5 2 -7 9 -13 14 -13 14
0 10 26 -6 40 -23 19 -19 60 4 60 11 0 23 -5 26 -11z m-832 -96 c-46 -2 -120
-2 -165 0 -46 1 -9 3 82 3 91 0 128 -2 83 -3z m745 -30 c-49 -2 -127 -2 -175
0 -49 1 -9 3 87 3 96 0 136 -2 88 -3z m-822 -77 c48 -48 46 -77 -2 -34 -36 34
-101 54 -118 37 -6 -5 -15 -9 -20 -9 -6 0 3 9 19 20 45 30 81 26 121 -14z
m159 20 c-53 -23 -71 -93 -35 -138 10 -14 16 -28 12 -32 -3 -4 0 -11 8 -16 12
-8 11 -10 -6 -10 -40 0 -66 32 -72 88 -4 48 -2 54 31 87 24 24 44 35 64 35
l28 -1 -30 -13z m209 -61 c37 -41 60 -72 50 -68 -13 5 -15 3 -9 -8 4 -8 -13 6
-39 31 l-46 44 0 -38 c0 -33 -2 -37 -15 -26 -10 9 -15 32 -15 76 0 35 1 64 3
64 2 0 34 -34 71 -75z m94 34 c2 -18 0 -54 -4 -79 l-7 -45 -13 40 c-14 44 -18
108 -7 119 14 14 28 -2 31 -35z m122 12 c0 -16 -6 -31 -15 -35 -12 -4 -15 3
-15 29 0 24 5 35 15 35 10 0 15 -10 15 -29z m84 -16 c-20 -25 -39 -45 -41 -45
-3 0 0 6 6 13 15 19 1 30 -18 14 -9 -6 -2 5 14 25 18 22 39 37 53 37 22 1 22
-1 -14 -44z m83 15 l23 -26 -25 0 c-21 0 -25 5 -25 30 0 16 1 27 3 25 1 -2 12
-15 24 -29z m133 9 c0 -11 -7 -27 -15 -35 -13 -14 -15 -11 -15 20 0 25 4 36
15 36 9 0 15 -9 15 -21z m70 -4 c0 -17 -4 -23 -14 -19 -8 3 -16 -2 -19 -13 -3
-10 -5 -1 -6 20 -1 31 2 37 19 37 15 0 20 -7 20 -25z m181 9 c24 -12 28 -18
19 -29 -10 -12 -17 -11 -46 2 -33 16 -35 16 -64 -6 -17 -12 -30 -18 -29 -14 3
20 -2 24 -18 13 -10 -7 -3 1 15 19 37 35 75 40 123 15z m90 7 c6 10 9 8 9 -8
0 -16 -4 -21 -15 -17 -8 4 -15 14 -14 23 0 12 2 12 6 2 5 -11 7 -11 14 0z
m116 -28 c-3 -10 -5 -4 -5 12 0 17 2 24 5 18 2 -7 2 -21 0 -30z m30 15 c-3 -8
-6 -5 -6 6 -1 11 2 17 5 13 3 -3 4 -12 1 -19z m-189 -273 c-6 -7 -839 -7 -846
0 -3 3 187 5 423 5 236 0 426 -2 423 -5z"/>
<path d="M3190 4620 c0 -5 5 -10 11 -10 5 0 7 5 4 10 -3 6 -8 10 -11 10 -2 0
-4 -4 -4 -10z"/>
<path d="M3256 4572 c-2 -4 4 -8 14 -8 10 0 16 4 14 8 -3 4 -9 8 -14 8 -5 0
-11 -4 -14 -8z"/>
<path d="M3376 4613 c-3 -3 -6 -13 -6 -22 0 -12 2 -13 9 -3 6 10 11 10 21 -3
12 -14 11 -18 -1 -26 -8 -5 -10 -9 -5 -9 5 0 1 -9 -9 -20 -10 -11 -15 -23 -10
-28 4 -4 10 -1 12 6 3 6 9 10 14 6 5 -3 9 -2 8 3 -4 21 2 33 16 33 12 0 13 3
5 13 -6 6 -19 22 -29 34 -10 13 -21 20 -25 16z"/>
<path d="M3457 4553 c-4 -3 -7 -11 -7 -17 0 -6 5 -5 12 2 6 6 9 14 7 17 -3 3
-9 2 -12 -2z"/>
<path d="M3420 4530 c0 -5 5 -10 10 -10 6 0 10 5 10 10 0 6 -4 10 -10 10 -5 0
-10 -4 -10 -10z"/>
<path d="M3336 4498 c3 -5 10 -6 15 -3 13 9 11 12 -6 12 -8 0 -12 -4 -9 -9z"/>
<path d="M3350 4420 c0 -5 5 -10 11 -10 5 0 7 5 4 10 -3 6 -8 10 -11 10 -2 0
-4 -4 -4 -10z"/>
<path d="M2669 4145 c-3 -2 -14 -6 -25 -8 -10 -1 -30 -11 -44 -21 l-25 -18 25
7 c43 12 106 43 89 44 -9 1 -18 -1 -20 -4z"/>
<path d="M2525 4000 c-3 -5 1 -10 10 -10 9 0 13 5 10 10 -3 6 -8 10 -10 10 -2
0 -7 -4 -10 -10z"/>
<path d="M2750 4309 c0 -5 5 -7 10 -4 6 3 10 8 10 11 0 2 -4 4 -10 4 -5 0 -10
-5 -10 -11z"/>
<path d="M2700 4029 c-18 -14 -20 -17 -6 -12 14 5 17 3 11 -7 -5 -9 -4 -11 4
-6 6 4 8 12 5 18 -5 7 -1 9 9 5 9 -3 19 -1 23 5 4 6 3 8 -4 4 -5 -3 -12 -2
-14 3 -1 6 -14 1 -28 -10z"/>
<path d="M2610 3950 c0 -5 5 -10 10 -10 6 0 10 5 10 10 0 6 -4 10 -10 10 -5 0
-10 -4 -10 -10z"/>
<path d="M2648 3953 c7 -3 16 -2 19 1 4 3 -2 6 -13 5 -11 0 -14 -3 -6 -6z"/>
<path d="M2766 3885 c-11 -8 -17 -17 -14 -20 2 -3 13 4 23 15 21 23 18 25 -9
5z"/>
<path d="M1224 3947 c-8 -21 2 -35 16 -21 5 5 6 15 0 24 -8 12 -10 12 -16 -3z"/>
<path d="M2381 3482 c-1 -8 -6 -10 -13 -6 -10 5 -10 4 -1 -6 15 -16 28 -8 20
12 -4 11 -6 11 -6 0z"/>
<path d="M2595 3530 c-3 -5 -2 -10 4 -10 5 0 13 5 16 10 3 6 2 10 -4 10 -5 0
-13 -4 -16 -10z"/>
<path d="M2176 3383 c-6 -14 -5 -15 5 -6 7 7 10 15 7 18 -3 3 -9 -2 -12 -12z"/>
<path d="M2110 3340 c-8 -5 -12 -12 -9 -15 4 -3 12 1 19 10 14 17 11 19 -10 5z"/>
<path d="M1895 3280 c-3 -6 1 -7 9 -4 9 3 16 1 16 -5 0 -6 5 -11 10 -11 6 0
10 7 10 15 0 17 -35 21 -45 5z"/>
<path d="M1788 3223 c7 -3 16 -2 19 1 4 3 -2 6 -13 5 -11 0 -14 -3 -6 -6z"/>
<path d="M1766 3165 c-3 -9 0 -15 9 -15 16 0 20 16 6 24 -5 3 -11 -1 -15 -9z"/>
<path d="M2611 3254 c0 -11 3 -14 6 -6 3 7 2 16 -1 19 -3 4 -6 -2 -5 -13z"/>
<path d="M4000 3092 c0 -4 14 -13 30 -19 17 -6 30 -10 30 -7 0 2 -13 10 -30
19 -16 9 -30 12 -30 7z"/>
<path d="M2741 3199 c-18 -6 -31 -12 -29 -15 8 -7 68 8 68 17 0 5 -1 9 -2 8
-2 0 -18 -5 -37 -10z"/>
<path d="M2227 3153 c-10 -9 -9 -23 1 -23 5 0 9 7 9 15 0 17 -1 18 -10 8z"/>
<path d="M2467 3184 c-3 -3 -3 -13 0 -22 6 -15 4 -15 -14 1 -27 24 -42 22 -15
-3 16 -15 26 -18 44 -11 20 8 21 10 6 16 -10 4 -15 11 -12 16 6 10 0 12 -9 3z"/>
<path d="M2398 3008 c-17 -17 -17 -18 0 -18 27 0 42 13 28 25 -8 7 -16 5 -28
-7z"/>
<path d="M2910 3100 c0 -6 7 -10 15 -10 8 0 15 2 15 4 0 2 -7 6 -15 10 -8 3
-15 1 -15 -4z"/>
<path d="M3066 2858 c5 -8 0 -9 -16 -5 -17 4 -20 3 -12 -5 8 -8 18 -8 34 -1
19 8 20 10 4 16 -11 5 -15 3 -10 -5z"/>
<path d="M1494 3048 l-19 -23 23 19 c21 18 27 26 19 26 -2 0 -12 -10 -23 -22z"/>
<path d="M2288 3023 c7 -3 16 -2 19 1 4 3 -2 6 -13 5 -11 0 -14 -3 -6 -6z"/>
<path d="M2646 2707 c3 -10 9 -15 12 -12 3 3 0 11 -7 18 -10 9 -11 8 -5 -6z"/>
<path d="M2646 2661 c-4 -5 3 -7 14 -4 23 6 26 13 6 13 -8 0 -17 -4 -20 -9z"/>
<path d="M2947 2533 c-10 -9 -9 -23 2 -23 5 0 11 7 15 15 5 15 -5 20 -17 8z"/>
<path d="M2913 2498 c3 -13 11 -54 17 -93 6 -38 13 -71 15 -73 2 -2 3 29 2 70
-2 67 0 73 18 73 11 0 21 8 23 18 4 19 -23 24 -34 6 -5 -8 -10 -6 -16 5 -13
24 -31 20 -25 -6z"/>
<path d="M2781 2471 c-17 -13 -20 -20 -12 -26 7 -4 10 -13 7 -21 -3 -8 -2 -14
2 -14 6 0 33 72 29 77 -1 1 -13 -6 -26 -16z"/>
<path d="M2821 2460 c1 -8 5 -26 9 -40 l8 -25 1 25 c0 14 -4 32 -9 40 -9 13
-10 13 -9 0z"/>
<path d="M2720 2272 c0 -5 7 -16 16 -23 14 -12 16 -11 13 5 -4 20 -29 35 -29
18z"/>
<path d="M2726 2211 c-3 -5 1 -11 9 -14 9 -4 12 -1 8 9 -6 16 -10 17 -17 5z"/>
<path d="M2733 2161 c-9 -14 -9 -22 -2 -27 15 -9 21 1 17 26 -3 21 -3 21 -15
1z"/>
<path d="M2683 2078 c-1 -29 1 -45 4 -35 2 9 11 17 19 17 8 0 27 11 42 25 15
14 22 25 16 25 -7 0 -17 -7 -24 -15 -12 -15 -45 -22 -36 -7 2 4 -2 15 -9 25
-11 15 -12 10 -12 -35z"/>
<path d="M2740 2045 c-6 -8 -9 -19 -6 -24 9 -14 36 -2 36 14 0 21 -16 26 -30
10z"/>
<path d="M3147 2609 c7 -7 15 -10 18 -7 3 3 -2 9 -12 12 -14 6 -15 5 -6 -5z"/>
<path d="M4057 2493 c-4 -3 -7 -11 -7 -17 0 -6 5 -5 12 2 6 6 9 14 7 17 -3 3
-9 2 -12 -2z"/>
<path d="M3921 2458 c1 -16 3 -18 6 -6 2 9 14 19 26 21 18 4 17 5 -5 6 -23 1
-28 -3 -27 -21z"/>
<path d="M2297 1864 c-6 -6 29 -84 37 -84 7 0 -2 48 -13 69 -13 23 -15 24 -24
15z"/>
<path d="M2585 1834 c-22 -13 -35 -24 -30 -24 6 0 28 11 50 25 22 13 36 24 30
24 -5 -1 -28 -12 -50 -25z"/>
<path d="M2681 1394 c0 -11 3 -14 6 -6 3 7 2 16 -1 19 -3 4 -6 -2 -5 -13z"/>
<path d="M2905 1370 c3 -5 8 -10 11 -10 2 0 4 5 4 10 0 6 -5 10 -11 10 -5 0
-7 -4 -4 -10z"/>
<path d="M2755 1360 c-3 -6 1 -7 9 -4 18 7 21 14 7 14 -6 0 -13 -4 -16 -10z"/>
<path d="M2471 994 c0 -11 3 -14 6 -6 3 7 2 16 -1 19 -3 4 -6 -2 -5 -13z"/>
<path d="M2580 1001 c0 -6 5 -13 10 -16 6 -3 10 1 10 9 0 9 -4 16 -10 16 -5 0
-10 -4 -10 -9z"/>
<path d="M2580 950 c0 -5 5 -10 10 -10 6 0 10 5 10 10 0 6 -4 10 -10 10 -5 0
-10 -4 -10 -10z"/>
<path d="M2850 975 c0 -25 5 -45 10 -45 6 0 10 20 10 45 0 25 -4 45 -10 45 -5
0 -10 -20 -10 -45z"/>
<path d="M2930 975 c0 -25 5 -45 10 -45 6 0 10 20 10 45 0 25 -4 45 -10 45 -5
0 -10 -20 -10 -45z"/>
<path d="M3180 836 c0 -2 9 -6 20 -9 11 -3 18 -1 14 4 -5 9 -34 13 -34 5z"/>
<path d="M3125 821 c-3 -5 0 -13 6 -17 7 -4 9 -3 5 4 -3 5 0 13 6 15 9 4 10 6
1 6 -6 1 -14 -3 -18 -8z"/>
<path d="M3235 810 c4 -6 11 -8 16 -5 14 9 11 15 -7 15 -8 0 -12 -5 -9 -10z"/>
<path d="M2565 4970 c3 -5 8 -10 11 -10 2 0 4 5 4 10 0 6 -5 10 -11 10 -5 0
-7 -4 -4 -10z"/>
<path d="M2620 4965 c-7 -8 -1 -10 20 -7 17 2 30 8 30 13 0 11 -39 7 -50 -6z"/>
<path d="M2680 4967 c0 -9 -6 -17 -14 -17 -8 0 -17 -4 -20 -9 -8 -12 13 -8 39
6 16 9 18 14 8 24 -11 11 -13 10 -13 -4z"/>
<path d="M1344 4949 c-3 -6 -1 -16 4 -21 8 -8 11 -5 9 11 -1 24 -3 25 -13 10z"/>
<path d="M2246 4931 c-17 -19 -17 -19 1 -15 11 3 20 12 20 20 0 18 0 18 -21
-5z"/>
<path d="M2272 4908 c-7 -7 -12 -18 -12 -25 0 -8 -12 -13 -27 -13 l-28 0 29
-15 c40 -21 47 -19 40 11 -5 21 -4 25 6 19 9 -6 11 -4 5 5 -4 7 -2 16 6 21 8
5 9 9 4 9 -6 0 -16 -5 -23 -12z"/>
<path d="M2326 4908 c-8 -5 -20 -25 -27 -46 -12 -36 -121 -151 -144 -152 -9 0
-17 -50 -8 -50 2 0 19 18 39 39 22 25 41 38 50 34 13 -5 12 -8 -2 -24 -14 -15
-15 -22 -6 -31 9 -9 12 -8 12 3 0 9 9 24 21 35 l20 18 -22 8 -22 9 28 29 c15
16 32 27 37 24 7 -5 9 1 8 21 -1 13 35 63 42 59 4 -3 8 0 8 5 0 6 4 11 10 11
5 0 7 -7 4 -15 -7 -18 7 -20 25 -2 10 10 11 7 7 -15 -5 -31 6 -35 43 -14 l24
13 -36 27 c-34 26 -79 32 -111 14z m124 -32 c0 -3 -4 -8 -10 -11 -5 -3 -10 -1
-10 4 0 6 5 11 10 11 6 0 10 -2 10 -4z"/>
<path d="M1655 4900 c3 -5 8 -10 11 -10 2 0 4 5 4 10 0 6 -5 10 -11 10 -5 0
-7 -4 -4 -10z"/>
<path d="M1893 4880 c-45 -27 -42 -34 5 -11 20 10 44 21 52 24 11 4 9 6 -5 6
-11 1 -35 -8 -52 -19z"/>
<path d="M1978 4893 c7 -3 16 -2 19 1 4 3 -2 6 -13 5 -11 0 -14 -3 -6 -6z"/>
<path d="M2487 4880 c-3 -11 -1 -20 4 -20 5 0 9 9 9 20 0 11 -2 20 -4 20 -2 0
-6 -9 -9 -20z"/>
<path d="M1564 4881 c6 -10 -18 -34 -26 -26 -3 3 -13 -4 -23 -15 -17 -18 -17
-20 -1 -26 10 -4 22 -2 29 5 6 6 19 11 29 11 10 0 18 5 18 11 0 6 7 3 16 -5
19 -20 31 -21 14 -1 -6 8 -8 20 -4 26 5 9 2 10 -9 6 -10 -3 -17 -2 -17 2 0 5
-7 12 -16 15 -8 3 -13 2 -10 -3z m-31 -46 c-3 -9 -8 -14 -10 -11 -3 3 -2 9 2
15 9 16 15 13 8 -4z"/>
<path d="M2528 4873 c7 -3 16 -2 19 1 4 3 -2 6 -13 5 -11 0 -14 -3 -6 -6z"/>
<path d="M2543 4839 c1 -6 -4 -14 -12 -17 -9 -3 -11 0 -6 8 6 10 -1 12 -35 7
-24 -3 -46 -11 -50 -18 -4 -6 -13 -9 -19 -5 -6 4 -9 2 -6 -6 4 -9 -2 -14 -15
-15 -13 -1 -18 2 -14 10 4 7 3 8 -2 4 -5 -5 -10 -13 -10 -18 -3 -22 -5 -23
-13 -11 -6 10 -10 10 -21 -3 -7 -9 -9 -15 -4 -14 22 4 33 -2 39 -22 4 -11 9
-18 13 -15 3 4 17 -4 30 -16 25 -23 25 -23 13 -1 -6 12 -22 31 -36 42 -26 19
-26 20 -6 31 12 6 21 7 21 2 0 -5 14 -9 30 -9 17 0 30 6 30 13 0 8 -8 10 -22
7 -22 -5 -22 -5 -5 13 16 17 18 17 33 2 14 -14 19 -14 43 -2 14 8 27 10 29 4
4 -11 32 -1 32 12 0 5 -5 6 -12 2 -8 -5 -9 -2 -5 9 4 11 1 17 -8 17 -8 0 -14
-5 -12 -11z m-33 -24 c0 -12 -19 -12 -23 0 -4 9 -1 12 9 8 7 -3 14 -7 14 -8z"/>
<path d="M2585 4840 c3 -5 8 -10 11 -10 2 0 4 5 4 10 0 6 -5 10 -11 10 -5 0
-7 -4 -4 -10z"/>
<path d="M2635 4840 c-3 -5 -1 -10 4 -10 6 0 11 5 11 10 0 6 -2 10 -4 10 -3 0
-8 -4 -11 -10z"/>
<path d="M1845 4819 c-4 -6 -5 -12 -2 -15 2 -3 7 2 10 11 7 17 1 20 -8 4z"/>
<path d="M2790 4800 c-9 -6 -10 -10 -3 -10 6 0 15 5 18 10 8 12 4 12 -15 0z"/>
<path d="M1480 4791 c0 -6 9 -9 19 -8 11 0 17 5 15 9 -7 11 -34 10 -34 -1z"/>
<path d="M1915 4780 c-3 -5 -2 -10 4 -10 5 0 13 5 16 10 3 6 2 10 -4 10 -5 0
-13 -4 -16 -10z"/>
<path d="M2040 4780 c-8 -5 -10 -10 -5 -10 6 0 17 5 25 10 8 5 11 10 5 10 -5
0 -17 -5 -25 -10z"/>
<path d="M1958 4773 c6 -2 18 -2 25 0 6 3 1 5 -13 5 -14 0 -19 -2 -12 -5z"/>
<path d="M2540 4771 c0 -6 4 -13 10 -16 6 -3 7 1 4 9 -7 18 -14 21 -14 7z"/>
<path d="M2130 4750 c0 -5 5 -10 11 -10 5 0 7 5 4 10 -3 6 -8 10 -11 10 -2 0
-4 -4 -4 -10z"/>
<path d="M2575 4749 c-4 -6 -5 -12 -2 -15 2 -3 7 2 10 11 7 17 1 20 -8 4z"/>
<path d="M2330 4739 c0 -5 5 -7 10 -4 6 3 10 8 10 11 0 2 -4 4 -10 4 -5 0 -10
-5 -10 -11z"/>
<path d="M2878 4723 c7 -3 16 -2 19 1 4 3 -2 6 -13 5 -11 0 -14 -3 -6 -6z"/>
<path d="M1342 4701 c-11 -7 -11 -9 0 -14 9 -3 15 1 15 9 0 8 -1 14 -1 14 -1
0 -7 -4 -14 -9z"/>
<path d="M1520 4700 c-8 -5 -10 -10 -5 -10 6 0 17 5 25 10 8 5 11 10 5 10 -5
0 -17 -5 -25 -10z"/>
<path d="M3050 4701 c0 -6 4 -13 10 -16 6 -3 7 1 4 9 -7 18 -14 21 -14 7z"/>
<path d="M1270 4690 c-13 -8 -12 -10 3 -10 9 0 17 5 17 10 0 12 -1 12 -20 0z"/>
<path d="M2645 4660 c22 -25 40 -46 41 -48 1 -1 7 5 15 15 11 13 11 15 1 9 -9
-6 -28 5 -55 30 l-42 39 40 -45z"/>
<path d="M3080 4689 c0 -5 5 -7 10 -4 6 3 10 8 10 11 0 2 -4 4 -10 4 -5 0 -10
-5 -10 -11z"/>
<path d="M2487 4661 c3 -12 11 -17 19 -14 8 3 14 6 12 7 -2 1 -11 7 -20 14
-14 11 -16 10 -11 -7z"/>
<path d="M3001 4664 c0 -11 3 -14 6 -6 3 7 2 16 -1 19 -3 4 -6 -2 -5 -13z"/>
<path d="M1526 4655 c4 -8 8 -15 10 -15 2 0 4 7 4 15 0 8 -4 15 -10 15 -5 0
-7 -7 -4 -15z"/>
<path d="M1156 4643 c-6 -14 -5 -15 5 -6 7 7 10 15 7 18 -3 3 -9 -2 -12 -12z"/>
<path d="M1476 4652 c-3 -5 1 -9 9 -9 8 0 15 4 15 9 0 4 -4 8 -9 8 -6 0 -12
-4 -15 -8z"/>
<path d="M2102 4640 c-12 -10 -22 -22 -22 -27 0 -12 -45 -55 -51 -49 -2 2 -5
-7 -5 -20 -1 -16 4 -24 15 -25 15 -1 25 -3 46 -9 19 -5 30 -7 44 -8 11 -2 11
-5 0 -19 -11 -15 -11 -16 0 -6 7 6 21 9 30 5 14 -5 14 -4 1 13 -14 17 -13 18
3 12 10 -4 17 -2 17 6 0 7 -12 13 -27 14 -41 2 -112 20 -86 22 31 2 54 12 48
22 -3 4 -13 6 -23 3 -16 -5 -16 -5 1 6 9 6 17 18 17 25 0 8 4 15 9 15 11 0 22
28 13 34 -4 2 -17 -4 -30 -14z"/>
<path d="M2285 4650 c3 -5 8 -10 11 -10 2 0 4 5 4 10 0 6 -5 10 -11 10 -5 0
-7 -4 -4 -10z"/>
<path d="M1110 4634 c0 -16 -2 -17 -10 -4 -8 13 -10 12 -10 -2 0 -10 5 -18 10
-18 13 0 25 28 16 37 -3 4 -6 -2 -6 -13z"/>
<path d="M1159 4617 c-14 -12 -29 -30 -32 -39 -9 -25 -27 -22 -28 5 0 12 -3
16 -6 9 -3 -7 -1 -20 3 -30 4 -9 8 -19 8 -22 7 -26 32 -49 65 -60 23 -7 41
-16 41 -19 0 -4 9 -7 20 -7 35 0 22 22 -20 35 -40 12 -93 58 -84 73 10 15 23
8 17 -9 -5 -15 -3 -16 8 -5 10 9 10 15 1 24 -15 15 -16 32 -2 23 6 -3 10 -1
10 5 0 6 10 14 22 19 12 4 17 10 12 13 -5 4 -21 -4 -35 -15z"/>
<path d="M1270 4615 c-7 -9 -10 -18 -7 -21 3 -3 10 4 17 15 13 25 8 27 -10 6z"/>
<path d="M1494 4622 c3 -5 0 -13 -6 -15 -9 -4 -10 -6 -1 -6 17 -1 25 16 12 25
-7 4 -9 3 -5 -4z"/>
<path d="M2160 4625 c0 -10 29 -24 34 -17 3 6 -3 12 -14 15 -11 3 -20 4 -20 2z"/>
<path d="M1520 4605 c-7 -9 -11 -17 -9 -20 3 -2 10 5 17 15 14 24 10 26 -8 5z"/>
<path d="M2300 4609 c0 -5 -5 -7 -12 -3 -7 4 -8 3 -4 -4 4 -6 13 -9 21 -5 17
6 20 23 5 23 -5 0 -10 -5 -10 -11z"/>
<path d="M1175 4600 c-8 -13 3 -30 18 -29 9 0 9 2 0 5 -7 3 -9 12 -6 20 6 16
-3 19 -12 4z"/>
<path d="M2505 4590 c-10 -11 -15 -20 -11 -20 11 0 39 30 34 36 -3 2 -13 -5
-23 -16z"/>
<path d="M2130 4597 c0 -3 10 -12 23 -20 16 -10 28 -12 38 -6 12 8 12 9 -1 7
-8 -1 -25 3 -37 10 -13 7 -23 11 -23 9z"/>
<path d="M2130 4549 c0 -5 5 -7 10 -4 6 3 10 8 10 11 0 2 -4 4 -10 4 -5 0 -10
-5 -10 -11z"/>
<path d="M2497 4543 c4 -11 8 -13 11 -5 3 10 7 10 18 1 11 -9 14 -8 14 5 0 10
-9 16 -25 16 -19 0 -23 -4 -18 -17z"/>
<path d="M1101 4513 c-1 -6 -4 -19 -8 -29 -4 -11 -3 -15 4 -11 6 4 16 1 22 -7
8 -10 9 -16 1 -19 -6 -3 -6 -5 1 -3 17 3 20 34 5 43 -7 5 -16 15 -19 23 -3 8
-6 10 -6 3z"/>
<path d="M1937 4505 c-4 -8 -2 -17 2 -20 5 -2 11 4 14 15 6 23 -8 27 -16 5z"/>
<path d="M2996 4504 c-9 -8 -16 -23 -15 -32 0 -10 3 -12 5 -5 3 7 13 9 22 6
13 -4 14 -3 3 5 -16 11 -5 36 11 26 7 -4 8 -2 4 4 -9 15 -12 15 -30 -4z"/>
<path d="M1340 4502 c0 -12 19 -26 26 -19 2 2 -2 10 -11 17 -9 8 -15 8 -15 2z"/>
<path d="M1315 4490 c-3 -5 -1 -10 4 -10 6 0 11 5 11 10 0 6 -2 10 -4 10 -3 0
-8 -4 -11 -10z"/>
<path d="M2530 4491 c0 -5 7 -11 14 -14 10 -4 13 -1 9 9 -6 15 -23 19 -23 5z"/>
<path d="M1376 4473 c-6 -14 -5 -15 5 -6 7 7 10 15 7 18 -3 3 -9 -2 -12 -12z"/>
<path d="M2060 4480 c0 -5 5 -10 11 -10 5 0 7 5 4 10 -3 6 -8 10 -11 10 -2 0
-4 -4 -4 -10z"/>
<path d="M1995 4471 c-3 -5 -1 -12 4 -15 5 -3 11 1 15 9 6 16 -9 21 -19 6z"/>
<path d="M3005 4450 c-16 -7 -17 -9 -3 -9 9 -1 20 4 23 9 7 11 7 11 -20 0z"/>
<path d="M2036 4423 c-6 -14 -5 -15 5 -6 7 7 10 15 7 18 -3 3 -9 -2 -12 -12z"/>
<path d="M1943 4416 c0 -8 6 -12 14 -9 7 3 10 9 7 14 -8 14 -21 11 -21 -5z"/>
<path d="M1900 4399 c0 -5 5 -7 10 -4 6 3 10 8 10 11 0 2 -4 4 -10 4 -5 0 -10
-5 -10 -11z"/>
<path d="M2064 4398 c-3 -5 -14 -6 -25 -3 -11 4 -19 2 -19 -5 0 -6 -4 -9 -8
-6 -9 5 -8 -41 1 -51 14 -13 7 -25 -8 -13 -10 9 -15 9 -15 1 0 -6 -5 -11 -10
-11 -6 0 -3 12 7 28 9 15 14 24 9 21 -4 -4 -27 -1 -52 7 -24 7 -44 12 -45 11
0 -1 -2 -9 -4 -18 -1 -9 -6 -26 -10 -38 -5 -16 -3 -20 9 -15 11 4 19 -2 26
-20 5 -15 16 -29 24 -32 9 -3 12 -13 8 -27 -5 -20 -4 -21 13 -7 11 9 16 10 11
3 -5 -9 -1 -13 10 -13 12 0 15 -3 8 -10 -6 -6 -25 -7 -42 -4 -26 5 -30 9 -21
20 9 11 7 15 -7 21 -10 4 -19 2 -22 -5 -2 -7 -9 -12 -15 -13 -16 0 -61 -58
-53 -66 3 -4 12 2 20 12 13 18 14 17 14 -9 0 -15 -7 -30 -14 -33 -8 -3 -14 -9
-14 -14 0 -4 6 -6 14 -3 7 3 16 -2 20 -11 3 -10 13 -15 20 -12 16 6 40 -16 29
-26 -3 -4 -1 -7 5 -7 15 0 24 17 13 25 -6 3 -8 12 -5 19 3 8 1 17 -5 21 -6 3
-9 0 -8 -7 2 -7 2 -10 0 -6 -9 15 -3 22 23 25 21 3 25 1 20 -12 -3 -9 -2 -13
4 -10 6 3 10 -1 10 -9 0 -11 -6 -13 -17 -9 -17 7 -17 6 0 -11 9 -10 15 -22 12
-27 -4 -5 3 -9 15 -9 13 0 19 -4 14 -11 -3 -6 6 -3 20 6 18 12 26 25 24 39 -2
13 3 21 12 21 8 0 18 16 24 39 8 35 6 42 -14 58 -12 10 -18 18 -14 18 5 0 2 5
-6 10 -12 8 -11 10 6 10 11 0 25 -5 31 -11 18 -18 38 28 21 49 -9 11 -9 14 -1
9 14 -9 29 34 19 58 -3 8 -1 15 4 15 6 0 10 6 10 13 0 16 -68 48 -76 35z m36
-28 c0 -5 -5 -10 -11 -10 -5 0 -7 5 -4 10 3 6 8 10 11 10 2 0 4 -4 4 -10z
m-76 -139 c4 -5 -3 -7 -14 -4 -23 6 -26 13 -6 13 8 0 17 -4 20 -9z m34 -71 c7
-12 8 -20 2 -20 -5 0 -10 4 -10 9 0 4 -10 8 -22 8 -46 1 -54 4 -33 13 32 14
49 11 63 -10z m-133 0 c-3 -5 -14 -10 -23 -9 -14 0 -13 2 3 9 27 11 27 11 20
0z m42 4 c-3 -3 -12 -4 -19 -1 -8 3 -5 6 6 6 11 1 17 -2 13 -5z m38 -52 c-3
-3 -11 0 -18 7 -9 10 -8 11 6 5 10 -3 15 -9 12 -12z m7 -29 c-6 -2 -10 -9 -6
-14 3 -5 -2 -9 -12 -9 -13 0 -14 3 -4 15 7 8 18 15 24 14 7 0 6 -2 -2 -6z"/>
<path d="M1158 4393 l-67 -4 2 -34 c1 -19 8 -37 16 -40 9 -4 12 1 8 14 -7 27
20 36 28 10 7 -21 7 -21 22 0 8 12 18 19 23 16 9 -6 40 21 40 36 0 5 -1 8 -2
7 -2 -1 -33 -3 -70 -5z"/>
<path d="M1965 4390 c-3 -5 -1 -10 4 -10 6 0 11 5 11 10 0 6 -2 10 -4 10 -3 0
-8 -4 -11 -10z"/>
<path d="M1502 4320 c-1 -16 2 -30 7 -30 5 0 7 9 4 20 -3 12 0 20 6 20 7 0 9
5 6 10 -11 18 -21 10 -23 -20z"/>
<path d="M1663 4317 c4 -10 7 -21 7 -23 0 -2 7 -4 15 -4 8 0 15 -4 15 -9 0
-16 28 -20 34 -5 4 9 2 12 -5 8 -6 -3 -24 7 -41 22 -23 21 -29 24 -25 11z"/>
<path d="M2520 4321 c0 -5 5 -13 10 -16 6 -3 10 -2 10 4 0 5 -4 13 -10 16 -5
3 -10 2 -10 -4z"/>
<path d="M1590 4300 c6 -11 13 -20 16 -20 2 0 0 9 -6 20 -6 11 -13 20 -16 20
-2 0 0 -9 6 -20z"/>
<path d="M1157 4294 c3 -9 0 -20 -8 -25 -8 -5 -9 -9 -4 -9 21 0 35 17 29 33
-3 9 -10 17 -15 17 -4 0 -6 -7 -2 -16z"/>
<path d="M1230 4289 c0 -5 5 -7 10 -4 6 3 10 8 10 11 0 2 -4 4 -10 4 -5 0 -10
-5 -10 -11z"/>
<path d="M1101 4271 c-8 -5 -9 -11 -3 -15 5 -3 12 1 16 9 6 17 6 18 -13 6z"/>
<path d="M1476 4271 c-3 -4 6 -6 19 -3 14 2 25 6 25 8 0 8 -39 4 -44 -5z"/>
<path d="M1884 4265 c11 -8 22 -12 25 -9 6 6 -19 24 -34 24 -5 -1 -1 -7 9 -15z"/>
<path d="M1116 4241 c-3 -5 6 -8 20 -8 19 0 22 2 13 8 -18 11 -26 11 -33 0z"/>
<path d="M1102 4211 c-23 -14 30 -34 61 -22 34 13 35 20 2 13 -14 -2 -31 0
-38 6 -7 6 -18 7 -25 3z"/>
<path d="M1810 4120 c0 -5 5 -10 11 -10 5 0 7 5 4 10 -3 6 -8 10 -11 10 -2 0
-4 -4 -4 -10z"/>
<path d="M1161 4107 c-7 -9 -10 -21 -6 -27 3 -5 -1 -10 -9 -10 -20 0 -20 -14
-1 -30 11 -9 19 -10 26 -3 8 8 7 13 0 17 -8 5 -8 13 0 27 14 27 7 46 -10 26z"/>
<path d="M1890 4056 c0 -8 4 -17 10 -21 5 -3 7 -12 3 -20 -3 -10 -1 -13 9 -10
19 8 19 35 0 35 -8 0 -12 6 -8 15 3 8 1 15 -4 15 -6 0 -10 -6 -10 -14z"/>
<path d="M1940 4019 c0 -5 5 -7 10 -4 6 3 10 8 10 11 0 2 -4 4 -10 4 -5 0 -10
-5 -10 -11z"/>
<path d="M1976 4017 c3 -10 9 -15 12 -12 3 3 0 11 -7 18 -10 9 -11 8 -5 -6z"/>
<path d="M1855 4000 c3 -5 8 -10 11 -10 2 0 4 5 4 10 0 6 -5 10 -11 10 -5 0
-7 -4 -4 -10z"/>
<path d="M1880 3991 c0 -22 20 -51 36 -51 8 0 12 -5 9 -10 -4 -6 -11 -8 -16
-5 -5 4 -9 1 -9 -4 0 -16 16 -13 30 4 16 20 26 19 49 -4 17 -17 20 -18 19 -3
0 9 3 25 7 35 6 15 4 16 -19 8 -19 -8 -29 -7 -39 4 -8 8 -17 11 -21 8 -3 -3
-15 2 -26 12 -12 11 -20 14 -20 6z"/>
<path d="M1928 3993 c7 -3 16 -2 19 1 4 3 -2 6 -13 5 -11 0 -14 -3 -6 -6z"/>
<path d="M1948 3903 c6 -2 18 -2 25 0 6 3 1 5 -13 5 -14 0 -19 -2 -12 -5z"/>
<path d="M1983 3845 c0 -8 4 -15 9 -15 4 0 8 4 8 9 0 6 -4 12 -8 15 -5 3 -9
-1 -9 -9z"/>
<path d="M1970 3809 c0 -5 -4 -8 -9 -4 -13 7 -22 -8 -13 -22 4 -7 14 -2 25 13
10 13 13 24 7 24 -5 0 -10 -5 -10 -11z"/>
<path d="M1508 3793 c6 -2 18 -2 25 0 6 3 1 5 -13 5 -14 0 -19 -2 -12 -5z"/>
<path d="M1780 3786 c0 -2 9 -6 20 -9 11 -3 20 -1 20 4 0 5 -9 9 -20 9 -11 0
-20 -2 -20 -4z"/>
<path d="M3807 3691 c-4 -17 -3 -21 5 -13 5 5 8 16 6 23 -3 8 -7 3 -11 -10z"/>
<path d="M1454 3688 c-3 -4 0 -8 6 -8 6 0 8 -5 4 -12 -6 -10 -5 -10 7 -2 8 7
23 14 34 16 14 3 11 6 -13 9 -18 3 -35 2 -38 -3z"/>
<path d="M3205 3660 c3 -5 12 -7 20 -3 21 7 19 13 -6 13 -11 0 -18 -4 -14 -10z"/>
<path d="M1456 3642 c-2 -4 -1 -14 5 -22 7 -12 9 -10 9 8 0 23 -5 28 -14 14z"/>
<path d="M3353 3623 c-20 -8 -15 -23 7 -23 11 0 19 -5 18 -12 -5 -21 49 -41
80 -29 l27 11 -27 -4 c-19 -2 -28 1 -28 11 0 8 4 12 9 8 5 -3 13 0 17 6 5 8
-3 10 -25 7 -23 -3 -30 -1 -27 8 7 18 -24 29 -51 17z"/>
<path d="M3787 3592 c-10 -10 -17 -23 -17 -28 0 -11 49 -69 54 -63 7 7 -6 109
-14 109 -4 0 -14 -8 -23 -18z"/>
<path d="M3920 3601 c0 -5 5 -13 10 -16 6 -3 10 -2 10 4 0 5 -4 13 -10 16 -5
3 -10 2 -10 -4z"/>
<path d="M3499 3575 c18 -8 36 -15 40 -15 13 1 -45 29 -59 29 -8 0 0 -6 19
-14z"/>
<path d="M3490 3549 c0 -5 5 -7 10 -4 6 3 10 8 10 11 0 2 -4 4 -10 4 -5 0 -10
-5 -10 -11z"/>
<path d="M3400 3541 c0 -5 5 -13 10 -16 6 -3 10 -2 10 4 0 5 -4 13 -10 16 -5
3 -10 2 -10 -4z"/>
<path d="M3460 3536 c0 -2 8 -10 18 -17 15 -13 16 -12 3 4 -13 16 -21 21 -21
13z"/>
<path d="M3563 3514 c-7 -3 -9 -12 -6 -20 8 -21 22 -17 20 6 -1 11 -1 20 -2
19 0 0 -5 -3 -12 -5z"/>
<path d="M3627 3488 c-18 -19 -18 -20 2 -25 11 -3 18 -9 15 -14 -3 -5 4 -9 15
-9 12 0 21 -7 21 -15 0 -21 14 -19 36 6 16 17 16 22 4 29 -8 6 -10 10 -5 10 6
0 -3 9 -20 20 -36 24 -45 24 -68 -2z m68 -29 c-4 -5 -13 -9 -22 -9 -13 0 -13
3 -3 15 13 15 35 11 25 -6z"/>
<path d="M2918 3383 c7 -3 16 -2 19 1 4 3 -2 6 -13 5 -11 0 -14 -3 -6 -6z"/>
<path d="M3080 3380 c0 -5 5 -10 10 -10 6 0 10 5 10 10 0 6 -4 10 -10 10 -5 0
-10 -4 -10 -10z"/>
<path d="M3500 3380 c0 -5 3 -9 8 -8 7 1 21 -4 82 -30 19 -8 51 -21 70 -28 32
-12 33 -12 15 2 -11 9 -19 19 -18 24 1 4 -5 6 -15 3 -9 -2 -43 7 -75 21 -65
29 -67 30 -67 16z"/>
<path d="M3690 3375 c0 -7 30 -13 34 -7 3 4 -4 9 -15 9 -10 1 -19 0 -19 -2z"/>
<path d="M3745 3340 c3 -5 11 -10 16 -10 6 0 7 5 4 10 -3 6 -11 10 -16 10 -6
0 -7 -4 -4 -10z"/>
<path d="M3458 3279 c24 -10 41 -23 37 -29 -3 -5 2 -10 12 -11 10 0 27 -2 39
-3 14 -2 20 4 21 18 1 12 -1 16 -4 9 -3 -9 -22 -6 -70 12 -77 29 -96 32 -35 4z"/>
<path d="M3900 3240 c0 -5 5 -10 11 -10 5 0 7 5 4 10 -3 6 -8 10 -11 10 -2 0
-4 -4 -4 -10z"/>
<path d="M2982 3233 c-10 -4 -7 -9 8 -20 12 -8 24 -12 27 -9 4 3 1 6 -6 6 -7
0 -10 4 -6 9 7 12 -6 20 -23 14z"/>
<path d="M3640 3230 c0 -5 6 -10 14 -10 8 0 23 -3 33 -6 10 -3 7 2 -7 10 -30
18 -40 20 -40 6z"/>
<path d="M4013 2776 c0 -9 1 -16 1 -16 1 0 15 -4 33 -9 24 -7 35 -6 44 5 10
12 9 13 -4 9 -8 -4 -18 -1 -22 5 -6 9 -10 9 -16 -1 -7 -11 -11 -10 -22 5 -12
16 -14 16 -14 2z"/>
<path d="M3985 2770 c3 -5 8 -10 11 -10 2 0 4 5 4 10 0 6 -5 10 -11 10 -5 0
-7 -4 -4 -10z"/>
<path d="M1232 2739 c-30 -17 -51 -33 -48 -37 12 -11 51 -9 71 4 11 8 15 14 9
14 -5 0 -15 -5 -22 -12 -6 -6 -14 -9 -17 -6 -6 6 -1 11 45 48 36 28 23 24 -38
-11z"/>
<path d="M3865 2760 c3 -5 8 -10 11 -10 2 0 4 5 4 10 0 6 -5 10 -11 10 -5 0
-7 -4 -4 -10z"/>
<path d="M3925 2749 c-4 -5 3 -9 14 -9 11 0 37 -11 57 -25 20 -14 40 -23 44
-20 4 3 21 -2 36 -10 16 -8 35 -15 42 -15 6 0 12 -4 12 -10 0 -5 7 -10 15 -10
8 0 15 2 15 5 0 7 -39 45 -47 46 -15 3 -28 7 -105 32 -44 14 -80 21 -83 16z"/>
<path d="M1285 2739 c-11 -17 0 -20 21 -4 17 13 17 14 2 15 -9 0 -20 -5 -23
-11z"/>
<path d="M4171 2693 c-1 -17 16 -25 25 -12 4 7 3 9 -4 5 -5 -3 -13 0 -15 6 -4
9 -6 10 -6 1z"/>
<path d="M4195 2151 c-3 -5 -1 -12 5 -16 5 -3 10 1 10 9 0 18 -6 21 -15 7z"/>
</g>
</svg>
