<?xml version="1.0" standalone="no"?>
<!DOCTYPE svg PUBLIC "-//W3C//DTD SVG 20010904//EN"
 "http://www.w3.org/TR/2001/REC-SVG-20010904/DTD/svg10.dtd">
<svg version="1.0" xmlns="http://www.w3.org/2000/svg"
 width="612.000000pt" height="612.000000pt" viewBox="0 0 612.000000 612.000000"
 preserveAspectRatio="xMidYMid meet">

<g transform="translate(0.000000,612.000000) scale(0.100000,-0.100000)"
fill="#000000" stroke="none">
<path d="M3435 4555 c-92 -12 -255 -53 -316 -78 -33 -13 -30 -14 76 -20 168
-10 289 -47 407 -124 62 -41 88 -63 73 -63 -3 0 -43 18 -90 40 -69 34 -186 69
-230 70 -5 0 13 -16 42 -35 28 -19 102 -82 164 -140 61 -58 118 -105 125 -105
8 0 14 -4 14 -9 0 -9 108 -61 180 -86 69 -24 216 -45 320 -45 183 0 351 40
515 123 l85 42 -112 1 c-210 3 -400 82 -611 253 -155 127 -234 163 -392 182
-99 11 -136 10 -250 -6z"/>
<path d="M2829 4340 c-51 -52 -88 -79 -170 -121 -76 -39 -121 -69 -166 -115
-35 -34 -63 -67 -63 -72 0 -6 27 -1 62 9 151 47 364 61 508 34 172 -33 257
-39 377 -27 64 6 118 14 122 18 9 9 -88 90 -149 123 -30 16 -92 39 -137 50
-98 24 -159 54 -248 121 -36 27 -67 49 -68 48 -1 -1 -31 -31 -68 -68z"/>
<path d="M2620 3987 c-143 -28 -217 -95 -311 -280 -70 -138 -104 -191 -167
-261 -24 -28 -53 -68 -64 -90 -26 -51 -35 -172 -18 -236 15 -57 88 -133 122
-128 21 3 24 9 29 81 9 102 46 177 140 282 92 103 99 120 92 221 -7 95 7 130
63 165 l37 23 66 -24 c95 -34 151 -30 258 18 97 44 119 50 210 62 57 7 152 1
233 -15 l35 -8 -45 47 c-61 63 -107 93 -187 124 -62 23 -83 26 -248 28 -115 2
-203 -1 -245 -9z"/>
<path d="M3270 3973 c0 -4 23 -21 51 -38 100 -59 206 -187 244 -294 l14 -41
-27 7 c-56 16 -244 9 -317 -12 l-70 -20 115 -6 c178 -10 309 -66 380 -162 64
-88 112 -304 114 -519 1 -149 5 -154 49 -66 48 96 62 169 62 328 0 150 -13
236 -57 385 -63 212 -197 355 -388 413 -73 23 -170 37 -170 25z"/>
<path d="M2310 3938 c-78 -63 -293 -138 -498 -174 -56 -10 -101 -20 -99 -23
68 -124 88 -183 98 -277 10 -102 27 -169 61 -239 22 -46 81 -135 88 -135 3 0
4 36 2 79 -6 149 41 272 148 385 78 83 132 159 167 236 28 61 64 162 61 166
-2 1 -14 -7 -28 -18z"/>
<path d="M3787 3938 c-15 -12 -14 -17 14 -58 82 -119 153 -298 190 -476 18
-86 23 -143 23 -271 1 -90 5 -163 9 -163 25 0 128 117 161 183 56 110 57 150
6 277 -55 134 -53 181 12 309 24 47 44 88 45 91 2 3 -20 6 -48 7 -68 2 -180
37 -255 79 -65 36 -126 45 -157 22z"/>
<path d="M3060 3729 c-35 -6 -113 -37 -217 -89 -239 -118 -315 -198 -344 -362
-19 -106 10 -265 75 -408 l16 -35 -8 60 c-12 105 -7 265 11 326 21 66 66 142
100 163 13 9 65 25 116 36 112 25 174 53 204 92 99 131 138 152 289 152 59 1
104 4 100 7 -22 20 -237 72 -277 68 -5 -1 -35 -5 -65 -10z"/>
<path d="M3043 3456 c-197 -74 -324 -288 -279 -466 47 -181 229 -287 389 -226
62 23 139 108 167 184 54 141 -8 297 -131 334 -54 16 -106 -2 -157 -53 -59
-60 -77 -102 -77 -180 0 -57 4 -73 33 -118 30 -50 31 -52 10 -46 -43 13 -90
58 -110 103 -53 119 32 301 174 373 106 54 240 30 318 -58 130 -148 90 -402
-94 -600 -63 -68 -63 -78 -1 -37 201 133 309 387 247 582 -29 91 -83 156 -162
195 -58 29 -75 32 -165 34 -85 2 -110 -1 -162 -21z"/>
<path d="M2406 3303 c-24 -49 -56 -126 -72 -173 -25 -76 -28 -99 -29 -221 l0
-136 43 -84 c87 -172 272 -319 496 -394 140 -47 248 -32 372 52 85 58 171 99
287 138 l102 34 27 81 c62 184 80 413 41 535 l-19 60 -6 -85 c-12 -159 -65
-266 -203 -411 -78 -81 -96 -106 -119 -167 -29 -76 -39 -86 -97 -97 -59 -11
-111 10 -181 73 -109 98 -120 104 -219 113 -67 5 -101 14 -145 35 -112 57
-213 201 -250 359 -20 86 -15 268 9 333 25 67 11 49 -37 -45z"/>
<path d="M1781 3195 c-1 -156 43 -276 130 -361 98 -94 103 -108 107 -319 3
-212 11 -237 82 -272 25 -12 95 -33 155 -47 139 -31 187 -53 277 -125 120 -96
255 -152 406 -167 l63 -7 -6 35 c-9 45 15 139 54 216 l30 59 -87 7 c-195 14
-363 79 -497 191 -70 59 -206 194 -231 230 -12 17 -36 66 -54 110 -46 110 -93
179 -146 212 -146 91 -205 149 -259 258 l-24 50 0 -70z"/>
<path d="M2689 3194 c-30 -67 -52 -181 -44 -234 9 -60 41 -133 70 -160 l24
-23 -21 54 c-28 72 -36 246 -15 342 8 37 13 67 11 67 -2 0 -13 -21 -25 -46z"/>
<path d="M3976 2822 c-11 -71 -72 -176 -136 -236 -70 -64 -149 -104 -278 -140
-122 -35 -182 -59 -250 -102 -149 -94 -222 -217 -222 -372 l0 -75 54 7 c149
17 333 95 373 157 44 70 80 103 182 172 270 180 355 284 354 432 0 71 -35 184
-59 192 -6 2 -14 -14 -18 -35z"/>
<path d="M3299 2784 c-38 -40 -140 -83 -228 -96 -67 -10 -95 -9 -172 5 -52 9
-95 14 -97 13 -2 -2 34 -19 80 -36 95 -37 191 -44 271 -21 52 15 130 78 160
130 22 38 18 39 -14 5z"/>
<path d="M1955 2094 c-141 -19 -194 -31 -285 -61 -58 -19 -130 -48 -160 -65
-72 -40 -179 -111 -180 -120 0 -3 15 -3 33 2 205 53 468 -14 752 -194 123 -78
200 -100 340 -100 122 1 229 20 358 64 75 25 237 96 237 102 0 2 -80 3 -178 4
-164 0 -182 2 -249 26 -74 26 -168 76 -160 84 2 3 40 -7 83 -22 48 -16 110
-28 159 -31 l80 -5 -71 40 c-39 22 -112 71 -163 110 -100 75 -204 125 -311
148 -69 15 -234 25 -285 18z"/>
</g>
</svg>
